<svg xmlns="http://www.w3.org/2000/svg" width="41" height="34" viewBox="0 0 41 34"><g><g><path fill="#29a5dc" d="M19.075 19.524l-.521-.726c.163-.215.394-.498.594-.801a.492.492 0 0 0 .058-.37c-.547-1.72-1.111-3.433-1.66-5.151-.075-.241-.203-.325-.445-.354-.574-.066-1.144-.166-1.797-.264.225-.345.42-.663.637-.963.043-.06.168-.083.254-.082.154.003.317.01.46.06.76.276 1.304-.026 1.879-.532 1.602-1.407 3.255-2.756 4.9-4.112a.979.979 0 0 1 .604-.21c2.78.099 5.56.222 8.342.324.27.01.354.154.45.354 2.425 5.007 4.852 10.01 7.279 15.016.122.25.243.504.395.818-.85.063-1.642.122-2.436.179-2.536.18-5.072.354-7.607.548a1.125 1.125 0 0 0-.626.264c-1.978 1.793-3.938 3.605-5.918 5.396a.955.955 0 0 1-.625.222c-2.963-.137-5.925-.3-8.888-.438a1.453 1.453 0 0 0-.75.192c-2.512 1.463-5.016 2.942-7.522 4.417-.133.079-.27.15-.455.253-.057-.16-.113-.295-.156-.436-1.84-6.064-3.676-12.13-5.527-18.19-.115-.375-.06-.558.285-.77 1.768-1.085 3.516-2.203 5.313-3.336l.649 1.003c-.452.287-.886.564-1.321.838-1.122.709-2.241 1.423-3.37 2.123-.213.133-.272.249-.193.507a945.167 945.167 0 0 1 2.25 7.414c.073.242.187.382.434.45.336.095.662.225 1.017.349l-.246.754-.787-.206 2.33 7.69c.156-.078.279-.134.395-.202 2.106-1.237 4.218-2.463 6.309-3.725.463-.28.91-.36 1.437-.33 2.524.149 5.05.269 7.575.397.153.007.308 0 .535 0l-2.993-9.118-.538.748zm1.789-2.41c-.333.314-.321.64-.178 1.063.735 2.179 1.43 4.37 2.142 6.557.295.906.597 1.81.909 2.753.15-.131.258-.22.36-.315 1.655-1.518 3.314-3.03 4.957-4.561.366-.34.737-.543 1.257-.573 2.156-.126 4.31-.293 6.465-.448.61-.044 1.223-.097 1.863-.148-.036-.11-.048-.164-.072-.211-.653-1.346-1.305-2.693-1.968-4.033a1.128 1.128 0 0 0-.33-.37c-.492-.374-.996-.732-1.511-1.107l.4-.691c.17.093.296.163.497.276-.064-.157-.09-.234-.125-.306-1.18-2.422-2.365-4.843-3.536-7.27-.111-.23-.25-.294-.488-.3-2.372-.05-4.743-.112-7.115-.158a.746.746 0 0 0-.45.17c-1.684 1.395-3.36 2.803-5.045 4.198-.215.178-.275.327-.18.606.438 1.268.844 2.545 1.262 3.819.054.164.115.326.185.523l.372-.394.556.603c-.096.137-.146.243-.227.318z"/></g><g><path fill="#29a5dc" d="M9.308 13.094A121.197 121.197 0 0 0 6.97 9.463c-1.617-2.4-1.545-5.223.215-7.257 1.96-2.265 5.257-2.694 7.704-1.005 2.457 1.696 3.221 4.91 1.738 7.548-.615 1.093-1.37 2.106-2.029 3.176-.983 1.597-1.936 3.214-2.902 4.822a6.383 6.383 0 0 0-.09.156c-.797-1.324-1.53-2.577-2.297-3.809zm5.476-7.529c.018-1.741-1.412-3.18-3.17-3.193-1.756-.012-3.218 1.419-3.217 3.149 0 1.717 1.431 3.136 3.173 3.146 1.751.01 3.197-1.386 3.214-3.102z"/></g><g><path fill="#29a5dc" d="M17.649 22.407c-.19-.22-.36-.42-.547-.638l.935-1.144.565.62-.953 1.162z"/></g><g><path fill="#29a5dc" d="M15.581 23.3l.588.596-1.408.975c-.07-.26-.146-.444-.162-.633a.443.443 0 0 1 .128-.333c.272-.218.57-.407.854-.604z"/></g><g><path fill="#29a5dc" d="M11.28 24.597c.377 0 .741-.015 1.101.01.083.007.185.136.226.23.065.153.087.322.14.537h-1.663l.196-.777z"/></g><g><path fill="#29a5dc" d="M7.617 24.817l.27-.784c.448.091.872.176 1.337.268l-.2.798-1.407-.282z"/></g><g><path fill="#29a5dc" d="M25.454 12.288l1.809-.54-.067.863-1.291.397-.451-.72zm8.79 1.613c-.146.256-.271.47-.412.716l-1.33-.722.384-.74 1.359.746zm-3.648-.821l-1.282-.356v-.84c.569.149 1.089.282 1.678.435l-.396.76zm-7.397 2.102l-.486-.586c.34-.38.668-.741 1.029-1.143l.468.717-1.011 1.012z"/></g><g><path fill="#fff" d="M11.57 8.667c-1.742-.01-3.173-1.429-3.173-3.146 0-1.73 1.461-3.161 3.217-3.149 1.758.013 3.188 1.452 3.17 3.193-.017 1.716-1.463 3.112-3.214 3.102z"/></g><g><path fill="#29a5dc" d="M25.454 12.288l1.809-.539-.067.861-1.291.398-.451-.72z"/></g><g><path fill="#29a5dc" d="M34.245 13.9l-.413.716-1.33-.722.384-.74c.466.257.903.496 1.359.746z"/></g><g><path fill="#29a5dc" d="M30.596 13.08l-1.282-.356v-.839l1.678.433-.396.762z"/></g><g><path fill="#29a5dc" d="M23.199 15.182l-.486-.586c.34-.38.668-.741 1.029-1.143l.468.717-1.011 1.012z"/></g></g></svg>