<svg xmlns="http://www.w3.org/2000/svg" width="35" height="39" viewBox="0 0 35 39"><g><g><path fill="#29a5dc" d="M29.424 24.63c1.474 2.552 2.947 5.105 4.422 7.657.089.153.149.31.112.488-.061.287-.3.474-.612.467-.437-.01-.872-.027-1.308-.043l-3.034-.105c-.218-.008-.436-.012-.653-.026-.093-.006-.143.021-.19.108a1536.76 1536.76 0 0 1-2.33 4.388c-.17.321-.498.45-.79.288a.791.791 0 0 1-.28-.283c-1.022-1.758-2.038-3.52-3.055-5.28l-2.064-3.578c-.025-.043-.052-.085-.085-.139-.251.203-.496.4-.738.6a1.77 1.77 0 0 1-.797.392 1.745 1.745 0 0 1-1.497-.378l-.653-.529c-.032-.026-.067-.05-.107-.08-.03.048-.057.09-.082.133l-5.115 8.86c-.2.346-.572.454-.867.238a.805.805 0 0 1-.217-.266c-.778-1.454-1.551-2.909-2.322-4.366-.042-.079-.082-.113-.176-.109-1.47.055-2.941.106-4.411.157-.187.007-.374.008-.56.02-.247.013-.445-.07-.574-.284-.126-.21-.107-.422.014-.63.48-.828.958-1.657 1.436-2.485L6.555 23.5l.06-.108-.358-.136c-.75-.282-1.234-.987-1.174-1.753.03-.379.107-.755.165-1.13.079-.508.163-1.015.24-1.523a.613.613 0 0 0-.15-.497c-.503-.618-1.003-1.24-1.508-1.858-.567-.695-.574-1.595-.01-2.294.502-.62 1.004-1.24 1.509-1.858a.673.673 0 0 0 .152-.565c-.134-.833-.27-1.666-.388-2.5a1.71 1.71 0 0 1 1.022-1.786c.755-.31 1.518-.599 2.283-.883a.82.82 0 0 0 .53-.523c.266-.723.547-1.439.824-2.157.289-.75.974-1.22 1.745-1.167.379.026.755.105 1.13.165.508.08 1.014.162 1.522.241.197.031.363-.037.516-.162.612-.5 1.225-.998 1.84-1.493.718-.58 1.596-.58 2.313-.003.615.496 1.229.993 1.84 1.494.17.14.354.191.574.156.829-.135 1.657-.27 2.489-.389a1.71 1.71 0 0 1 1.789 1.017c.319.776.612 1.563.909 2.35a.723.723 0 0 0 .452.448c.749.282 1.496.568 2.24.861.73.288 1.19.98 1.133 1.734-.028.375-.105.747-.163 1.12-.08.506-.163 1.013-.243 1.52-.032.197.032.364.157.518.499.612.996 1.226 1.493 1.84.586.723.583 1.607-.006 2.331-.498.613-.993 1.228-1.492 1.84a.66.66 0 0 0-.145.555c.133.821.273 1.643.384 2.467.11.828-.346 1.562-1.125 1.868-.126.05-.252.1-.393.153l.713 1.237zm-4.943 1.713c.288-.75.578-1.5.864-2.253a1.76 1.76 0 0 1 1.06-1.065c.345-.132.69-.263 1.034-.396.41-.157.82-.312 1.23-.47.286-.11.449-.363.407-.636-.125-.795-.247-1.59-.38-2.385-.093-.552.009-1.05.362-1.49.498-.62.999-1.236 1.499-1.852.269-.33.27-.575 0-.909-.5-.616-1.001-1.232-1.498-1.85a1.702 1.702 0 0 1-.375-1.376c.124-.812.255-1.62.38-2.433.055-.346-.077-.577-.407-.705-.45-.175-.9-.345-1.35-.518-.307-.118-.616-.236-.924-.356a1.745 1.745 0 0 1-1.035-1.045l-.868-2.263c-.114-.295-.361-.453-.643-.41-.791.123-1.583.246-2.373.377-.552.092-1.053-.006-1.493-.36-.621-.5-1.24-1.004-1.86-1.507-.322-.262-.576-.26-.9.003-.622.505-1.243 1.012-1.868 1.513a1.694 1.694 0 0 1-1.357.366c-.815-.124-1.63-.256-2.443-.383-.346-.053-.574.082-.702.413-.28.73-.565 1.456-.837 2.19A1.843 1.843 0 0 1 8.866 7.68c-.747.28-1.49.567-2.232.856-.272.105-.426.36-.384.625.125.795.248 1.59.38 2.384.096.571-.023 1.078-.393 1.528-.496.605-.985 1.216-1.477 1.824-.26.321-.257.571.002.89.502.62 1.006 1.238 1.505 1.86.32.4.453.857.376 1.365-.124.815-.255 1.63-.382 2.444-.054.345.083.58.409.705l2.252.864c.508.195.86.546 1.056 1.055l.35.914c.174.453.347.907.522 1.36.109.28.36.443.627.402.749-.117 1.5-.222 2.246-.362.659-.124 1.235-.007 1.753.432.567.48 1.153.938 1.73 1.407.337.274.579.272.916-.002.613-.499 1.227-.995 1.842-1.49.385-.312.828-.453 1.318-.389.605.081 1.206.19 1.809.285.276.042.553.085.795.124.289 0 .493-.153.595-.419zm.867 9.645c.662-1.246 1.326-2.492 1.986-3.739.137-.259.343-.38.635-.365.252.012.505.017.758.026l3.512.13c.03 0 .064-.005.11-.007-1.586-2.748-3.165-5.48-4.744-8.217-.252.097-.492.196-.737.282a.695.695 0 0 0-.446.441c-.283.75-.568 1.496-.861 2.241-.31.788-1.036 1.236-1.866 1.127a47.341 47.341 0 0 1-2.338-.37c-.36-.066-.633.027-.87.301l4.784 8.286.077-.136zM14.61 27.636a.58.58 0 0 0-.461-.12c-.561.086-1.121.177-1.682.265-.327.051-.652.122-.981.141-.777.044-1.447-.42-1.74-1.178l-.86-2.24c-.056-.15-.14-.278-.285-.34-.288-.123-.582-.233-.88-.35L2.977 32.03c.112 0 .2.003.29 0l1.61-.059c.805-.028 1.61-.047 2.416-.088.34-.017.566.106.725.41.65 1.238 1.31 2.472 1.967 3.708.02.037.042.071.07.12l4.79-8.297c-.083-.068-.158-.13-.234-.189z"/></g><g><path fill="none" stroke="#29a5dc" stroke-miterlimit="20" stroke-width=".25" d="M29.424 24.63c1.474 2.552 2.947 5.105 4.422 7.657.089.153.149.31.112.488-.061.287-.3.474-.612.467-.437-.01-.872-.027-1.308-.043l-3.034-.105c-.218-.008-.436-.012-.653-.026-.093-.006-.143.021-.19.108a1536.76 1536.76 0 0 1-2.33 4.388c-.17.321-.498.45-.79.288a.791.791 0 0 1-.28-.283c-1.022-1.758-2.038-3.52-3.055-5.28l-2.064-3.578c-.025-.043-.052-.085-.085-.139-.251.203-.496.4-.738.6a1.77 1.77 0 0 1-.797.392 1.745 1.745 0 0 1-1.497-.378l-.653-.529c-.032-.026-.067-.05-.107-.08-.03.048-.057.09-.082.133l-5.115 8.86c-.2.346-.572.454-.867.238a.805.805 0 0 1-.217-.266c-.778-1.454-1.551-2.909-2.322-4.366-.042-.079-.082-.113-.176-.109-1.47.055-2.941.106-4.411.157-.187.007-.374.008-.56.02-.247.013-.445-.07-.574-.284-.126-.21-.107-.422.014-.63.48-.828.958-1.657 1.436-2.485L6.555 23.5l.06-.108-.358-.136c-.75-.282-1.234-.987-1.174-1.753.03-.379.107-.755.165-1.13.079-.508.163-1.015.24-1.523a.613.613 0 0 0-.15-.497c-.503-.618-1.003-1.24-1.508-1.858-.567-.695-.574-1.595-.01-2.294.502-.62 1.004-1.24 1.509-1.858a.673.673 0 0 0 .152-.565c-.134-.833-.27-1.666-.388-2.5a1.71 1.71 0 0 1 1.022-1.786c.755-.31 1.518-.599 2.283-.883a.82.82 0 0 0 .53-.523c.266-.723.547-1.439.824-2.157.289-.75.974-1.22 1.745-1.167.379.026.755.105 1.13.165.508.08 1.014.162 1.522.241.197.031.363-.037.516-.162.612-.5 1.225-.998 1.84-1.493.718-.58 1.596-.58 2.313-.003.615.496 1.229.993 1.84 1.494.17.14.354.191.574.156.829-.135 1.657-.27 2.489-.389a1.71 1.71 0 0 1 1.789 1.017c.319.776.612 1.563.909 2.35a.723.723 0 0 0 .452.448c.749.282 1.496.568 2.24.861.73.288 1.19.98 1.133 1.734-.028.375-.105.747-.163 1.12-.08.506-.163 1.013-.243 1.52-.032.197.032.364.157.518.499.612.996 1.226 1.493 1.84.586.723.583 1.607-.006 2.331-.498.613-.993 1.228-1.492 1.84a.66.66 0 0 0-.145.555c.133.821.273 1.643.384 2.467.11.828-.346 1.562-1.125 1.868-.126.05-.252.1-.393.153l.713 1.237zm-4.943 1.713c.288-.75.578-1.5.864-2.253a1.76 1.76 0 0 1 1.06-1.065c.345-.132.69-.263 1.034-.396.41-.157.82-.312 1.23-.47.286-.11.449-.363.407-.636-.125-.795-.247-1.59-.38-2.385-.093-.552.009-1.05.362-1.49.498-.62.999-1.236 1.499-1.852.269-.33.27-.575 0-.909-.5-.616-1.001-1.232-1.498-1.85a1.702 1.702 0 0 1-.375-1.376c.124-.812.255-1.62.38-2.433.055-.346-.077-.577-.407-.705-.45-.175-.9-.345-1.35-.518-.307-.118-.616-.236-.924-.356a1.745 1.745 0 0 1-1.035-1.045l-.868-2.263c-.114-.295-.361-.453-.643-.41-.791.123-1.583.246-2.373.377-.552.092-1.053-.006-1.493-.36-.621-.5-1.24-1.004-1.86-1.507-.322-.262-.576-.26-.9.003-.622.505-1.243 1.012-1.868 1.513a1.694 1.694 0 0 1-1.357.366c-.815-.124-1.63-.256-2.443-.383-.346-.053-.574.082-.702.413-.28.73-.565 1.456-.837 2.19A1.843 1.843 0 0 1 8.866 7.68c-.747.28-1.49.567-2.232.856-.272.105-.426.36-.384.625.125.795.248 1.59.38 2.384.096.571-.023 1.078-.393 1.528-.496.605-.985 1.216-1.477 1.824-.26.321-.257.571.002.89.502.62 1.006 1.238 1.505 1.86.32.4.453.857.376 1.365-.124.815-.255 1.63-.382 2.444-.054.345.083.58.409.705l2.252.864c.508.195.86.546 1.056 1.055l.35.914c.174.453.347.907.522 1.36.109.28.36.443.627.402.749-.117 1.5-.222 2.246-.362.659-.124 1.235-.007 1.753.432.567.48 1.153.938 1.73 1.407.337.274.579.272.916-.002.613-.499 1.227-.995 1.842-1.49.385-.312.828-.453 1.318-.389.605.081 1.206.19 1.809.285.276.042.553.085.795.124.289 0 .493-.153.595-.419zm.867 9.645c.662-1.246 1.326-2.492 1.986-3.739.137-.259.343-.38.635-.365.252.012.505.017.758.026l3.512.13c.03 0 .064-.005.11-.007-1.586-2.748-3.165-5.48-4.744-8.217-.252.097-.492.196-.737.282a.695.695 0 0 0-.446.441c-.283.75-.568 1.496-.861 2.241-.31.788-1.036 1.236-1.866 1.127a47.341 47.341 0 0 1-2.338-.37c-.36-.066-.633.027-.87.301l4.784 8.286.077-.136zM14.61 27.636a.58.58 0 0 0-.461-.12c-.561.086-1.121.177-1.682.265-.327.051-.652.122-.981.141-.777.044-1.447-.42-1.74-1.178l-.86-2.24c-.056-.15-.14-.278-.285-.34-.288-.123-.582-.233-.88-.35L2.977 32.03c.112 0 .2.003.29 0l1.61-.059c.805-.028 1.61-.047 2.416-.088.34-.017.566.106.725.41.65 1.238 1.31 2.472 1.967 3.708.02.037.042.071.07.12l4.79-8.297c-.083-.068-.158-.13-.234-.189z"/></g><g><path fill="#fff" d="M23.09 26.638c-.602-.096-1.203-.203-1.808-.284-.49-.065-.933.077-1.318.388-.615.496-1.23.992-1.842 1.49-.336.274-.58.276-.916.003-.577-.47-1.163-.927-1.73-1.407-.518-.44-1.094-.556-1.753-.432-.745.14-1.497.245-2.246.36-.267.042-.518-.121-.627-.4-.175-.453-.348-.907-.522-1.361l-.35-.914a1.76 1.76 0 0 0-1.056-1.054l-2.252-.865c-.326-.126-.463-.36-.41-.705.128-.814.259-1.63.383-2.443a1.696 1.696 0 0 0-.376-1.365c-.5-.622-1.002-1.241-1.505-1.861-.26-.32-.261-.57-.002-.89.492-.608.98-1.218 1.477-1.823.37-.451.489-.957.393-1.53-.132-.793-.255-1.588-.38-2.383-.042-.265.112-.52.384-.625a162.72 162.72 0 0 1 2.232-.855 1.842 1.842 0 0 0 1.138-1.14c.272-.732.557-1.46.837-2.188.128-.331.356-.467.702-.413.814.127 1.628.259 2.443.383.503.076.96-.05 1.357-.367.625-.501 1.246-1.007 1.869-1.512.324-.264.577-.265.9-.003.619.503 1.238 1.006 1.859 1.507.44.353.94.452 1.493.36.79-.132 1.582-.254 2.373-.377.283-.044.529.114.643.409l.869 2.264c.19.5.535.85 1.034 1.045.308.12.617.237.925.355.45.173.9.344 1.349.519.33.128.462.358.408.705-.126.81-.257 1.62-.381 2.432-.08.513.052.973.375 1.375.498.62.999 1.236 1.498 1.852.27.334.269.577 0 .908-.5.616-1 1.233-1.5 1.852-.352.439-.454.938-.361 1.49.133.795.256 1.59.38 2.386.043.272-.121.524-.406.635-.41.159-.821.314-1.231.47l-1.033.397a1.76 1.76 0 0 0-1.061 1.064c-.286.752-.576 1.502-.864 2.253-.102.267-.306.418-.595.419l-.795-.124zM13.679 6.893a9.35 9.35 0 0 0-5.354 8.74c.004.133.005.268.033.396.067.302.349.482.662.436.298-.044.504-.316.484-.643a7.77 7.77 0 0 1 .35-2.891c.772-2.38 2.307-4.083 4.59-5.1 1.178-.523 2.42-.727 3.71-.647.123.008.252.018.37-.007a.573.573 0 0 0 .448-.624c-.024-.284-.252-.502-.564-.524-.248-.02-.497-.025-.637-.032-1.503.007-2.834.297-4.092.896zm5.153 11.199v-6.795c0-.242-.088-.435-.302-.553-.22-.121-.435-.091-.64.045-.57.38-1.14.758-1.707 1.14a.579.579 0 0 0-.175.81c.178.275.532.346.82.164.116-.073.227-.152.34-.227.16-.106.32-.213.487-.322v5.908c-.4 0-.788-.004-1.178.002a.577.577 0 0 0-.564.58c0 .316.25.583.564.584 1.18.004 2.359.003 3.538 0a.58.58 0 0 0 .132-1.144.85.85 0 0 0-.208-.021c-.364-.002-.73-.001-1.107-.001zm7.309-6.681a9.164 9.164 0 0 0-1.454-2.231c-.226-.256-.577-.284-.825-.073-.252.214-.278.566-.06.834.062.075.127.147.188.223 1.63 2.065 2.18 4.386 1.65 6.962a7.665 7.665 0 0 1-.722 1.988.605.605 0 0 0-.072.416.573.573 0 0 0 .49.465c.265.035.486-.087.618-.343a9.325 9.325 0 0 0 1.054-4.25c-.005-1.433-.291-2.744-.867-3.991zm-2.854-3.036a.577.577 0 0 0-.216-.651 8.858 8.858 0 0 0-1.605-.918.582.582 0 1 0-.477 1.063c.488.224.952.489 1.396.792.098.068.223.097.335.144a.65.65 0 0 0 .567-.43zm-5.624 15.15a.582.582 0 0 0-.58-.591.58.58 0 0 0-.586.595c-.002.38-.002.76-.001 1.142.002.34.258.599.586.598.327-.001.579-.26.58-.602.003-.186.002-.373.002-.56 0-.194.002-.388-.001-.582zm5.73-1.005a.557.557 0 0 0-.124-.645 42.678 42.678 0 0 0-.824-.824.578.578 0 0 0-.827.004.575.575 0 0 0 .003.818c.27.28.547.552.823.827a.565.565 0 0 0 .42.17c.247-.01.433-.121.529-.35zm-11.713.21c.3-.293.602-.585.889-.892.194-.207.188-.516.012-.738a.58.58 0 0 0-.84-.073c-.295.292-.595.58-.88.884-.17.18-.19.405-.086.629a.556.556 0 0 0 .52.33.514.514 0 0 0 .385-.14zm2.733 1.549c.165-.368.324-.74.473-1.115a.577.577 0 0 0-.31-.74.57.57 0 0 0-.752.277c-.173.377-.338.758-.486 1.146-.143.375.147.77.594.77a.545.545 0 0 0 .48-.338zM9.699 20.12c.375-.15.75-.297 1.122-.457a.572.572 0 0 0 .304-.74.575.575 0 0 0-.737-.336c-.381.145-.76.298-1.134.458a.57.57 0 0 0-.324.656.602.602 0 0 0 .577.46c.065-.012.132-.017.192-.041zm11.006 3.829c-.163-.412-.316-.828-.5-1.23-.125-.272-.468-.37-.742-.245a.568.568 0 0 0-.312.709c.145.389.302.774.466 1.155a.572.572 0 0 0 .66.318c.26-.062.447-.3.447-.6-.002-.017-.002-.065-.02-.107z"/></g><g><path fill="none" stroke="#29a5dc" stroke-miterlimit="20" stroke-width=".25" d="M23.09 26.638c-.602-.096-1.203-.203-1.808-.284-.49-.065-.933.077-1.318.388-.615.496-1.23.992-1.842 1.49-.336.274-.58.276-.916.003-.577-.47-1.163-.927-1.73-1.407-.518-.44-1.094-.556-1.753-.432-.745.14-1.497.245-2.246.36-.267.042-.518-.121-.627-.4-.175-.453-.348-.907-.522-1.361l-.35-.914a1.76 1.76 0 0 0-1.056-1.054l-2.252-.865c-.326-.126-.463-.36-.41-.705.128-.814.259-1.63.383-2.443a1.696 1.696 0 0 0-.376-1.365c-.5-.622-1.002-1.241-1.505-1.861-.26-.32-.261-.57-.002-.89.492-.608.98-1.218 1.477-1.823.37-.451.489-.957.393-1.53-.132-.793-.255-1.588-.38-2.383-.042-.265.112-.52.384-.625a162.72 162.72 0 0 1 2.232-.855 1.842 1.842 0 0 0 1.138-1.14c.272-.732.557-1.46.837-2.188.128-.331.356-.467.702-.413.814.127 1.628.259 2.443.383.503.076.96-.05 1.357-.367.625-.501 1.246-1.007 1.869-1.512.324-.264.577-.265.9-.003.619.503 1.238 1.006 1.859 1.507.44.353.94.452 1.493.36.79-.132 1.582-.254 2.373-.377.283-.044.529.114.643.409l.869 2.264c.19.5.535.85 1.034 1.045.308.12.617.237.925.355.45.173.9.344 1.349.519.33.128.462.358.408.705-.126.81-.257 1.62-.381 2.432-.08.513.052.973.375 1.375.498.62.999 1.236 1.498 1.852.27.334.269.577 0 .908-.5.616-1 1.233-1.5 1.852-.352.439-.454.938-.361 1.49.133.795.256 1.59.38 2.386.043.272-.121.524-.406.635-.41.159-.821.314-1.231.47l-1.033.397a1.76 1.76 0 0 0-1.061 1.064c-.286.752-.576 1.502-.864 2.253-.102.267-.306.418-.595.419l-.795-.124zM13.679 6.893a9.35 9.35 0 0 0-5.354 8.74c.004.133.005.268.033.396.067.302.349.482.662.436.298-.044.504-.316.484-.643a7.77 7.77 0 0 1 .35-2.891c.772-2.38 2.307-4.083 4.59-5.1 1.178-.523 2.42-.727 3.71-.647.123.008.252.018.37-.007a.573.573 0 0 0 .448-.624c-.024-.284-.252-.502-.564-.524-.248-.02-.497-.025-.637-.032-1.503.007-2.834.297-4.092.896zm5.153 11.199v-6.795c0-.242-.088-.435-.302-.553-.22-.121-.435-.091-.64.045-.57.38-1.14.758-1.707 1.14a.579.579 0 0 0-.175.81c.178.275.532.346.82.164.116-.073.227-.152.34-.227.16-.106.32-.213.487-.322v5.908c-.4 0-.788-.004-1.178.002a.577.577 0 0 0-.564.58c0 .316.25.583.564.584 1.18.004 2.359.003 3.538 0a.58.58 0 0 0 .132-1.144.85.85 0 0 0-.208-.021c-.364-.002-.73-.001-1.107-.001zm7.309-6.681a9.164 9.164 0 0 0-1.454-2.231c-.226-.256-.577-.284-.825-.073-.252.214-.278.566-.06.834.062.075.127.147.188.223 1.63 2.065 2.18 4.386 1.65 6.962a7.665 7.665 0 0 1-.722 1.988.605.605 0 0 0-.072.416.573.573 0 0 0 .49.465c.265.035.486-.087.618-.343a9.325 9.325 0 0 0 1.054-4.25c-.005-1.433-.291-2.744-.867-3.991zm-2.854-3.036a.577.577 0 0 0-.216-.651 8.858 8.858 0 0 0-1.605-.918.582.582 0 1 0-.477 1.063c.488.224.952.489 1.396.792.098.068.223.097.335.144a.65.65 0 0 0 .567-.43zm-5.624 15.15a.582.582 0 0 0-.58-.591.58.58 0 0 0-.586.595c-.002.38-.002.76-.001 1.142.002.34.258.599.586.598.327-.001.579-.26.58-.602.003-.186.002-.373.002-.56 0-.194.002-.388-.001-.582zm5.73-1.005a.557.557 0 0 0-.124-.645 42.678 42.678 0 0 0-.824-.824.578.578 0 0 0-.827.004.575.575 0 0 0 .003.818c.27.28.547.552.823.827a.565.565 0 0 0 .42.17c.247-.01.433-.121.529-.35zm-11.713.21c.3-.293.602-.585.889-.892.194-.207.188-.516.012-.738a.58.58 0 0 0-.84-.073c-.295.292-.595.58-.88.884-.17.18-.19.405-.086.629a.556.556 0 0 0 .52.33.514.514 0 0 0 .385-.14zm2.733 1.549c.165-.368.324-.74.473-1.115a.577.577 0 0 0-.31-.74.57.57 0 0 0-.752.277c-.173.377-.338.758-.486 1.146-.143.375.147.77.594.77a.545.545 0 0 0 .48-.338zM9.699 20.12c.375-.15.75-.297 1.122-.457a.572.572 0 0 0 .304-.74.575.575 0 0 0-.737-.336c-.381.145-.76.298-1.134.458a.57.57 0 0 0-.324.656.602.602 0 0 0 .577.46c.065-.012.132-.017.192-.041zm11.006 3.829c-.163-.412-.316-.828-.5-1.23-.125-.272-.468-.37-.742-.245a.568.568 0 0 0-.312.709c.145.389.302.774.466 1.155a.572.572 0 0 0 .66.318c.26-.062.447-.3.447-.6-.002-.017-.002-.065-.02-.107z"/></g><g><path fill="#fff" d="M25.271 36.124l-4.784-8.286c.237-.274.511-.366.87-.301.776.143 1.556.268 2.338.37.83.11 1.555-.339 1.866-1.127.293-.745.578-1.492.86-2.241a.693.693 0 0 1 .447-.44c.245-.086.485-.186.736-.283l4.745 8.217c-.047.002-.079.007-.111.006l-3.511-.129c-.253-.009-.506-.014-.759-.026-.292-.015-.498.106-.634.365-.661 1.247-1.324 2.493-1.986 3.739l-.077.136z"/></g><g><path fill="none" stroke="#29a5dc" stroke-miterlimit="20" stroke-width=".25" d="M25.271 36.124l-4.784-8.286c.237-.274.511-.366.87-.301.776.143 1.556.268 2.338.37.83.11 1.555-.339 1.866-1.127.293-.745.578-1.492.86-2.241a.693.693 0 0 1 .447-.44c.245-.086.485-.186.736-.283l4.745 8.217c-.047.002-.079.007-.111.006l-3.511-.129c-.253-.009-.506-.014-.759-.026-.292-.015-.498.106-.634.365-.661 1.247-1.324 2.493-1.986 3.739l-.077.136z"/></g><g><path fill="#fff" d="M14.846 27.825l-4.791 8.297c-.028-.049-.05-.083-.07-.12-.657-1.236-1.317-2.47-1.967-3.709-.16-.303-.384-.426-.725-.409-.805.041-1.611.06-2.415.088l-1.611.06c-.09.002-.178 0-.29 0 1.583-2.74 3.16-5.476 4.745-8.219.298.118.592.228.88.351.146.062.229.19.286.34.285.746.572 1.494.86 2.24.292.758.962 1.222 1.739 1.178.329-.019.654-.09.98-.14.562-.089 1.122-.18 1.683-.267a.58.58 0 0 1 .46.121c.077.06.152.121.236.19z"/></g><g><path fill="none" stroke="#29a5dc" stroke-miterlimit="20" stroke-width=".25" d="M14.846 27.825l-4.791 8.297c-.028-.049-.05-.083-.07-.12-.657-1.236-1.317-2.47-1.967-3.709-.16-.303-.384-.426-.725-.409-.805.041-1.611.06-2.415.088l-1.611.06c-.09.002-.178 0-.29 0 1.583-2.74 3.16-5.476 4.745-8.219.298.118.592.228.88.351.146.062.229.19.286.34.285.746.572 1.494.86 2.24.292.758.962 1.222 1.739 1.178.329-.019.654-.09.98-.14.562-.089 1.122-.18 1.683-.267a.58.58 0 0 1 .46.121c.077.06.152.121.236.19z"/></g><g><path fill="#29a5dc" d="M17.77 5.997c.14.007.389.013.637.031.312.023.54.24.564.525a.573.573 0 0 1-.447.624c-.12.024-.248.014-.371.007a7.804 7.804 0 0 0-3.71.648c-2.283 1.016-3.818 2.72-4.59 5.1a7.764 7.764 0 0 0-.35 2.89c.02.326-.186.6-.484.643-.312.046-.595-.134-.662-.437-.028-.128-.03-.262-.033-.394a9.35 9.35 0 0 1 5.354-8.74c1.259-.6 2.589-.89 4.092-.897z"/></g><g><path fill="none" stroke="#29a5dc" stroke-miterlimit="20" stroke-width=".25" d="M17.77 5.997c.14.007.389.013.637.031.312.023.54.24.564.525a.573.573 0 0 1-.447.624c-.12.024-.248.014-.371.007a7.804 7.804 0 0 0-3.71.648c-2.283 1.016-3.818 2.72-4.59 5.1a7.764 7.764 0 0 0-.35 2.89c.02.326-.186.6-.484.643-.312.046-.595-.134-.662-.437-.028-.128-.03-.262-.033-.394a9.35 9.35 0 0 1 5.354-8.74c1.259-.6 2.589-.89 4.092-.897z"/></g><g><path fill="#29a5dc" d="M18.83 18.262h1.108a.9.9 0 0 1 .208.02.58.58 0 1 1-.132 1.145c-1.18.004-2.358.005-3.537 0a.578.578 0 0 1-.565-.582c0-.314.249-.577.565-.581.389-.006.778-.002 1.177-.002v-5.908l-.487.322c-.113.075-.224.154-.34.227-.288.182-.642.11-.82-.163a.578.578 0 0 1 .176-.81c.566-.383 1.137-.761 1.707-1.141.204-.136.42-.166.639-.045.214.118.302.31.302.553v6.795z"/></g><g><path fill="none" stroke="#29a5dc" stroke-miterlimit="20" stroke-width=".25" d="M18.83 18.262h1.108a.9.9 0 0 1 .208.02.58.58 0 1 1-.132 1.145c-1.18.004-2.358.005-3.537 0a.578.578 0 0 1-.565-.582c0-.314.249-.577.565-.581.389-.006.778-.002 1.177-.002v-5.908l-.487.322c-.113.075-.224.154-.34.227-.288.182-.642.11-.82-.163a.578.578 0 0 1 .176-.81c.566-.383 1.137-.761 1.707-1.141.204-.136.42-.166.639-.045.214.118.302.31.302.553v6.965z"/></g><g><path fill="#29a5dc" d="M27.007 15.402a9.325 9.325 0 0 1-1.054 4.25c-.132.255-.353.377-.617.342a.574.574 0 0 1-.492-.465.606.606 0 0 1 .073-.416 7.669 7.669 0 0 0 .72-1.987c.533-2.577-.018-4.898-1.65-6.962-.06-.076-.125-.149-.186-.224-.218-.267-.192-.62.06-.834.248-.21.599-.183.825.073a9.16 9.16 0 0 1 1.453 2.231 9.419 9.419 0 0 1 .868 3.992z"/></g><g><path fill="none" stroke="#29a5dc" stroke-miterlimit="20" stroke-width=".25" d="M27.007 15.402a9.325 9.325 0 0 1-1.054 4.25c-.132.255-.353.377-.617.342a.574.574 0 0 1-.492-.465.606.606 0 0 1 .073-.416 7.669 7.669 0 0 0 .72-1.987c.533-2.577-.018-4.898-1.65-6.962-.06-.076-.125-.149-.186-.224-.218-.267-.192-.62.06-.834.248-.21.599-.183.825.073a9.16 9.16 0 0 1 1.453 2.231 9.419 9.419 0 0 1 .868 3.992z"/></g><g><path fill="#29a5dc" d="M22.719 8.805c-.112-.047-.237-.076-.335-.144a9.611 9.611 0 0 0-1.396-.793.582.582 0 1 1 .477-1.062c.567.25 1.102.556 1.605.918.21.152.293.41.215.65a.648.648 0 0 1-.566.43z"/></g><g><path fill="none" stroke="#29a5dc" stroke-miterlimit="20" stroke-width=".25" d="M22.719 8.805c-.112-.047-.237-.076-.335-.144a9.611 9.611 0 0 0-1.396-.793.582.582 0 1 1 .477-1.062c.567.25 1.102.556 1.605.918.21.152.293.41.215.65a.648.648 0 0 1-.566.43z"/></g><g><path fill="#29a5dc" d="M17.663 24.107v.56c-.003.341-.255.6-.582.601a.582.582 0 0 1-.585-.598c-.002-.38-.002-.76 0-1.142a.583.583 0 1 1 1.167-.004c.002.194 0 .39 0 .583z"/></g><g><path fill="none" stroke="#29a5dc" stroke-miterlimit="20" stroke-width=".25" d="M17.663 24.107v.56c-.003.341-.255.6-.582.601a.582.582 0 0 1-.585-.598c-.002-.38-.002-.76 0-1.142a.583.583 0 1 1 1.167-.004c.002.194 0 .39 0 .583z"/></g><g><path fill="#29a5dc" d="M22.862 22.871a.566.566 0 0 1-.42-.172c-.276-.274-.553-.547-.823-.826a.575.575 0 0 1-.003-.818.578.578 0 0 1 .828-.004c.278.27.552.546.824.824.18.184.223.407.124.644-.097.23-.283.341-.53.352z"/></g><g><path fill="none" stroke="#29a5dc" stroke-miterlimit="20" stroke-width=".25" d="M22.862 22.871a.566.566 0 0 1-.42-.172c-.276-.274-.553-.547-.823-.826a.575.575 0 0 1-.003-.818.578.578 0 0 1 .828-.004c.278.27.552.546.824.824.18.184.223.407.124.644-.097.23-.283.341-.53.352z"/></g><g><path fill="#29a5dc" d="M11.294 22.871c-.238-.009-.42-.115-.52-.33-.105-.226-.084-.45.086-.63.285-.304.584-.593.88-.885a.58.58 0 0 1 .84.074c.175.221.182.531-.013.738-.287.306-.588.598-.888.891a.512.512 0 0 1-.385.142z"/></g><g><path fill="none" stroke="#29a5dc" stroke-miterlimit="20" stroke-width=".25" d="M11.294 22.871c-.238-.009-.42-.115-.52-.33-.105-.226-.084-.45.086-.63.285-.304.584-.593.88-.885a.58.58 0 0 1 .84.074c.175.221.182.531-.013.738-.287.306-.588.598-.888.891a.512.512 0 0 1-.385.142z"/></g><g><path fill="#29a5dc" d="M13.93 24.616c-.446.001-.736-.395-.594-.77.148-.387.313-.769.486-1.146a.572.572 0 0 1 .753-.276.577.577 0 0 1 .31.74c-.15.375-.309.746-.473 1.114a.544.544 0 0 1-.482.338z"/></g><g><path fill="none" stroke="#29a5dc" stroke-miterlimit="20" stroke-width=".25" d="M13.93 24.616c-.446.001-.736-.395-.594-.77.148-.387.313-.769.486-1.146a.572.572 0 0 1 .753-.276.577.577 0 0 1 .31.74c-.15.375-.309.746-.473 1.114a.544.544 0 0 1-.482.338z"/></g><g><path fill="#29a5dc" d="M9.507 20.163a.605.605 0 0 1-.578-.462.57.57 0 0 1 .325-.655c.375-.16.753-.314 1.134-.458a.575.575 0 0 1 .737.336.571.571 0 0 1-.305.74c-.37.16-.746.308-1.121.457-.06.023-.128.028-.192.042z"/></g><g><path fill="none" stroke="#29a5dc" stroke-miterlimit="20" stroke-width=".25" d="M9.507 20.163a.605.605 0 0 1-.578-.462.57.57 0 0 1 .325-.655c.375-.16.753-.314 1.134-.458a.575.575 0 0 1 .737.336.571.571 0 0 1-.305.74c-.37.16-.746.308-1.121.457-.06.023-.128.028-.192.042z"/></g><g><path fill="#29a5dc" d="M20.724 24.057c0 .3-.186.538-.447.6a.572.572 0 0 1-.66-.318 25.088 25.088 0 0 1-.466-1.155.568.568 0 0 1 .312-.71c.274-.123.617-.026.742.247.184.4.337.817.5 1.229.017.042.017.09.019.107z"/></g><g><path fill="none" stroke="#29a5dc" stroke-miterlimit="20" stroke-width=".25" d="M20.724 24.057c0 .3-.186.538-.447.6a.572.572 0 0 1-.66-.318 25.088 25.088 0 0 1-.466-1.155.568.568 0 0 1 .312-.71c.274-.123.617-.026.742.247.184.4.337.817.5 1.229.017.042.017.09.019.107z"/></g></g></svg>