<svg xmlns="http://www.w3.org/2000/svg" width="45" height="30" viewBox="0 0 45 30"><g><g><path fill="#29a5dc" d="M44.365 22.122c.075.432-.027.855-.295 1.171a1.408 1.408 0 0 1-1.11.502h-7.992l.458 2.567c.11.625-.04 1.22-.418 1.669-.383.453-.938.704-1.572.704H12.182c-.634 0-1.19-.255-1.567-.704-.384-.453-.525-1.048-.42-1.669l.455-2.558H2.662c-.45 0-.841-.18-1.11-.502a1.41 1.41 0 0 1-.3-1.175l.498-2.788c.142-.81.886-1.576 1.687-1.743l2.554-.542.422-.991a.41.41 0 0 1 .053-.084A7.901 7.901 0 0 1 5.45 14.06c-.476-.115-.93-.59-1.062-1.123-.19-.761.009-1.458.516-1.77l-.071-.885c0-2.514 1.915-4.338 4.553-4.338 2.642 0 4.557 1.824 4.557 4.338v1.013c.436.184.638.876.445 1.642-.132.529-.581 1.004-1.145 1.207-.185.633-.533 1.286-.933 1.832.02.026.044.052.057.083l.533 1.07 2.448.458c.585.128 1.13.568 1.444 1.109l.709-.154.827-1.695a.475.475 0 0 1 .199-.198c-.722-.929-1.294-2.039-1.708-3.148-.727-.26-1.458-.912-1.67-1.748-.281-1.119.013-2.109.705-2.541V7.618C15.854 3.787 18.778 1 22.807 1c4.028 0 6.957 2.783 6.957 6.618v1.594c.69.435.986 1.427.704 2.541-.211.841-.937 1.483-1.66 1.743-.418 1.114-1 2.22-1.722 3.153.084.048.159.11.203.203l.828 1.699.713.15c.313-.542.859-.986 1.44-1.11l2.558-.541.423-.991a.316.316 0 0 1 .053-.083 7.767 7.767 0 0 1-1.021-1.92c-.481-.115-.93-.59-1.062-1.123-.193-.762.009-1.457.51-1.771l-.07-.885c0-2.513 1.916-4.337 4.558-4.337s4.557 1.824 4.557 4.337v1.013c.427.186.63.877.44 1.643-.132.528-.581 1.004-1.144 1.206-.19.634-.537 1.286-.938 1.832a.515.515 0 0 1 .057.084l.528 1.079 2.444.453c.806.172 1.545.934 1.69 1.743zm-11.326-8.727c.388 1.198 1.194 2.655 2.317 3.17.282.128.572.194.867.194.286 0 .577-.066.859-.198 1.114-.511 1.928-1.973 2.32-3.157l.04-.128.133.027c.219 0 .646-.247.735-.59.1-.423-.01-.732-.137-.767l-.224.115-.111-.229v-1.555c0-2.003-1.488-3.403-3.62-3.403-2.131 0-3.62 1.4-3.62 3.403v1.801l-.22-.114c-.241.014-.355.326-.25.744.084.353.51.59.709.59l.132-.03zm5.54 3.518l-1.78 1.035.256.511 1.779-1.03zm-4.724-.009l-.265.551.185.07 1.607.929.25-.515zm-6.962 1.383l-.26-.533-.607.352-.635.371-.638.369-1.343.775.608 1.242 2.756-1.594.467-.269-.071-.149zm-9.33-5.672c.602 1.881 1.884 4.277 3.773 5.135.458.211.947.325 1.47.325.516 0 1.005-.114 1.454-.325 1.889-.872 3.192-3.303 3.795-5.135.388.072 1.269-.409 1.444-1.104.18-.718.009-1.388-.382-1.497a.486.486 0 0 0-.357.056V7.622c0-3.47-2.664-5.618-5.953-5.618-3.29 0-5.953 2.153-5.953 5.618v2.448c-.123-.061-.242-.091-.357-.056-.392.109-.564.779-.383 1.497.176.704 1.065 1.188 1.449 1.104zm.797 6.39l.467.268 2.755 1.594.609-1.241-1.344-.775-.634-.371-.634-.37-.607-.351-.261.532-.272.56zm-12.15-5.61c.389 1.198 1.195 2.655 2.313 3.17.282.128.572.194.867.194.29 0 .577-.066.858-.198 1.12-.511 1.934-1.973 2.326-3.157l.04-.128.13.027c.22 0 .653-.247.737-.59.105-.423-.01-.732-.137-.767l-.22.115-.114-.229v-1.555c0-2.003-1.493-3.403-3.624-3.403-2.132 0-3.62 1.4-3.62 3.403v1.801l-.22-.114c-.242.014-.356.326-.251.744.088.353.515.59.713.59l.133-.03zm5.544 3.514l-1.778 1.034.25.516 1.779-1.03zm-4.724-.005l-.27.551.19.07 1.608.929.25-.515zm3.945 5.051c.212-1.184 1.3-2.311 2.479-2.559l2.347-.497c-.184-.203-.418-.366-.651-.414l-2.378-.502-2.51 1.51a.48.48 0 0 1-.233.062c-.256-.053-.362-.145-.414-.255l-.225-.463-.225.463a.46.46 0 0 1-.277.237c-.053 0-.102.005-.141.005-.12 0-.171-.014-.224-.049l-2.58-1.492-2.312.488c-.436.097-.89.564-.97 1.004l-.497 2.787a.5.5 0 0 0 .097.423c.089.11.233.172.4.172h2.44v-1.348a.46.46 0 0 1 .463-.458.46.46 0 0 1 .462.458v1.348h4.787zm23.27 5.446c.195-.224.265-.532.2-.858l-.49-2.739-.163-.92-.132-.748c-.14-.798-.924-1.608-1.716-1.775l-2.515-.533-.907-.193-.334-.072c-.023.018-.035.036-.063.054l-4.072 2.356a.504.504 0 0 1-.388.044.496.496 0 0 1-.3-.256l-.567-1.167-.568 1.167a.492.492 0 0 1-.687.212l-4.073-2.356c-.026-.018-.04-.036-.061-.054l-.335.076-.903.184-2.518.533c-.788.167-1.576.982-1.718 1.775l-.132.749-.163.92-.488 2.738c-.062.331.012.639.202.863.189.225.48.353.814.353h4.096V25.39c0-.274.225-.494.493-.494.273 0 .493.225.493.494v2.364h11.105V25.39c0-.274.22-.494.488-.494.274 0 .493.225.493.494v2.364h4.096c.334 0 .629-.123.814-.353zm9.103-4.693a.547.547 0 0 0 .109-.423l-.497-2.787c-.084-.445-.537-.912-.973-1.004l-2.382-.502-2.514 1.51a.53.53 0 0 1-.233.061c-.256-.056-.358-.144-.414-.259l-.225-.462-.23.462a.45.45 0 0 1-.277.238c-.056 0-.105.004-.145.004a.393.393 0 0 1-.22-.048l-2.58-1.497-2.312.488c-.233.049-.471.212-.652.414l2.343.498c1.18.246 2.267 1.373 2.479 2.563l.167.911h4.79v-1.352a.46.46 0 0 1 .463-.458.46.46 0 0 1 .462.458v1.352h2.44a.503.503 0 0 0 .4-.167z"/></g><g><path fill="none" stroke="#29a5dc" stroke-miterlimit="20" stroke-width=".25" d="M43.854 19.33l.51 2.792c.076.432-.026.855-.294 1.171a1.408 1.408 0 0 1-1.11.502h-7.992l.458 2.567c.11.625-.04 1.22-.418 1.669-.383.453-.938.704-1.572.704H12.182c-.634 0-1.19-.255-1.567-.704-.384-.453-.525-1.048-.42-1.669l.455-2.558H2.662c-.45 0-.841-.18-1.11-.502a1.41 1.41 0 0 1-.3-1.175l.498-2.788c.142-.81.886-1.576 1.687-1.743l2.554-.542.422-.991a.41.41 0 0 1 .053-.084A7.901 7.901 0 0 1 5.45 14.06c-.476-.115-.93-.59-1.062-1.123-.19-.761.009-1.458.516-1.77l-.071-.885c0-2.514 1.915-4.338 4.553-4.338 2.642 0 4.557 1.824 4.557 4.338v1.013c.436.184.638.876.445 1.642-.132.529-.581 1.004-1.145 1.207-.185.633-.533 1.286-.933 1.832.02.026.044.052.057.083l.533 1.07 2.448.458c.585.128 1.13.568 1.444 1.109l.709-.154.827-1.695a.475.475 0 0 1 .199-.198c-.722-.929-1.294-2.039-1.708-3.148-.727-.26-1.458-.912-1.67-1.748-.281-1.119.013-2.109.705-2.541V7.618C15.854 3.787 18.778 1 22.807 1c4.028 0 6.957 2.783 6.957 6.618v1.594c.69.435.986 1.427.704 2.541-.211.841-.937 1.483-1.66 1.743-.418 1.114-1 2.22-1.722 3.153.084.048.159.11.203.203l.828 1.699.713.15c.313-.542.859-.986 1.44-1.11l2.558-.541.423-.991a.316.316 0 0 1 .053-.083 7.767 7.767 0 0 1-1.021-1.92c-.481-.115-.93-.59-1.062-1.123-.193-.762.009-1.457.51-1.771l-.07-.885c0-2.513 1.916-4.337 4.558-4.337s4.557 1.824 4.557 4.337v1.013c.427.186.63.877.44 1.643-.132.528-.581 1.004-1.144 1.206-.19.634-.537 1.286-.938 1.832a.515.515 0 0 1 .057.084l.528 1.079 2.444.453c.806.172 1.545.934 1.69 1.743zm-10.815-5.935c.388 1.198 1.194 2.655 2.317 3.17.282.128.572.194.867.194.286 0 .577-.066.859-.198 1.114-.511 1.928-1.973 2.32-3.157l.04-.128.133.027c.219 0 .646-.247.735-.59.1-.423-.01-.732-.137-.767l-.224.115-.111-.229v-1.555c0-2.003-1.488-3.403-3.62-3.403-2.131 0-3.62 1.4-3.62 3.403v1.801l-.22-.114c-.241.014-.355.326-.25.744.084.353.51.59.709.59l.132-.03zm5.795 4.034l-.255-.516-1.78 1.035.256.511zm-3.201.51l-1.778-1.035-.265.551.185.07 1.607.929zm-8.463.912l-.277-.564-.26-.533-.607.352-.635.371-.638.369-1.343.775.608 1.242 2.756-1.594.467-.269zm-9.607-6.236c.602 1.881 1.884 4.277 3.773 5.135.458.211.947.325 1.47.325.516 0 1.005-.114 1.454-.325 1.889-.872 3.192-3.303 3.795-5.135.388.072 1.269-.409 1.444-1.104.18-.718.009-1.388-.382-1.497a.486.486 0 0 0-.357.056V7.622c0-3.47-2.664-5.618-5.953-5.618-3.29 0-5.953 2.153-5.953 5.618v2.448c-.123-.061-.242-.091-.357-.056-.392.109-.564.779-.383 1.497.176.704 1.065 1.188 1.449 1.104zm.876 6.236l-.08.154.468.268 2.755 1.594.609-1.241-1.344-.775-.634-.371-.634-.37-.607-.351-.261.532zM6.21 13.395c.388 1.198 1.194 2.655 2.312 3.17.282.128.572.194.867.194.29 0 .577-.066.858-.198 1.12-.511 1.934-1.973 2.326-3.157l.04-.128.13.027c.22 0 .653-.247.737-.59.105-.423-.01-.732-.137-.767l-.22.115-.114-.229v-1.555c0-2.003-1.493-3.403-3.624-3.403-2.132 0-3.62 1.4-3.62 3.403v1.801l-.22-.114c-.242.014-.356.326-.251.744.088.353.515.59.713.59l.133-.03zm5.794 4.034l-.251-.52-1.778 1.034.25.516zm-3.196.51l-1.78-1.035-.268.551.19.07 1.607.929zm2.004 4.936l.162-.92c.212-1.184 1.3-2.311 2.479-2.559l2.347-.497c-.184-.203-.418-.366-.651-.414l-2.378-.502-2.51 1.51a.48.48 0 0 1-.233.062c-.256-.053-.362-.145-.414-.255l-.225-.463-.225.463a.46.46 0 0 1-.277.237c-.053 0-.102.005-.141.005-.12 0-.171-.014-.224-.049l-2.58-1.492-2.312.488c-.436.097-.89.564-.97 1.004l-.497 2.787a.5.5 0 0 0 .097.423c.089.11.233.172.4.172h2.44v-1.348a.46.46 0 0 1 .463-.458.46.46 0 0 1 .462.458v1.348zm23.433 4.526c.194-.224.264-.532.199-.858l-.49-2.739-.163-.92-.132-.748c-.14-.798-.924-1.608-1.716-1.775l-2.515-.533-.907-.193-.334-.072c-.023.018-.035.036-.063.054l-4.072 2.356a.504.504 0 0 1-.388.044.496.496 0 0 1-.3-.256l-.567-1.167-.568 1.167a.492.492 0 0 1-.687.212l-4.073-2.356c-.026-.018-.04-.036-.061-.054l-.335.076-.903.184-2.518.533c-.788.167-1.576.982-1.718 1.775l-.132.749-.163.92-.488 2.738c-.062.331.012.639.202.863.189.225.48.353.814.353h4.096V25.39c0-.274.225-.494.493-.494.273 0 .493.225.493.494v2.364h11.105V25.39c0-.274.22-.494.488-.494.274 0 .493.225.493.494v2.364h4.096c.334 0 .629-.123.814-.353zm9.102-4.693a.547.547 0 0 0 .109-.423l-.497-2.787c-.084-.445-.537-.912-.973-1.004l-2.382-.502-2.514 1.51a.53.53 0 0 1-.233.061c-.256-.056-.358-.144-.414-.259l-.225-.462-.23.462a.45.45 0 0 1-.277.238c-.056 0-.105.004-.145.004a.393.393 0 0 1-.22-.048l-2.58-1.497-2.312.488c-.233.049-.471.212-.652.414l2.343.498c1.18.246 2.267 1.373 2.479 2.563l.167.911h4.79v-1.352a.46.46 0 0 1 .463-.458.46.46 0 0 1 .462.458v1.352h2.44a.503.503 0 0 0 .4-.167z"/></g></g></svg>