<svg xmlns="http://www.w3.org/2000/svg" width="30" height="29" viewBox="0 0 30 29"><g><g><path fill="#29a5dc" d="M26.227 7.63a1.207 1.207 0 0 0-.562 1.614 11.96 11.96 0 0 1 1.197 5.256c0 6.663-5.42 12.083-12.084 12.083-6.662 0-12.083-5.42-12.083-12.083S8.116 2.417 14.778 2.417c2.761 0 5.355.902 7.502 2.607a1.208 1.208 0 1 0 1.504-1.892A14.528 14.528 0 0 0 14.778 0C6.784 0 .278 6.505.278 14.5S6.784 29 14.778 29c7.995 0 14.5-6.505 14.5-14.5 0-2.216-.484-4.34-1.438-6.307a1.206 1.206 0 0 0-1.613-.562z"/></g><g><path fill="#29a5dc" d="M14.778 4.833a1.21 1.21 0 0 0-1.208 1.209V14.5c0 .667.541 1.208 1.208 1.208h6.042a1.208 1.208 0 0 0 0-2.416h-4.833v-7.25a1.21 1.21 0 0 0-1.209-1.209z"/></g></g></svg>