<svg id="Слой_1" data-name="Слой 1" xmlns="http://www.w3.org/2000/svg" viewBox="0 0 1175.13 335.84"><defs><style>.cls-1,.cls-2{fill:#fff;}.cls-1{fill-rule:evenodd;}</style></defs><title>logo</title><path class="cls-1" d="M71.81,236c-6.1-.43-15.45,2.24-18.36,6.48-12.17,17.78,18.73,15.28,27.42,15.68-5.62,4.77-27.1,27.3-28.38,32.63-1.43,6-1.43,53.59-1.57,63.85-.18,13.82-3.22,45.17,7,53.11H41a5.11,5.11,0,0,0-5.09,5.1h0A5.1,5.1,0,0,0,41,417.92h327a5.1,5.1,0,0,0,5.09-5.09h0a5.11,5.11,0,0,0-5.09-5.1h-17c12.92-10.45,5.46-63.9,5.75-82.78.59-34.77-.51-44.58-28.69-66.81,9.22-.43,36.92,2.9,28.08-14.59-2.67-5.28-19.61-11.89-25.87-4.58-12.68,14.82-11.32-1.12-22.91-17.81-1.26-2.51-2.4-4.78-3.52-6.86a15.82,15.82,0,0,1-4.56,3.63l19.27,37.33c-11.75-.08-23.58-.56-35.46-1.15-5.79,6-15.88,9.46-22.52,3.17-1.09-1-4.21-3-5.86-2.85-1.89,1.55-5.49,7.52-4.9,10a10.14,10.14,0,0,1,.59,2.53c.88,7.92-6.13,14.32-13.14,16.45-8,2.88-18.59.75-21.77-8l0-.1c-.48-1.47-2.32-4.83-3.91-5.39-2.35.45-8.16,3.92-8.88,6.21-2,8.93-12.39,12.05-20.48,10.21-8.56-1.65-16.82-8.82-14.63-18.18.27-1.49.32-5.06-.64-6.37-2.43-.69-9.25-1-10.74.66-6.12,7-17.18,4.08-23.26-1.49a22.37,22.37,0,0,1-4.87-6.58c-12.87.66-25.47,1.09-37.54.88,3.86-9.74,8.58-18.56,13.91-28,1-1.76,1.86-3.36,2.66-4.86a21.8,21.8,0,0,1-3.52-5.78,253.65,253.65,0,0,0-13,23.17c-8.55,16.85-7-2.94-18.65-3.79ZM93.44,407.73c5.57-3.92,4-12.23,4.45-21.8,37.49-2.62,175.71-2.62,213,0,.4,9.3-1.14,17.8,4.48,21.8ZM126.91,130c3.94,3.71,3.49,13.52,2.31,16.53-1.65,2.83-6.76,4-12.09,3-5.14-1.15-10.71,3.73-12.15,11.2-1.63,7,1.2,13.73,6.31,14.9,5.57,1.17,9.54,10.27,9.78,13.31.45,3-3.25,7-8.39,8.37-5.33,1.89-7.46,9.09-5.33,16.07s8.34,11.44,13.48,9.82c4.88-1.87,10.5-.94,11.88,1.86,1.63,2.32,3.47,12.11-.24,16.29-3.25,4-1.83,11.17,3.52,16.08s13,5.84,16.52,1.87,13.27-3,16.3-1.87c2.8,1.17,4.21,6.56,3.25,11.65-1.38,5.6,3.49,11.2,10.95,12.58,7,1.63,13.78-1.38,14.92-6.74,1.42-5.12,10.26-9.55,13.27-9.79s7,3.71,8.63,8.64c1.87,5.12,8.85,7.65,15.83,5.12,7-2.11,11.4-8.18,9.54-13.06-1.63-5.36,4.21-13.55,6.76-15.39,2.32-1.86,7.7-.24,11.65,3.26,3.94,3.73,11.16,2.34,16.28-3.26,4.68-5.59,5.62-12.82,1.67-16.53s-3.06-13.51-1.67-16.34c1.19-2.77,6.31-4.19,11.42-3,5.6,1.17,11.2-3.95,12.61-11,1.62-7.47-1.41-14.18-6.8-15.36-5.09-1-9.3-10-9.77-13.06-.22-3.28,3.72-6.75,8.63-8.64,5.35-1.63,7.7-8.64,5.35-15.6-2.34-7.25-8.36-11.41-13.26-9.78-5.12,1.38-13.51-4.19-15.38-6.56-1.84-2.77-.21-7.89,3.49-11.86s2.08-11.44-3.49-16.32c-5.38-4.91-12.79-5.81-16.54-1.89-3.49,4-13.51,3.54-16,2.13-2.83-1.2-4.45-6.77-3.3-11.92,1.41-5.09-3.95-10.72-10.93-12.34-7.19-1.39-14,1.38-15.37,6.77-.93,5.36-10,9.57-13,9.78-3.06,0-6.77-3.46-8.63-8.85C187.2,85,180.24,82.92,173.24,85s-11.41,8.13-9.78,13.52c1.38,5.12-3.94,13-6.77,14.9-2.55,1.9-7.67.46-11.64-3.25-3.94-3.49-11.4-1.87-16.28,3.25-4.9,5.6-5.86,13.31-1.86,16.56Zm59.35-3.7h0c31-9.82,63.87,7.19,73.64,37.72a58.38,58.38,0,1,1-111.09,35.91c-9.81-30.52,6.95-63.9,37.45-73.63Zm-40,209.45a19,19,0,0,0,19,19h78.39a19,19,0,0,0,19-19V322.66a19.05,19.05,0,0,0-19-19H165.24a19.06,19.06,0,0,0-19,19Zm-24.13.05a23.21,23.21,0,0,0,10.36-11.22c-11.69-6.91-55.17-10-68.52-7.34-6,35.39,45.9,24.4,58.16,18.56Zm154.23-11.22a23.21,23.21,0,0,0,10.36,11.22c12.26,5.84,64.18,16.83,58.16-18.56-13.35-2.64-56.82.43-68.52,7.34Z" transform="translate(-35.87 -82.08)"/><path class="cls-1" d="M221.81,190.35a2.05,2.05,0,0,0-1.47-.62,2,2,0,0,0-1.46.62l-1.81,1.78c-3-3-5.49-5.46-7.94-7.92l8.71-8.74,3.65-3.65a13.95,13.95,0,0,0,18.65-16.69l-.4-1.39-9.46,9.49-7.88-7.89,9.46-9.49-1.37-.37a13.9,13.9,0,0,0-16.67,18.63l-3.65,3.68v0l-8.77,8.75c-4.39-4.35-9.7-9.63-17.58-17.52a.09.09,0,0,0,0-.06L180,152.49a.86.86,0,0,0-.24-.3l-6.39-4.42a.89.89,0,0,0-1.12.1l-2.85,2.86a.86.86,0,0,0-.11,1.12l4.42,6.4a1.8,1.8,0,0,0,.29.26l6.48,3.79h0c7.62,7.62,13,13,17.59,17.54l-8.77,8.75h0l-3.65,3.65a13.92,13.92,0,0,0-18.62,16.69l.37,1.39,9.48-9.5,7.89,7.9-9.48,9.49,1.38.37a13.92,13.92,0,0,0,16.68-18.64l3.65-3.68,8.76-8.77c2.59,2.56,5.12,5.07,8,7.95L212,197.22a2.05,2.05,0,0,0,0,2.94l20.09,20.1a2.05,2.05,0,0,0,2.92,0l6.88-6.88a2.06,2.06,0,0,0,0-2.93Zm10.26,25.4-15.56-15.57,1.65-1.62,15.53,15.54Zm3.67-3.7L220.21,196.5l1.63-1.65,15.55,15.57Z" transform="translate(-35.87 -82.08)"/><path d="M430.16,323V172.3a23.47,23.47,0,0,1,6.66-16.94,21.33,21.33,0,0,1,15.94-6.91h31.38a21.35,21.35,0,0,1,15.95,6.91,23.5,23.5,0,0,1,6.65,16.94V323H479.12V248.88l-21.34,11.3V323Zm27.62-93.65L479.12,218V174.81H457.78Z" transform="translate(-35.87 -82.08)"/><path d="M574.53,183.6h27.62V323H574.53V310.14a19.61,19.61,0,0,1-4,5.78,21.56,21.56,0,0,1-16.06,7h-5a21.36,21.36,0,0,1-15.94-6.9,23.5,23.5,0,0,1-6.65-16.95V183.6h27.62v113h20.08Z" transform="translate(-35.87 -82.08)"/><path d="M659.89,296.59h26.37V323H654.87a21.16,21.16,0,0,1-15.94-7,23.61,23.61,0,0,1-6.65-16.82V235.32L616,243.86V213l16.32-8.54V173.56l27.61-13.81v31.38l22.6-11.29v30.63L659.89,222Z" transform="translate(-35.87 -82.08)"/><path d="M771.62,207.45V299.1A23.54,23.54,0,0,1,765,316.05,21.37,21.37,0,0,1,749,323H718.9a21.18,21.18,0,0,1-15.95-7,23.65,23.65,0,0,1-6.65-16.82V207.45A23.5,23.5,0,0,1,703,190.51a21.35,21.35,0,0,1,15.95-6.91H749A21.35,21.35,0,0,1,765,190.51,23.5,23.5,0,0,1,771.62,207.45ZM744,296.59V210H723.92v86.63Z" transform="translate(-35.87 -82.08)"/><path d="M791.71,172.3q0-10.29,6.65-17.07a21.54,21.54,0,0,1,15.94-6.78h31.39a21.35,21.35,0,0,1,15.94,6.91,23.5,23.5,0,0,1,6.65,16.94v7.54l-27.61,13.8V174.81H819.33v46.45l48.95-25.1V299.1a23.65,23.65,0,0,1-6.65,16.82,21.18,21.18,0,0,1-15.94,7H814.3a21.36,21.36,0,0,1-15.94-6.9,23.5,23.5,0,0,1-6.65-16.95V282.78L819.33,269v27.62h21.34V241.35l-49,25.11Z" transform="translate(-35.87 -82.08)"/><path d="M926,296.59h26.36V323H921a21.16,21.16,0,0,1-15.94-7,23.62,23.62,0,0,1-6.66-16.82V235.32l-16.32,8.54V213l16.32-8.54V173.56L926,159.75v31.38l22.6-11.29v30.63L926,222Z" transform="translate(-35.87 -82.08)"/><path d="M985,323a21.36,21.36,0,0,1-15.94-6.9,23.5,23.5,0,0,1-6.65-16.95V252.65l47.7-23.85V210H990.06v12.56l-27.62,13.81V207.45a23.61,23.61,0,0,1,6.65-16.82,21.2,21.2,0,0,1,15.94-7h30.13a21.37,21.37,0,0,1,15.95,6.91,23.5,23.5,0,0,1,6.65,16.94V323h-27.62V310.14a19.61,19.61,0,0,1-4,5.78,21.54,21.54,0,0,1-16.06,7Zm5-59v32.64h20.08V253.9Z" transform="translate(-35.87 -82.08)"/><path d="M1085.46,323h-27.62V183.6h27.62v12.81a23.6,23.6,0,0,1,4-6,22,22,0,0,1,16.07-6.78h5a21.33,21.33,0,0,1,15.94,6.91,23.47,23.47,0,0,1,6.66,16.94v18.83l-27.62,13.81V210h-20.09Z" transform="translate(-35.87 -82.08)"/><path d="M1184.64,296.59H1211V323h-31.38a21.18,21.18,0,0,1-15.95-7A23.65,23.65,0,0,1,1157,299.1V235.32l-16.32,8.54V213l16.32-8.54V173.56l27.62-13.81v31.38l22.59-11.29v30.63L1184.64,222Z" transform="translate(-35.87 -82.08)"/><path class="cls-2" d="M430.16,323V172.3a23.47,23.47,0,0,1,6.66-16.94,21.33,21.33,0,0,1,15.94-6.91h31.38a21.35,21.35,0,0,1,15.95,6.91,23.5,23.5,0,0,1,6.65,16.94V323H479.12V248.88l-21.34,11.3V323Zm27.62-93.65L479.12,218V174.81H457.78Z" transform="translate(-35.87 -82.08)"/><path class="cls-2" d="M574.53,183.6h27.62V323H574.53V310.14a19.61,19.61,0,0,1-4,5.78,21.56,21.56,0,0,1-16.06,7h-5a21.36,21.36,0,0,1-15.94-6.9,23.5,23.5,0,0,1-6.65-16.95V183.6h27.62v113h20.08Z" transform="translate(-35.87 -82.08)"/><path class="cls-2" d="M659.89,296.59h26.37V323H654.87a21.16,21.16,0,0,1-15.94-7,23.61,23.61,0,0,1-6.65-16.82V235.32L616,243.86V213l16.32-8.54V173.56l27.61-13.81v31.38l22.6-11.29v30.63L659.89,222Z" transform="translate(-35.87 -82.08)"/><path class="cls-2" d="M771.62,207.45V299.1A23.54,23.54,0,0,1,765,316.05,21.37,21.37,0,0,1,749,323H718.9a21.18,21.18,0,0,1-15.95-7,23.65,23.65,0,0,1-6.65-16.82V207.45A23.5,23.5,0,0,1,703,190.51a21.35,21.35,0,0,1,15.95-6.91H749A21.35,21.35,0,0,1,765,190.51,23.5,23.5,0,0,1,771.62,207.45ZM744,296.59V210H723.92v86.63Z" transform="translate(-35.87 -82.08)"/><path class="cls-2" d="M791.71,172.3q0-10.29,6.65-17.07a21.54,21.54,0,0,1,15.94-6.78h31.39a21.35,21.35,0,0,1,15.94,6.91,23.5,23.5,0,0,1,6.65,16.94v7.54l-27.61,13.8V174.81H819.33v46.45l48.95-25.1V299.1a23.65,23.65,0,0,1-6.65,16.82,21.18,21.18,0,0,1-15.94,7H814.3a21.36,21.36,0,0,1-15.94-6.9,23.5,23.5,0,0,1-6.65-16.95V282.78L819.33,269v27.62h21.34V241.35l-49,25.11Z" transform="translate(-35.87 -82.08)"/><path class="cls-2" d="M926,296.59h26.36V323H921a21.16,21.16,0,0,1-15.94-7,23.62,23.62,0,0,1-6.66-16.82V235.32l-16.32,8.54V213l16.32-8.54V173.56L926,159.75v31.38l22.6-11.29v30.63L926,222Z" transform="translate(-35.87 -82.08)"/><path class="cls-2" d="M985,323a21.36,21.36,0,0,1-15.94-6.9,23.5,23.5,0,0,1-6.65-16.95V252.65l47.7-23.85V210H990.06v12.56l-27.62,13.81V207.45a23.61,23.61,0,0,1,6.65-16.82,21.2,21.2,0,0,1,15.94-7h30.13a21.37,21.37,0,0,1,15.95,6.91,23.5,23.5,0,0,1,6.65,16.94V323h-27.62V310.14a19.61,19.61,0,0,1-4,5.78,21.54,21.54,0,0,1-16.06,7Zm5-59v32.64h20.08V253.9Z" transform="translate(-35.87 -82.08)"/><path class="cls-2" d="M1085.46,323h-27.62V183.6h27.62v12.81a23.6,23.6,0,0,1,4-6,22,22,0,0,1,16.07-6.78h5a21.33,21.33,0,0,1,15.94,6.91,23.47,23.47,0,0,1,6.66,16.94v18.83l-27.62,13.81V210h-20.09Z" transform="translate(-35.87 -82.08)"/><path class="cls-2" d="M1184.64,296.59H1211V323h-31.38a21.18,21.18,0,0,1-15.95-7A23.65,23.65,0,0,1,1157,299.1V235.32l-16.32,8.54V213l16.32-8.54V173.56l27.62-13.81v31.38l22.59-11.29v30.63L1184.64,222Z" transform="translate(-35.87 -82.08)"/></svg>