<svg xmlns="http://www.w3.org/2000/svg" viewBox="0 0 14.86 13.16"><defs><style>.cls-1{fill:#fff;}</style></defs><title>maps</title><g id="Слой_2" data-name="Слой 2"><g id="Над_шапкой" data-name="Над шапкой"><g id="Адрес"><path class="cls-1" d="M7.1,8.44a.46.46,0,0,0,.33.13.48.48,0,0,0,.33-.13c.12-.1,2.92-2.6,2.92-5.19a3.25,3.25,0,0,0-6.5,0C4.18,5.84,7,8.34,7.1,8.44Zm.33-6a.85.85,0,1,1-.84.85A.85.85,0,0,1,7.43,2.4Z"/><path class="cls-1" d="M13.67,8.44,13.3,7.12a.5.5,0,0,0-.48-.36H10.13l-.31.44A13.1,13.1,0,0,1,8.22,9,1.19,1.19,0,0,1,6.64,9,12.83,12.83,0,0,1,5,7.2c-.1-.15-.21-.29-.3-.44H2a.5.5,0,0,0-.48.36L1.11,8.7l10,1.83Z"/><path class="cls-1" d="M14.84,12.52l-1-3.37-4.78,4h5.26a.52.52,0,0,0,.4-.2A.53.53,0,0,0,14.84,12.52Z"/><path class="cls-1" d="M2.44,9.65.92,9.37,0,12.52A.53.53,0,0,0,.1,13a.51.51,0,0,0,.4.2H2.44Z"/><polygon class="cls-1" points="3.14 9.78 3.14 13.16 8.02 13.16 10.45 11.12 3.14 9.78"/></g></g></g></svg>