<svg xmlns="http://www.w3.org/2000/svg" viewBox="0 0 14.19 14.23"><defs><style>.cls-1{fill:#fff;}</style></defs><title>phone</title><g id="Слой_2" data-name="Слой 2"><g id="Над_шапкой" data-name="Над шапкой"><g id="Номер_телефона" data-name="Номер телефона"><path class="cls-1" d="M12.24,7.19h-.72a4.3,4.3,0,0,0-4.28-4.3V2.17A5,5,0,0,1,12.24,7.19Zm-5-3.77v.73a3,3,0,0,1,3,3H11A3.76,3.76,0,0,0,7.24,3.42ZM7.09,0a7.12,7.12,0,0,0,0,14.23.44.44,0,0,0,.44-.44.44.44,0,0,0-.44-.44,6.24,6.24,0,1,1,6.22-6.24,4.06,4.06,0,0,1-1.85,3.47,2.75,2.75,0,0,1-1.29.33,2,2,0,0,0,.69-.67l.11-.15A8.3,8.3,0,0,0,11.21,9c.1-.46-2-1.37-2.21-.79a6.26,6.26,0,0,1-.3,1.07c-.12.16-.42.08-.6-.07-.49-.42-1-1-1.5-1.51h0l0,0,0,0h0C6,7.14,5.43,6.59,5,6.11c-.15-.19-.23-.48-.07-.6A5.49,5.49,0,0,1,6,5.2C6.59,5,5.68,2.88,5.22,3a6.61,6.61,0,0,0-1.09.24.86.86,0,0,0-.16.1C2.76,4.11,2.6,6,3.79,7.38q.67.8,1.41,1.56h0l0,0,0,0h0a14.27,14.27,0,0,0,2.08,1.85,4.12,4.12,0,0,0,4.53.48,4.92,4.92,0,0,0,2.31-4.23A7.12,7.12,0,0,0,7.09,0Z"/></g></g></g></svg>