<svg xmlns="http://www.w3.org/2000/svg" viewBox="0 0 13.79 13.79"><defs><style>.cls-1{fill:#fff;}</style></defs><title>time</title><g id="Слой_2" data-name="Слой 2"><g id="Над_шапкой" data-name="Над шапкой"><g id="Время"><path class="cls-1" d="M12.34,3.63a.57.57,0,0,0-.27.77,5.64,5.64,0,0,1,.57,2.49A5.75,5.75,0,1,1,6.89,1.15a5.67,5.67,0,0,1,3.57,1.24.58.58,0,0,0,.72-.9,6.9,6.9,0,1,0,2.61,5.4,6.82,6.82,0,0,0-.68-3A.58.58,0,0,0,12.34,3.63Z"/><path class="cls-1" d="M6.89,2.3a.58.58,0,0,0-.57.57v4a.58.58,0,0,0,.57.58H9.77a.58.58,0,0,0,0-1.15H7.47V2.87A.58.58,0,0,0,6.89,2.3Z"/></g></g></g></svg>