<svg xmlns="http://www.w3.org/2000/svg" viewBox="0 0 27.92 17.06"><defs><style>.cls-1{fill:#fff;}</style></defs><title>diagnostics</title><g id="Слой_2" data-name="Слой 2"><g id="Контейнер"><g id="Спектр_услуг" data-name="Спектр услуг"><g id="Диагностика"><path class="cls-1" d="M25.61,0H2.32a.7.7,0,0,0-.73.66V14.48a.7.7,0,0,0,.73.67H25.61a.7.7,0,0,0,.73-.67V.66A.7.7,0,0,0,25.61,0Zm-.32,13.83H2.64V1.25H25.29Z"/><path class="cls-1" d="M27.92,15.67a1.33,1.33,0,0,1-1.26,1.39H1.26A1.33,1.33,0,0,1,0,15.67Z"/><path class="cls-1" d="M18.26,6.54a7.36,7.36,0,0,0-1.64-.23h-.34v.05a11.62,11.62,0,0,1,.1,1.44v0h.05c1.63-.1,3.32-.23,3.42-.27a.08.08,0,0,0,.05-.07A4.37,4.37,0,0,0,18.26,6.54ZM16.49,7.75a10.22,10.22,0,0,0-.1-1.35h.23a7.66,7.66,0,0,1,1.61.22,5.7,5.7,0,0,1,1.57.86C19.57,7.53,18.17,7.65,16.49,7.75Zm1.77-1.21a7.36,7.36,0,0,0-1.64-.23h-.34v.05a11.62,11.62,0,0,1,.1,1.44v0h.05c1.63-.1,3.32-.23,3.42-.27a.08.08,0,0,0,.05-.07A4.37,4.37,0,0,0,18.26,6.54ZM16.49,7.75a10.22,10.22,0,0,0-.1-1.35h.23a7.66,7.66,0,0,1,1.61.22,5.7,5.7,0,0,1,1.57.86C19.57,7.53,18.17,7.65,16.49,7.75Zm1.77-1.21a7.36,7.36,0,0,0-1.64-.23h-.34v.05a11.62,11.62,0,0,1,.1,1.44v0h.05c1.63-.1,3.32-.23,3.42-.27a.08.08,0,0,0,.05-.07A4.37,4.37,0,0,0,18.26,6.54ZM16.49,7.75a10.22,10.22,0,0,0-.1-1.35h.23a7.66,7.66,0,0,1,1.61.22,5.7,5.7,0,0,1,1.57.86C19.57,7.53,18.17,7.65,16.49,7.75Zm1.77-1.21a7.36,7.36,0,0,0-1.64-.23h-.34v.05a11.62,11.62,0,0,1,.1,1.44v0h.05c1.63-.1,3.32-.23,3.42-.27a.08.08,0,0,0,.05-.07A4.37,4.37,0,0,0,18.26,6.54ZM16.49,7.75a10.22,10.22,0,0,0-.1-1.35h.23a7.66,7.66,0,0,1,1.61.22,5.7,5.7,0,0,1,1.57.86C19.57,7.53,18.17,7.65,16.49,7.75Zm1.77-1.21a7.36,7.36,0,0,0-1.64-.23h-.34v.05a11.62,11.62,0,0,1,.1,1.44v0h.05c1.63-.1,3.32-.23,3.42-.27a.08.08,0,0,0,.05-.07A4.37,4.37,0,0,0,18.26,6.54ZM16.49,7.75a10.22,10.22,0,0,0-.1-1.35h.23a7.66,7.66,0,0,1,1.61.22,5.7,5.7,0,0,1,1.57.86C19.57,7.53,18.17,7.65,16.49,7.75ZM8.82,9.08,8.8,9a1.69,1.69,0,0,0-1.3,1.64,1.71,1.71,0,0,0,0,.31H6.79l-.44,0H6.13a.46.46,0,0,1-.24-.06l0,0v0a.24.24,0,0,1,0-.12v0h0l0,0h0v0l0,0v0s0,0,0-.07a.18.18,0,0,0,0-.06c0-.13,0-.25,0-.36V9.78A.25.25,0,0,0,6,9.7V9.61a.2.2,0,0,1,0-.07V9.47a0,0,0,0,1,0,0v0a.34.34,0,0,1,0-.1,1,1,0,0,1,.26-.59l.1-.14A5.19,5.19,0,0,1,8.54,8.1l0-.1a4.89,4.89,0,0,0-2.24.52l-.1.14a1.18,1.18,0,0,0-.28.64s0,.06,0,.1v.06a.2.2,0,0,0,0,.07v.08a.08.08,0,0,1,0,0V10c0,.11,0,.23,0,.36v0a.13.13,0,0,1,0,.05v0s0,0,0,0h0v0l0,0,0,0v0a.47.47,0,0,0,0,.17l0,.05h0l.07.07a.5.5,0,0,0,.29.09h.22l.45,0h.86V11a1.45,1.45,0,0,1,0-.35A1.59,1.59,0,0,1,8.82,9.08Zm15,.14a.24.24,0,0,0,0-.08v0l0-.07V9l0,0,0,0,0,0s0,0-.05-.07v0a.24.24,0,0,1,0-.08v-.1h0a.38.38,0,0,0,0-.1v0l-.06-.24s0-.06,0-.09l0-.06v0l-.09-.29a.17.17,0,0,1,0-.05v0c0-.05-.1-.06-.5-.11a5,5,0,0,1-1.11-.22l-.25-.1a13.7,13.7,0,0,0-5.19-1.18h-.4a5.78,5.78,0,0,0-2,.12A25.13,25.13,0,0,0,11.45,7.4l-.63.31a4.16,4.16,0,0,1-.93.15V8a5.22,5.22,0,0,0,1-.16l.63-.31A25.05,25.05,0,0,1,14,6.33a5.3,5.3,0,0,1,2-.12h.39a13.61,13.61,0,0,1,5.16,1.17l.26.11a6.65,6.65,0,0,0,1.13.22,3.1,3.1,0,0,1,.42.06v0l0,0c0,.07.05.17.08.29l0,0v.06l0,.09.05.2a.08.08,0,0,0,0,0v0a.19.19,0,0,1,0,.08v0a.2.2,0,0,1,0,.07.25.25,0,0,0,0,.12h0a.26.26,0,0,0,.07.1h0V9l0,0v0l0,.06v0s0,.05,0,.07a3.14,3.14,0,0,1,0,1.11h0l-.15.09-.07.06h0l0,0,0,0-.05,0,0,0a.31.31,0,0,1-.1.05l-.07.05-.34.11h-.13c-.16,0-.33.06-.44.08a1.53,1.53,0,0,0,0-.3,1.69,1.69,0,1,0-3.34.31H10.84a1.89,1.89,0,0,0,0-.31A1.7,1.7,0,0,0,9.78,9.05v.1a1.6,1.6,0,0,1,1,1.48,1.63,1.63,0,0,1,0,.35V11h8.33V11a1.45,1.45,0,0,1,0-.35,1.59,1.59,0,1,1,3.17,0,1.27,1.27,0,0,1,0,.34V11h.07l.52-.08h.12a2.14,2.14,0,0,0,.36-.12l.08,0,.1-.06.05,0a.1.1,0,0,1,0,0l.05,0,0,0,.07-.05.11-.07h0l0,0,0,0A3.24,3.24,0,0,0,23.83,9.22Z"/><path class="cls-1" d="M14.06,7.88l1.11,0ZM16,6.4h0Z"/><path class="cls-1" d="M16.31,7.41c0-.09,0-.17,0-.27s-.05-.51-.08-.8v0H15.4a8.9,8.9,0,0,0-1.16,0,4.69,4.69,0,0,0-.55.2l-.28.11a8.94,8.94,0,0,0-2.12,1.14.12.12,0,0,0,0,.07.13.13,0,0,0,0,.06h0l0,0A2.74,2.74,0,0,0,12,8h.43c1.05,0,2.66-.08,3.82-.15h.05V7.81C16.32,7.68,16.32,7.55,16.31,7.41Zm-4,.36c-.06,0-.11,0-.14,0s0,0,0,.06,0,.07.08.1H12a4.64,4.64,0,0,1-.54,0l0,0A4,4,0,0,1,12,7.45a.7.7,0,0,1,.14-.08.65.65,0,0,1,.21-.06s.11,0,.11.07a2.86,2.86,0,0,1,0,.35c0,.08,0,.08,0,.08A.21.21,0,0,1,12.33,7.77Zm3.44,0-.24,0-.36,0-1.11,0h-.23l-.28,0H12.42v0h0c.05,0,.13,0,.14-.16a2.87,2.87,0,0,0,0-.36c0-.11-.09-.16-.19-.16l.29-.15L12.87,7l.24-.11.18-.08.78-.32.06,0,.09,0h0l.1,0,.33,0h1.45a11.76,11.76,0,0,1,.09,1.37Z"/><path class="cls-1" d="M6.27,9.37H5.88V9.3a1.18,1.18,0,0,1,.27-.63l0-.05h.34l.6,0h.05v0c-.08.29-.17.56-.51.64A2.15,2.15,0,0,1,6.27,9.37ZM6,9.26h.28a2,2,0,0,0,.38,0c.26-.07.35-.27.42-.52H6.25v0A1,1,0,0,0,6,9.26Z"/><path class="cls-1" d="M8.19,10.41v.05a.88.88,0,0,0,0,.17,1,1,0,0,0,.31.71l0,0L8.82,11l.11-.16L9,10.67Zm.3.82a.9.9,0,0,1-.23-.6s0-.07,0-.09l.4.12.19.07ZM9,9.62a1,1,0,0,0-.74.53l0,0,.51.16.19.07.13,0V9.61Zm0,.72-.58-.19A.92.92,0,0,1,9,9.72Zm.21.14a.15.15,0,0,0-.15.15.15.15,0,0,0,.15.14.14.14,0,0,0,.14-.14A.14.14,0,0,0,9.19,10.48Zm.2.59-.2-.27-.51.71.05,0a1,1,0,0,0,.46.11,1.11,1.11,0,0,0,.46-.11l0,0Zm-.57.4.37-.5.36.5A.89.89,0,0,1,8.82,11.47Zm1.27-1.32a1,1,0,0,0-.73-.53H9.3v.86l.82-.27Zm-.7.19V9.72a.93.93,0,0,1,.59.43Zm.81.13,0-.06-.81.26.51.71,0,0a1,1,0,0,0,.29-.71C10.21,10.57,10.2,10.52,10.2,10.47Zm-.31.76-.36-.49h0l.59-.19v.09A.89.89,0,0,1,9.89,11.23Zm-1.7-.82v.05a.88.88,0,0,0,0,.17,1,1,0,0,0,.31.71l0,0L8.82,11l.11-.16L9,10.67Zm.3.82a.9.9,0,0,1-.23-.6s0-.07,0-.09l.4.12.19.07ZM9,9.62a1,1,0,0,0-.74.53l0,0,.51.16.19.07.13,0V9.61Zm0,.72-.58-.19A.92.92,0,0,1,9,9.72Zm.21.14a.15.15,0,0,0-.15.15.15.15,0,0,0,.15.14.14.14,0,0,0,.14-.14A.14.14,0,0,0,9.19,10.48Zm.2.59-.2-.27-.51.71.05,0a1,1,0,0,0,.46.11,1.11,1.11,0,0,0,.46-.11l0,0Zm-.57.4.37-.5.36.5A.89.89,0,0,1,8.82,11.47Zm1.27-1.32a1,1,0,0,0-.73-.53H9.3v.86l.82-.27Zm-.7.19V9.72a.93.93,0,0,1,.59.43Zm.81.13,0-.06-.81.26.51.71,0,0a1,1,0,0,0,.29-.71C10.21,10.57,10.2,10.52,10.2,10.47Zm-.31.76-.36-.49h0l.59-.19v.09A.89.89,0,0,1,9.89,11.23Zm-1.7-.82v.05a.88.88,0,0,0,0,.17,1,1,0,0,0,.31.71l0,0L8.82,11l.11-.16L9,10.67Zm.3.82a.9.9,0,0,1-.23-.6s0-.07,0-.09l.4.12.19.07ZM9,9.62a1,1,0,0,0-.74.53l0,0,.51.16.19.07.13,0V9.61Zm0,.72-.58-.19A.92.92,0,0,1,9,9.72Zm.21.14a.15.15,0,0,0-.15.15.15.15,0,0,0,.15.14.14.14,0,0,0,.14-.14A.14.14,0,0,0,9.19,10.48Zm.2.59-.2-.27-.51.71.05,0a1,1,0,0,0,.46.11,1.11,1.11,0,0,0,.46-.11l0,0Zm-.57.4.37-.5.36.5A.89.89,0,0,1,8.82,11.47Zm1.27-1.32a1,1,0,0,0-.73-.53H9.3v.86l.82-.27Zm-.7.19V9.72a.93.93,0,0,1,.59.43Zm.81.13,0-.06-.81.26.51.71,0,0a1,1,0,0,0,.29-.71C10.21,10.57,10.2,10.52,10.2,10.47Zm-.31.76-.36-.49h0l.59-.19v.09A.89.89,0,0,1,9.89,11.23ZM9.75,9.37l0,.1a1.27,1.27,0,0,1-.54,2.43,1.28,1.28,0,0,1-.28-2.52l0-.09a1.36,1.36,0,0,0-1.07,1.34A1.37,1.37,0,1,0,9.75,9.37Zm.17,2a1,1,0,0,0,.29-.71c0-.06,0-.11,0-.16l0-.06-.81.26.51.71Zm-.4-.61.59-.19v.09a.89.89,0,0,1-.22.6l-.36-.49Zm.57-.58a1,1,0,0,0-.73-.53H9.3v.86l.82-.27Zm-.7.19V9.72a.93.93,0,0,1,.59.43Zm-.2,1.31a1.11,1.11,0,0,0,.46-.11l0,0-.31-.44-.2-.27-.51.71.05,0A1,1,0,0,0,9.19,11.65Zm0-.68.36.5a.89.89,0,0,1-.73,0Zm0-.2a.14.14,0,0,0,.14-.14.14.14,0,0,0-.14-.15.15.15,0,0,0-.15.15A.15.15,0,0,0,9.19,10.77Zm-.91-.62,0,0,.51.16.19.07.13,0V9.61H9A1,1,0,0,0,8.28,10.15ZM9,9.72v.62l-.58-.19A.92.92,0,0,1,9,9.72Zm0,.95-.82-.26v.05a.88.88,0,0,0,0,.17,1,1,0,0,0,.31.71l0,0L8.82,11l.11-.16Zm-.52.56a.9.9,0,0,1-.23-.6s0-.07,0-.09l.4.12.19.07Zm1.71-.76,0-.06-.81.26.51.71,0,0a1,1,0,0,0,.29-.71C10.21,10.57,10.2,10.52,10.2,10.47Zm-.31.76-.36-.49h0l.59-.19v.09A.89.89,0,0,1,9.89,11.23Zm.2-1.08a1,1,0,0,0-.73-.53H9.3v.86l.82-.27Zm-.7.19V9.72a.93.93,0,0,1,.59.43Zm0,.73-.2-.27-.51.71.05,0a1,1,0,0,0,.46.11,1.11,1.11,0,0,0,.46-.11l0,0Zm-.57.4.37-.5.36.5A.89.89,0,0,1,8.82,11.47Zm.37-1a.15.15,0,0,0-.15.15.15.15,0,0,0,.15.14.14.14,0,0,0,.14-.14A.14.14,0,0,0,9.19,10.48ZM9,9.62a1,1,0,0,0-.74.53l0,0,.51.16.19.07.13,0V9.61Zm0,.72-.58-.19A.92.92,0,0,1,9,9.72Zm-.79.07v.05a.88.88,0,0,0,0,.17,1,1,0,0,0,.31.71l0,0L8.82,11l.11-.16L9,10.67Zm.3.82a.9.9,0,0,1-.23-.6s0-.07,0-.09l.4.12.19.07Zm1.71-.76,0-.06-.81.26.51.71,0,0a1,1,0,0,0,.29-.71C10.21,10.57,10.2,10.52,10.2,10.47Zm-.31.76-.36-.49h0l.59-.19v.09A.89.89,0,0,1,9.89,11.23Zm.2-1.08a1,1,0,0,0-.73-.53H9.3v.86l.82-.27Zm-.7.19V9.72a.93.93,0,0,1,.59.43Zm0,.73-.2-.27-.51.71.05,0a1,1,0,0,0,.46.11,1.11,1.11,0,0,0,.46-.11l0,0Zm-.57.4.37-.5.36.5A.89.89,0,0,1,8.82,11.47Zm.37-1a.15.15,0,0,0-.15.15.15.15,0,0,0,.15.14.14.14,0,0,0,.14-.14A.14.14,0,0,0,9.19,10.48ZM9,9.62a1,1,0,0,0-.74.53l0,0,.51.16.19.07.13,0V9.61Zm0,.72-.58-.19A.92.92,0,0,1,9,9.72Zm-.79.07v.05a.88.88,0,0,0,0,.17,1,1,0,0,0,.31.71l0,0L8.82,11l.11-.16L9,10.67Zm.3.82a.9.9,0,0,1-.23-.6s0-.07,0-.09l.4.12.19.07Zm1.71-.76,0-.06-.81.26.51.71,0,0a1,1,0,0,0,.29-.71C10.21,10.57,10.2,10.52,10.2,10.47Zm-.31.76-.36-.49h0l.59-.19v.09A.89.89,0,0,1,9.89,11.23Zm.2-1.08a1,1,0,0,0-.73-.53H9.3v.86l.82-.27Zm-.7.19V9.72a.93.93,0,0,1,.59.43Zm0,.73-.2-.27-.51.71.05,0a1,1,0,0,0,.46.11,1.11,1.11,0,0,0,.46-.11l0,0Zm-.57.4.37-.5.36.5A.89.89,0,0,1,8.82,11.47Zm.37-1a.15.15,0,0,0-.15.15.15.15,0,0,0,.15.14.14.14,0,0,0,.14-.14A.14.14,0,0,0,9.19,10.48ZM9,9.62a1,1,0,0,0-.74.53l0,0,.51.16.19.07.13,0V9.61Zm0,.72-.58-.19A.92.92,0,0,1,9,9.72Zm-.79.07v.05a.88.88,0,0,0,0,.17,1,1,0,0,0,.31.71l0,0L8.82,11l.11-.16L9,10.67Zm.3.82a.9.9,0,0,1-.23-.6s0-.07,0-.09l.4.12.19.07Zm-.3-.82v.05a.88.88,0,0,0,0,.17,1,1,0,0,0,.31.71l0,0L8.82,11l.11-.16L9,10.67Zm.3.82a.9.9,0,0,1-.23-.6s0-.07,0-.09l.4.12.19.07ZM9,9.62a1,1,0,0,0-.74.53l0,0,.51.16.19.07.13,0V9.61Zm0,.72-.58-.19A.92.92,0,0,1,9,9.72Zm.21.14a.15.15,0,0,0-.15.15.15.15,0,0,0,.15.14.14.14,0,0,0,.14-.14A.14.14,0,0,0,9.19,10.48Zm.2.59-.2-.27-.51.71.05,0a1,1,0,0,0,.46.11,1.11,1.11,0,0,0,.46-.11l0,0Zm-.57.4.37-.5.36.5A.89.89,0,0,1,8.82,11.47Zm1.27-1.32a1,1,0,0,0-.73-.53H9.3v.86l.82-.27Zm-.7.19V9.72a.93.93,0,0,1,.59.43Zm.81.13,0-.06-.81.26.51.71,0,0a1,1,0,0,0,.29-.71C10.21,10.57,10.2,10.52,10.2,10.47Zm-.31.76-.36-.49h0l.59-.19v.09A.89.89,0,0,1,9.89,11.23Zm.31-.76,0-.06-.81.26.51.71,0,0a1,1,0,0,0,.29-.71C10.21,10.57,10.2,10.52,10.2,10.47Zm-.31.76-.36-.49h0l.59-.19v.09A.89.89,0,0,1,9.89,11.23Zm.2-1.08a1,1,0,0,0-.73-.53H9.3v.86l.82-.27Zm-.7.19V9.72a.93.93,0,0,1,.59.43Zm0,.73-.2-.27-.51.71.05,0a1,1,0,0,0,.46.11,1.11,1.11,0,0,0,.46-.11l0,0Zm-.57.4.37-.5.36.5A.89.89,0,0,1,8.82,11.47Zm.37-1a.15.15,0,0,0-.15.15.15.15,0,0,0,.15.14.14.14,0,0,0,.14-.14A.14.14,0,0,0,9.19,10.48ZM9,9.62a1,1,0,0,0-.74.53l0,0,.51.16.19.07.13,0V9.61Zm0,.72-.58-.19A.92.92,0,0,1,9,9.72Zm-.79.07v.05a.88.88,0,0,0,0,.17,1,1,0,0,0,.31.71l0,0L8.82,11l.11-.16L9,10.67Zm.3.82a.9.9,0,0,1-.23-.6s0-.07,0-.09l.4.12.19.07Zm-.3-.82v.05a.88.88,0,0,0,0,.17,1,1,0,0,0,.31.71l0,0L8.82,11l.11-.16L9,10.67Zm.3.82a.9.9,0,0,1-.23-.6s0-.07,0-.09l.4.12.19.07ZM9,9.62a1,1,0,0,0-.74.53l0,0,.51.16.19.07.13,0V9.61Zm0,.72-.58-.19A.92.92,0,0,1,9,9.72Zm.21.14a.15.15,0,0,0-.15.15.15.15,0,0,0,.15.14.14.14,0,0,0,.14-.14A.14.14,0,0,0,9.19,10.48Zm.2.59-.2-.27-.51.71.05,0a1,1,0,0,0,.46.11,1.11,1.11,0,0,0,.46-.11l0,0Zm-.57.4.37-.5.36.5A.89.89,0,0,1,8.82,11.47Zm1.27-1.32a1,1,0,0,0-.73-.53H9.3v.86l.82-.27Zm-.7.19V9.72a.93.93,0,0,1,.59.43Zm.81.13,0-.06-.81.26.51.71,0,0a1,1,0,0,0,.29-.71C10.21,10.57,10.2,10.52,10.2,10.47Zm-.31.76-.36-.49h0l.59-.19v.09A.89.89,0,0,1,9.89,11.23Zm.31-.76,0-.06-.81.26.51.71,0,0a1,1,0,0,0,.29-.71C10.21,10.57,10.2,10.52,10.2,10.47Zm-.31.76-.36-.49h0l.59-.19v.09A.89.89,0,0,1,9.89,11.23Zm.2-1.08a1,1,0,0,0-.73-.53H9.3v.86l.82-.27Zm-.7.19V9.72a.93.93,0,0,1,.59.43Zm0,.73-.2-.27-.51.71.05,0a1,1,0,0,0,.46.11,1.11,1.11,0,0,0,.46-.11l0,0Zm-.57.4.37-.5.36.5A.89.89,0,0,1,8.82,11.47Zm.37-1a.15.15,0,0,0-.15.15.15.15,0,0,0,.15.14.14.14,0,0,0,.14-.14A.14.14,0,0,0,9.19,10.48ZM9,9.62a1,1,0,0,0-.74.53l0,0,.51.16.19.07.13,0V9.61Zm0,.72-.58-.19A.92.92,0,0,1,9,9.72Zm-.79.07v.05a.88.88,0,0,0,0,.17,1,1,0,0,0,.31.71l0,0L8.82,11l.11-.16L9,10.67Zm.3.82a.9.9,0,0,1-.23-.6s0-.07,0-.09l.4.12.19.07Zm-.3-.82v.05a.88.88,0,0,0,0,.17,1,1,0,0,0,.31.71l0,0L8.82,11l.11-.16L9,10.67Zm.3.82a.9.9,0,0,1-.23-.6s0-.07,0-.09l.4.12.19.07ZM9,9.62a1,1,0,0,0-.74.53l0,0,.51.16.19.07.13,0V9.61Zm0,.72-.58-.19A.92.92,0,0,1,9,9.72Zm.21.14a.15.15,0,0,0-.15.15.15.15,0,0,0,.15.14.14.14,0,0,0,.14-.14A.14.14,0,0,0,9.19,10.48Zm.2.59-.2-.27-.51.71.05,0a1,1,0,0,0,.46.11,1.11,1.11,0,0,0,.46-.11l0,0Zm-.57.4.37-.5.36.5A.89.89,0,0,1,8.82,11.47Zm1.27-1.32a1,1,0,0,0-.73-.53H9.3v.86l.82-.27Zm-.7.19V9.72a.93.93,0,0,1,.59.43Zm.81.13,0-.06-.81.26.51.71,0,0a1,1,0,0,0,.29-.71C10.21,10.57,10.2,10.52,10.2,10.47Zm-.31.76-.36-.49h0l.59-.19v.09A.89.89,0,0,1,9.89,11.23Zm.31-.76,0-.06-.81.26.51.71,0,0a1,1,0,0,0,.29-.71C10.21,10.57,10.2,10.52,10.2,10.47Zm-.31.76-.36-.49h0l.59-.19v.09A.89.89,0,0,1,9.89,11.23Zm.2-1.08a1,1,0,0,0-.73-.53H9.3v.86l.82-.27Zm-.7.19V9.72a.93.93,0,0,1,.59.43Zm0,.73-.2-.27-.51.71.05,0a1,1,0,0,0,.46.11,1.11,1.11,0,0,0,.46-.11l0,0Zm-.57.4.37-.5.36.5A.89.89,0,0,1,8.82,11.47Zm.37-1a.15.15,0,0,0-.15.15.15.15,0,0,0,.15.14.14.14,0,0,0,.14-.14A.14.14,0,0,0,9.19,10.48ZM9,9.62a1,1,0,0,0-.74.53l0,0,.51.16.19.07.13,0V9.61Zm0,.72-.58-.19A.92.92,0,0,1,9,9.72Zm-.79.07v.05a.88.88,0,0,0,0,.17,1,1,0,0,0,.31.71l0,0L8.82,11l.11-.16L9,10.67Zm.3.82a.9.9,0,0,1-.23-.6s0-.07,0-.09l.4.12.19.07Zm-.3-.82v.05a.88.88,0,0,0,0,.17,1,1,0,0,0,.31.71l0,0L8.82,11l.11-.16L9,10.67Zm.3.82a.9.9,0,0,1-.23-.6s0-.07,0-.09l.4.12.19.07ZM9,9.62a1,1,0,0,0-.74.53l0,0,.51.16.19.07.13,0V9.61Zm0,.72-.58-.19A.92.92,0,0,1,9,9.72Zm.21.14a.15.15,0,0,0-.15.15.15.15,0,0,0,.15.14.14.14,0,0,0,.14-.14A.14.14,0,0,0,9.19,10.48Zm.2.59-.2-.27-.51.71.05,0a1,1,0,0,0,.46.11,1.11,1.11,0,0,0,.46-.11l0,0Zm-.57.4.37-.5.36.5A.89.89,0,0,1,8.82,11.47Zm1.27-1.32a1,1,0,0,0-.73-.53H9.3v.86l.82-.27Zm-.7.19V9.72a.93.93,0,0,1,.59.43Zm.81.13,0-.06-.81.26.51.71,0,0a1,1,0,0,0,.29-.71C10.21,10.57,10.2,10.52,10.2,10.47Zm-.31.76-.36-.49h0l.59-.19v.09A.89.89,0,0,1,9.89,11.23Zm.31-.76,0-.06-.81.26.51.71,0,0a1,1,0,0,0,.29-.71C10.21,10.57,10.2,10.52,10.2,10.47Zm-.31.76-.36-.49h0l.59-.19v.09A.89.89,0,0,1,9.89,11.23Zm.2-1.08a1,1,0,0,0-.73-.53H9.3v.86l.82-.27Zm-.7.19V9.72a.93.93,0,0,1,.59.43Zm0,.73-.2-.27-.51.71.05,0a1,1,0,0,0,.46.11,1.11,1.11,0,0,0,.46-.11l0,0Zm-.57.4.37-.5.36.5A.89.89,0,0,1,8.82,11.47Zm.37-1a.15.15,0,0,0-.15.15.15.15,0,0,0,.15.14.14.14,0,0,0,.14-.14A.14.14,0,0,0,9.19,10.48ZM9,9.62a1,1,0,0,0-.74.53l0,0,.51.16.19.07.13,0V9.61Zm0,.72-.58-.19A.92.92,0,0,1,9,9.72Zm-.79.07v.05a.88.88,0,0,0,0,.17,1,1,0,0,0,.31.71l0,0L8.82,11l.11-.16L9,10.67Zm.3.82a.9.9,0,0,1-.23-.6s0-.07,0-.09l.4.12.19.07Zm-.3-.82v.05a.88.88,0,0,0,0,.17,1,1,0,0,0,.31.71l0,0L8.82,11l.11-.16L9,10.67Zm.3.82a.9.9,0,0,1-.23-.6s0-.07,0-.09l.4.12.19.07ZM9,9.62a1,1,0,0,0-.74.53l0,0,.51.16.19.07.13,0V9.61Zm0,.72-.58-.19A.92.92,0,0,1,9,9.72Zm.21.14a.15.15,0,0,0-.15.15.15.15,0,0,0,.15.14.14.14,0,0,0,.14-.14A.14.14,0,0,0,9.19,10.48Zm.2.59-.2-.27-.51.71.05,0a1,1,0,0,0,.46.11,1.11,1.11,0,0,0,.46-.11l0,0Zm-.57.4.37-.5.36.5A.89.89,0,0,1,8.82,11.47Zm1.27-1.32a1,1,0,0,0-.73-.53H9.3v.86l.82-.27Zm-.7.19V9.72a.93.93,0,0,1,.59.43Zm.81.13,0-.06-.81.26.51.71,0,0a1,1,0,0,0,.29-.71C10.21,10.57,10.2,10.52,10.2,10.47Zm-.31.76-.36-.49h0l.59-.19v.09A.89.89,0,0,1,9.89,11.23Zm.31-.76,0-.06-.81.26.51.71,0,0a1,1,0,0,0,.29-.71C10.21,10.57,10.2,10.52,10.2,10.47Zm-.31.76-.36-.49h0l.59-.19v.09A.89.89,0,0,1,9.89,11.23Zm.2-1.08a1,1,0,0,0-.73-.53H9.3v.86l.82-.27Zm-.7.19V9.72a.93.93,0,0,1,.59.43Zm0,.73-.2-.27-.51.71.05,0a1,1,0,0,0,.46.11,1.11,1.11,0,0,0,.46-.11l0,0Zm-.57.4.37-.5.36.5A.89.89,0,0,1,8.82,11.47Zm.37-1a.15.15,0,0,0-.15.15.15.15,0,0,0,.15.14.14.14,0,0,0,.14-.14A.14.14,0,0,0,9.19,10.48ZM9,9.62a1,1,0,0,0-.74.53l0,0,.51.16.19.07.13,0V9.61Zm0,.72-.58-.19A.92.92,0,0,1,9,9.72Zm-.79.07v.05a.88.88,0,0,0,0,.17,1,1,0,0,0,.31.71l0,0L8.82,11l.11-.16L9,10.67Zm.3.82a.9.9,0,0,1-.23-.6s0-.07,0-.09l.4.12.19.07Zm-.3-.82v.05a.88.88,0,0,0,0,.17,1,1,0,0,0,.31.71l0,0L8.82,11l.11-.16L9,10.67Zm.3.82a.9.9,0,0,1-.23-.6s0-.07,0-.09l.4.12.19.07ZM9,9.62a1,1,0,0,0-.74.53l0,0,.51.16.19.07.13,0V9.61Zm0,.72-.58-.19A.92.92,0,0,1,9,9.72Zm.21.14a.15.15,0,0,0-.15.15.15.15,0,0,0,.15.14.14.14,0,0,0,.14-.14A.14.14,0,0,0,9.19,10.48Zm.2.59-.2-.27-.51.71.05,0a1,1,0,0,0,.46.11,1.11,1.11,0,0,0,.46-.11l0,0Zm-.57.4.37-.5.36.5A.89.89,0,0,1,8.82,11.47Zm1.27-1.32a1,1,0,0,0-.73-.53H9.3v.86l.82-.27Zm-.7.19V9.72a.93.93,0,0,1,.59.43Zm.81.13,0-.06-.81.26.51.71,0,0a1,1,0,0,0,.29-.71C10.21,10.57,10.2,10.52,10.2,10.47Zm-.31.76-.36-.49h0l.59-.19v.09A.89.89,0,0,1,9.89,11.23Zm-.5-.16-.2-.27-.51.71.05,0a1,1,0,0,0,.46.11,1.11,1.11,0,0,0,.46-.11l0,0Zm-.57.4.37-.5.36.5A.89.89,0,0,1,8.82,11.47Zm1.38-1,0-.06-.81.26.51.71,0,0a1,1,0,0,0,.29-.71C10.21,10.57,10.2,10.52,10.2,10.47Zm-.31.76-.36-.49h0l.59-.19v.09A.89.89,0,0,1,9.89,11.23Zm-1.7-.82v.05a.88.88,0,0,0,0,.17,1,1,0,0,0,.31.71l0,0L8.82,11l.11-.16L9,10.67Zm.3.82a.9.9,0,0,1-.23-.6s0-.07,0-.09l.4.12.19.07Zm.7-.75a.15.15,0,0,0-.15.15.15.15,0,0,0,.15.14.14.14,0,0,0,.14-.14A.14.14,0,0,0,9.19,10.48Zm.9-.33a1,1,0,0,0-.73-.53H9.3v.86l.82-.27Zm-.7.19V9.72a.93.93,0,0,1,.59.43ZM9,9.62a1,1,0,0,0-.74.53l0,0,.51.16.19.07.13,0V9.61Zm0,.72-.58-.19A.92.92,0,0,1,9,9.72Z"/><path class="cls-1" d="M8.5,11.38l0,0a1,1,0,0,1-.29-.72.86.86,0,0,1,0-.16v-.05l.82.26-.08.12L8.82,11Zm-.23-.85s0,.06,0,.09a.91.91,0,0,0,.23.61l.37-.5-.19-.06Z"/><path class="cls-1" d="M9.08,10.47l-.14,0-.18-.06-.51-.17,0,0A1,1,0,0,1,9,9.62h.05Zm-.68-.32.58.19V9.72A.92.92,0,0,0,8.4,10.15Z"/><path class="cls-1" d="M9.19,11.65a.93.93,0,0,1-.46-.12l-.05,0,.51-.71.2.27.31.44,0,0A1,1,0,0,1,9.19,11.65Zm-.37-.18a.93.93,0,0,0,.73,0L9.19,11Z"/><path class="cls-1" d="M9.3,10.47V9.61h0a1,1,0,0,1,.74.53l0,0Zm.1-.75v.62l.58-.19A.93.93,0,0,0,9.4,9.72Z"/><path class="cls-1" d="M9.88,11.38l-.51-.71.82-.26v.06s0,.1,0,.15a1,1,0,0,1-.29.72Zm-.36-.65h0l.36.49a1,1,0,0,0,.22-.61v-.08Z"/><path class="cls-1" d="M8.5,11.38l0,0a1,1,0,0,1-.29-.72.86.86,0,0,1,0-.16v-.05l.82.26-.08.12L8.82,11Zm-.23-.85s0,.06,0,.09a.91.91,0,0,0,.23.61l.37-.5-.19-.06Z"/><path class="cls-1" d="M9.08,10.47l-.14,0-.18-.06-.51-.17,0,0A1,1,0,0,1,9,9.62h.05Zm-.68-.32.58.19V9.72A.92.92,0,0,0,8.4,10.15Z"/><path class="cls-1" d="M9.19,11.65a.93.93,0,0,1-.46-.12l-.05,0,.51-.71.2.27.31.44,0,0A1,1,0,0,1,9.19,11.65Zm-.37-.18a.93.93,0,0,0,.73,0L9.19,11Z"/><path class="cls-1" d="M9.3,10.47V9.61h0a1,1,0,0,1,.74.53l0,0Zm.1-.75v.62l.58-.19A.93.93,0,0,0,9.4,9.72Z"/><path class="cls-1" d="M9.88,11.38l-.51-.71.82-.26v.06s0,.1,0,.15a1,1,0,0,1-.29.72Zm-.36-.65h0l.36.49a1,1,0,0,0,.22-.61v-.08Z"/><path class="cls-1" d="M20.57,12A1.38,1.38,0,1,1,22,10.62,1.38,1.38,0,0,1,20.57,12Zm0-2.65a1.28,1.28,0,1,0,1.28,1.27A1.27,1.27,0,0,0,20.57,9.35Zm0,2.3a.93.93,0,0,1-.46-.12l-.05,0,.51-.71.2.27.31.44,0,0A.93.93,0,0,1,20.57,11.65Zm-.36-.18a.93.93,0,0,0,.73,0l-.37-.5Zm1.05-.09-.51-.71.82-.26v.06a.76.76,0,0,1,0,.15,1,1,0,0,1-.29.72Zm-.35-.65h0l.36.49a.91.91,0,0,0,.23-.61s0,0,0-.08Zm-1,.65,0,0a1,1,0,0,1-.3-.72s0-.11,0-.16v-.05l.83.26-.08.12L20.2,11Zm-.24-.85v.09a.91.91,0,0,0,.23.61l.36-.5-.19-.06Zm.92.24a.15.15,0,0,1-.14-.15.14.14,0,0,1,.14-.14.15.15,0,0,1,.15.14A.15.15,0,0,1,20.57,10.77Zm.11-.3V9.61h.06a1,1,0,0,1,.74.53l0,0Zm.1-.75v.62l.58-.19A.93.93,0,0,0,20.78,9.72Zm-.31.75-.14,0-.19-.06-.5-.17,0,0a1,1,0,0,1,.74-.53h.06Zm-.69-.32.59.19V9.72A.94.94,0,0,0,19.78,10.15Z"/><path class="cls-1" d="M19.89,11.38l0,0a1,1,0,0,1-.3-.72s0-.11,0-.16v-.05l.83.26-.08.12L20.2,11Zm-.24-.85v.09a.91.91,0,0,0,.23.61l.36-.5-.19-.06Z"/><path class="cls-1" d="M20.47,10.47l-.14,0-.19-.06-.5-.17,0,0a1,1,0,0,1,.74-.53h.06Zm-.69-.32.59.19V9.72A.94.94,0,0,0,19.78,10.15Z"/><path class="cls-1" d="M20.57,11.65a.93.93,0,0,1-.46-.12l-.05,0,.51-.71.2.27.31.44,0,0A.93.93,0,0,1,20.57,11.65Zm-.36-.18a.93.93,0,0,0,.73,0l-.37-.5Z"/><path class="cls-1" d="M20.68,10.47V9.61h.06a1,1,0,0,1,.74.53l0,0Zm.1-.75v.62l.58-.19A.93.93,0,0,0,20.78,9.72Z"/><path class="cls-1" d="M21.26,11.38l-.51-.71.82-.26v.06a.76.76,0,0,1,0,.15,1,1,0,0,1-.29.72Zm-.35-.65h0l.36.49a.91.91,0,0,0,.23-.61s0,0,0-.08Z"/><path class="cls-1" d="M19.89,11.38l0,0a1,1,0,0,1-.3-.72s0-.11,0-.16v-.05l.83.26-.08.12L20.2,11Zm-.24-.85v.09a.91.91,0,0,0,.23.61l.36-.5-.19-.06Z"/><path class="cls-1" d="M20.47,10.47l-.14,0-.19-.06-.5-.17,0,0a1,1,0,0,1,.74-.53h.06Zm-.69-.32.59.19V9.72A.94.94,0,0,0,19.78,10.15Z"/><path class="cls-1" d="M20.57,11.65a.93.93,0,0,1-.46-.12l-.05,0,.51-.71.2.27.31.44,0,0A.93.93,0,0,1,20.57,11.65Zm-.36-.18a.93.93,0,0,0,.73,0l-.37-.5Z"/><path class="cls-1" d="M20.68,10.47V9.61h.06a1,1,0,0,1,.74.53l0,0Zm.1-.75v.62l.58-.19A.93.93,0,0,0,20.78,9.72Z"/><path class="cls-1" d="M21.26,11.38l-.51-.71.82-.26v.06a.76.76,0,0,1,0,.15,1,1,0,0,1-.29.72Zm-.35-.65h0l.36.49a.91.91,0,0,0,.23-.61s0,0,0-.08Z"/><path class="cls-1" d="M4.6,2.79V6.55H8.49l.85,2.91.28-2.91H10.9V2.79Zm.52,1.33H8.6v.39H5.12ZM9,5.88H5.12v-.4H9Zm.34-.69H5.12V4.8H9.33Zm.5-1.37H5.12V3.43H9.83Z"/><rect class="cls-1" x="18.2" y="3.49" width="1.02" height="1.75"/><rect class="cls-1" x="19.73" y="3.26" width="1.02" height="1.98"/><rect class="cls-1" x="21.26" y="3.77" width="1.02" height="1.47"/><rect class="cls-1" x="22.8" y="2.75" width="1.02" height="2.49"/><path class="cls-1" d="M21.78,3.46l-.09,0-1.47-.68-1.46.35a.21.21,0,0,1-.11,0l-.51-.16A.19.19,0,0,1,18,2.69a.18.18,0,0,1,.24-.12l.46.14,1.48-.35a.29.29,0,0,1,.13,0L21.75,3l1.43-1.19a.21.21,0,0,1,.13-.05h.51A.2.2,0,0,1,24,2a.19.19,0,0,1-.19.19h-.44L21.9,3.41A.21.21,0,0,1,21.78,3.46Z"/></g></g></g></g></svg>