<svg xmlns="http://www.w3.org/2000/svg" viewBox="0 0 28.97 23.49"><defs><style>.cls-1{fill:#fff;}</style></defs><title>engine</title><g id="Слой_2" data-name="Слой 2"><g id="Контейнер"><g id="Спектр_услуг" data-name="Спектр услуг"><g id="Иконка_двигатель" data-name="Иконка двигатель"><path class="cls-1" d="M10,9.84a.23.23,0,0,1-.23.23.23.23,0,0,1-.24-.23.24.24,0,0,1,.24-.24A.23.23,0,0,1,10,9.84Z"/><path class="cls-1" d="M17.86,12.2a.69.69,0,1,0,.68.69A.69.69,0,0,0,17.86,12.2Zm0,0a.69.69,0,1,0,.68.69A.69.69,0,0,0,17.86,12.2ZM16,16.39a4,4,0,0,1-.58-6.62l-3.11-.68a2.67,2.67,0,0,1,.11.75,2.72,2.72,0,0,1-2.71,2.71,3.13,3.13,0,0,1-.44,0l.88,2.93a2.33,2.33,0,0,1,1.4-.47,2.29,2.29,0,0,1,2.29,2.29h0Zm-4.45.75a.12.12,0,0,0-.12.12.12.12,0,0,0,.12.12.12.12,0,0,0,0-.24Zm6.3-4.94a.69.69,0,1,0,.68.69A.69.69,0,0,0,17.86,12.2Zm0,0a.69.69,0,1,0,.68.69A.69.69,0,0,0,17.86,12.2ZM16,16.39a4,4,0,0,1-.58-6.62l-3.11-.68a2.67,2.67,0,0,1,.11.75,2.72,2.72,0,0,1-2.71,2.71,3.13,3.13,0,0,1-.44,0l.88,2.93a2.33,2.33,0,0,1,1.4-.47,2.29,2.29,0,0,1,2.29,2.29h0Zm-4.45.75a.12.12,0,0,0-.12.12.12.12,0,0,0,.12.12.12.12,0,0,0,0-.24Zm0,0a.12.12,0,0,0-.12.12.12.12,0,0,0,.12.12.12.12,0,0,0,0-.24ZM16,16.39a4,4,0,0,1-.58-6.62l-3.11-.68a2.67,2.67,0,0,1,.11.75,2.72,2.72,0,0,1-2.71,2.71,3.13,3.13,0,0,1-.44,0l.88,2.93a2.33,2.33,0,0,1,1.4-.47,2.29,2.29,0,0,1,2.29,2.29h0Zm1.85-4.19a.69.69,0,1,0,.68.69A.69.69,0,0,0,17.86,12.2Zm0,0a.69.69,0,1,0,.68.69A.69.69,0,0,0,17.86,12.2ZM16,16.39a4,4,0,0,1-.58-6.62l-3.11-.68a2.67,2.67,0,0,1,.11.75,2.72,2.72,0,0,1-2.71,2.71,3.13,3.13,0,0,1-.44,0l.88,2.93a2.33,2.33,0,0,1,1.4-.47,2.29,2.29,0,0,1,2.29,2.29h0Zm-4.45.75a.12.12,0,0,0-.12.12.12.12,0,0,0,.12.12.12.12,0,0,0,0-.24Zm0,0a.12.12,0,0,0-.12.12.12.12,0,0,0,.12.12.12.12,0,0,0,0-.24ZM16,16.39a4,4,0,0,1-.58-6.62l-3.11-.68a2.67,2.67,0,0,1,.11.75,2.72,2.72,0,0,1-2.71,2.71,3.13,3.13,0,0,1-.44,0l.88,2.93a2.33,2.33,0,0,1,1.4-.47,2.29,2.29,0,0,1,2.29,2.29h0Zm1.85-4.19a.69.69,0,1,0,.68.69A.69.69,0,0,0,17.86,12.2Zm-.41-6.95L17.08,5l0,0H11.86l0,0-.47.33-3,2.05,0,0a2.7,2.7,0,0,1,1.24-.29,2.66,2.66,0,0,1,1.16.26L18,8.94a4,4,0,0,1,1.32,7.64l-.08,0-1.69.63-4.62,1.88a2.27,2.27,0,0,1-1.35.44,2.31,2.31,0,0,1-2.3-2.3.17.17,0,0,1,0-.07L7.55,11.46a2.68,2.68,0,0,1,.26-3.55l0-.06L4.7,10l2,5.17L10,23.49h9l3.26-8.34,2-5.16h0Zm1.09,7.64a.69.69,0,1,0-.68.69A.69.69,0,0,0,18.54,12.89Zm-8.82-.34a3.13,3.13,0,0,1-.44,0l.88,2.93a2.33,2.33,0,0,1,1.4-.47,2.29,2.29,0,0,1,2.29,2.29h0L16,16.39a4,4,0,0,1-.58-6.62l-3.11-.68a2.67,2.67,0,0,1,.11.75A2.72,2.72,0,0,1,9.72,12.55Zm1.72,4.71a.12.12,0,0,0,.12.12.12.12,0,0,0,0-.24A.12.12,0,0,0,11.44,17.26Zm6.42-5.06a.69.69,0,1,0,.68.69A.69.69,0,0,0,17.86,12.2ZM16,16.39a4,4,0,0,1-.58-6.62l-3.11-.68a2.67,2.67,0,0,1,.11.75,2.72,2.72,0,0,1-2.71,2.71,3.13,3.13,0,0,1-.44,0l.88,2.93a2.33,2.33,0,0,1,1.4-.47,2.29,2.29,0,0,1,2.29,2.29h0Zm-4.45.75a.12.12,0,0,0-.12.12.12.12,0,0,0,.12.12.12.12,0,0,0,0-.24Zm0,0a.12.12,0,0,0-.12.12.12.12,0,0,0,.12.12.12.12,0,0,0,0-.24ZM16,16.39a4,4,0,0,1-.58-6.62l-3.11-.68a2.67,2.67,0,0,1,.11.75,2.72,2.72,0,0,1-2.71,2.71,3.13,3.13,0,0,1-.44,0l.88,2.93a2.33,2.33,0,0,1,1.4-.47,2.29,2.29,0,0,1,2.29,2.29h0Zm1.85-4.19a.69.69,0,1,0,.68.69A.69.69,0,0,0,17.86,12.2Zm0,0a.69.69,0,1,0,.68.69A.69.69,0,0,0,17.86,12.2ZM16,16.39a4,4,0,0,1-.58-6.62l-3.11-.68a2.67,2.67,0,0,1,.11.75,2.72,2.72,0,0,1-2.71,2.71,3.13,3.13,0,0,1-.44,0l.88,2.93a2.33,2.33,0,0,1,1.4-.47,2.29,2.29,0,0,1,2.29,2.29h0Zm-4.45.75a.12.12,0,0,0-.12.12.12.12,0,0,0,.12.12.12.12,0,0,0,0-.24ZM16,16.39a4,4,0,0,1-.58-6.62l-3.11-.68a2.67,2.67,0,0,1,.11.75,2.72,2.72,0,0,1-2.71,2.71,3.13,3.13,0,0,1-.44,0l.88,2.93a2.33,2.33,0,0,1,1.4-.47,2.29,2.29,0,0,1,2.29,2.29h0Zm1.85-4.19a.69.69,0,1,0,.68.69A.69.69,0,0,0,17.86,12.2Zm0,0a.69.69,0,1,0,.68.69A.69.69,0,0,0,17.86,12.2ZM16,16.39a4,4,0,0,1-.58-6.62l-3.11-.68a2.67,2.67,0,0,1,.11.75,2.72,2.72,0,0,1-2.71,2.71,3.13,3.13,0,0,1-.44,0l.88,2.93a2.33,2.33,0,0,1,1.4-.47,2.29,2.29,0,0,1,2.29,2.29h0Zm1.85-4.19a.69.69,0,1,0,.68.69A.69.69,0,0,0,17.86,12.2Zm0,0a.69.69,0,1,0,.68.69A.69.69,0,0,0,17.86,12.2Zm-6.3,4.94a.12.12,0,0,0-.12.12.12.12,0,0,0,.12.12.12.12,0,0,0,0-.24ZM16,16.39a4,4,0,0,1-.58-6.62l-3.11-.68a2.67,2.67,0,0,1,.11.75,2.72,2.72,0,0,1-2.71,2.71,3.13,3.13,0,0,1-.44,0l.88,2.93a2.33,2.33,0,0,1,1.4-.47,2.29,2.29,0,0,1,2.29,2.29h0Zm1.85-4.19a.69.69,0,1,0,.68.69A.69.69,0,0,0,17.86,12.2Z"/><path class="cls-1" d="M17.36,16.82l-3.78,1.54a2.3,2.3,0,0,0,.21-.57h0l2.8-1.14A3.45,3.45,0,0,0,17.36,16.82Z"/><path class="cls-1" d="M16.67,9.11a4.49,4.49,0,0,0-.71.31h0l-3.84-.84A2.62,2.62,0,0,0,11.74,8Z"/><path class="cls-1" d="M9.79,15.8a2.33,2.33,0,0,0-.31.5L8.21,12.09a2.59,2.59,0,0,0,.55.28Z"/><path class="cls-1" d="M17.86,9.39a3.51,3.51,0,1,0,3.5,3.5A3.51,3.51,0,0,0,17.86,9.39Zm0,4.64A1.14,1.14,0,1,1,19,12.89,1.14,1.14,0,0,1,17.86,14Z"/><path class="cls-1" d="M9.72,7.58A2.26,2.26,0,1,0,12,9.84,2.26,2.26,0,0,0,9.72,7.58Zm0,2.95a.69.69,0,1,1,.69-.69A.69.69,0,0,1,9.72,10.53Z"/><path class="cls-1" d="M11.56,15.42a1.85,1.85,0,1,0,1.84,1.84A1.84,1.84,0,0,0,11.56,15.42Zm0,2.41a.57.57,0,1,1,.57-.57A.58.58,0,0,1,11.56,17.83Z"/><path class="cls-1" d="M8.65,0V3.24H20.32V0Zm.61,3H8.91V.3h.35ZM9.9,3H9.55V.3H9.9Zm.63,0h-.35V.3h.35Zm.64,0h-.35V.3h.35Zm.64,0h-.35V.3h.35Zm.63,0h-.35V.3h.35Zm.64,0h-.35V.3h.35Zm.63,0h-.34V.3h.34Zm.64,0H14V.3h.35ZM15,3h-.34V.3H15Zm.64,0h-.35V.3h.35Zm.64,0h-.35V.3h.35Zm.64,0h-.36V.3h.36Zm.63,0h-.35V.3h.35Zm.64,0h-.35V.3h.35Zm.63,0h-.34V.3h.34Zm.64,0h-.35V.3h.35Zm.64,0h-.35V.3h.35Z"/><rect class="cls-1" x="11.48" y="3.6" width="6" height="0.87"/><path class="cls-1" d="M11.26,4.88l-.1.07L4.53,9.55,1.81,11.44l-.34.23L.32,10A1.81,1.81,0,0,1,.78,7.48l6.83-4.7a1.79,1.79,0,0,1,.58-.27V3.69h2.25Z"/><path class="cls-1" d="M6.24,15.15h-2a.85.85,0,0,1-.73-.59L2,11.84l2.28-1.59Z"/><path class="cls-1" d="M28.65,10l-1.16,1.67-.33-.23L24.44,9.55,17.81,5l-.1-.07.81-1.19h2.26V2.51a1.74,1.74,0,0,1,.57.27l6.84,4.7A1.81,1.81,0,0,1,28.65,10Z"/><path class="cls-1" d="M26.94,11.84l-1.51,2.72s-.2.59-.73.59h-2l1.92-4.9Z"/></g></g></g></g></svg>