<svg xmlns="http://www.w3.org/2000/svg" viewBox="0 0 16.96 25"><defs><style>.cls-1{fill:#fff;}</style></defs><title>Ресурс 14</title><g id="Слой_2" data-name="Слой 2"><g id="Контейнер"><g id="Спектр_услуг" data-name="Спектр услуг"><g id="Масло"><path class="cls-1" d="M16.78,11.7l-.05-.06h0l-7-8.48-.2-.23A.76.76,0,0,0,9,2.73H6.59V2.14H2.83v.59h-2a.8.8,0,0,0-.81.8V24.19A.81.81,0,0,0,.81,25H16.15a.81.81,0,0,0,.81-.81v-12A.8.8,0,0,0,16.78,11.7Zm-2.6,10.69H2.51V13.86H14.18ZM10.3,11.55,9.82,5.74l4.51,5.65.25.31Z"/><path class="cls-1" d="M9.73,3.15l-.2-.23A.74.74,0,0,1,9.73,3.15Z"/><rect class="cls-1" x="2.51" width="4.41" height="1.73"/><path class="cls-1" d="M10.15,18.09l0,0L8.48,15.12,6.75,18.2a2,2,0,1,0,3.4-.11ZM8.08,20.54c-.13.19-.4,0-.57-.07s-.57-.41-.53-.68.43-.12.64.06S8.14,20.46,8.08,20.54Z"/></g></g></g></g></svg>