<svg xmlns="http://www.w3.org/2000/svg" viewBox="0 0 23.08 19.26"><defs><style>.cls-1{fill:#fff;}</style></defs><title>power</title><g id="Слой_2" data-name="Слой 2"><g id="Контейнер"><g id="Спектр_услуг" data-name="Спектр услуг"><g id="Питание"><path class="cls-1" d="M1.06,5.67V19.26h21.2V5.67ZM7.43,11.2H5.88v1.55H4.75V11.2H3.18V10.07H4.75V8.51H5.88v1.56H7.43Zm2.73,2.86,1.45-2.86H10.16l3-3.46-1.11,2.61,1.36,0Zm10-2.86H15.92V10.07h4.25Z"/><rect class="cls-1" y="3.2" width="23.08" height="1.62"/><path class="cls-1" d="M5.31,1.23V2.64H2.84V1.23A1.23,1.23,0,0,1,4.08,0,1.25,1.25,0,0,1,5,.36,1.23,1.23,0,0,1,5.31,1.23Z"/><path class="cls-1" d="M20.17,1.23V2.64H17.7V1.23a1.24,1.24,0,0,1,2.47,0Z"/></g></g></g></g></svg>