<svg xmlns="http://www.w3.org/2000/svg" viewBox="0 0 25.78 25.78"><defs><style>.cls-1{fill:#fff;}</style></defs><title>transmision</title><g id="Слой_2" data-name="Слой 2"><g id="Контейнер"><g id="Спектр_услуг" data-name="Спектр услуг"><g id="Иконка_трансмисия" data-name="Иконка трансмисия"><polygon class="cls-1" points="13 16.64 13.01 16.64 13.01 17.62 12.45 17.62 13 16.64"/><path class="cls-1" d="M17.54,6.52A1.86,1.86,0,0,0,17,10.15v2.19H13.44V10.15a1.85,1.85,0,1,0-1.1,0v2.19H8.79V10.15a1.85,1.85,0,1,0-1.1,0v5.48a1.86,1.86,0,1,0,1.1,0V13.44h3.55v2.19a1.85,1.85,0,1,0,1.1,0V13.44h4.65V10.15a1.86,1.86,0,0,0-.55-3.63ZM8.81,16.58a.54.54,0,0,1,0,.22,1.23,1.23,0,0,1,0,.2.74.74,0,0,1-.08.22,1.51,1.51,0,0,1-.18.25,2.71,2.71,0,0,1-.3.33L8,18.05h.87s0,0,0,0a.14.14,0,0,1,0,.06s0,0,0,.08,0,.05,0,.08a.43.43,0,0,1,0,.05l0,0H7.58l0,0a.08.08,0,0,1,0-.05.31.31,0,0,1,0-.1v-.09a.64.64,0,0,1,0-.07l0-.06.06-.06.37-.4a1.68,1.68,0,0,0,.18-.21l.1-.17A1.21,1.21,0,0,0,8.32,17a.53.53,0,0,0,0-.12.37.37,0,0,0,0-.11.41.41,0,0,0-.05-.09.26.26,0,0,0-.09-.05l-.12,0-.17,0-.13.06-.1.05,0,0h0l0,0v-.06a.31.31,0,0,1,0-.1v-.06a.09.09,0,0,0,0-.05s0,0,0,0l0,0,.08-.05.13-.06.18,0,.2,0a.85.85,0,0,1,.29,0,.61.61,0,0,1,.21.12A.57.57,0,0,1,8.81,16.58ZM7.68,9.39h0l0,0s0,0,0,0a.19.19,0,0,1,0-.08.17.17,0,0,1,0-.08.07.07,0,0,1,0-.05s0,0,0,0h.42V7.68l-.34.18-.06,0h0s0,0,0,0V7.67a.09.09,0,0,1,0,0l0,0,0,0,.46-.29s0,0,0,0h.33l0,0V9.06h.38s0,0,0,0a.43.43,0,0,1,0,.05v.16s0,0,0,0l0,0H7.68Zm5.93,8.23s0,0,0,0a.21.21,0,0,1,0,.13.39.39,0,0,1,0,.13s0,0-.05,0h-.19v.39a0,0,0,0,1,0,0l0,0h-.33l0,0a0,0,0,0,1,0,0V18h-.86l0,0s0,0,0-.06a.28.28,0,0,1,0-.1v-.09s0-.05,0-.07,0,0,0-.06l0-.06.66-1.17,0,0,.05,0h.46l.05,0s0,0,0,0v1.28Zm-.24-8.36a.69.69,0,0,1-.26.12.88.88,0,0,1-.33,0,.65.65,0,0,1-.2,0l-.17,0-.12-.05-.07,0,0,0s0,0,0,0a.43.43,0,0,1,0-.05V9.09a.28.28,0,0,1,0-.11s0,0,0,0a.1.1,0,0,1,.06,0l.1,0,.15.05a.54.54,0,0,0,.19,0,.33.33,0,0,0,.15,0A.23.23,0,0,0,13,9a.16.16,0,0,0,.07-.09.27.27,0,0,0,0-.12.25.25,0,0,0,0-.13A.31.31,0,0,0,13,8.55a.26.26,0,0,0-.14-.06.62.62,0,0,0-.2,0h-.22l0,0a.15.15,0,0,0,0-.06V8.23a.13.13,0,0,0,0-.05l0,0h.22l.17,0a.35.35,0,0,0,.12-.07A.27.27,0,0,0,13,8a.43.43,0,0,0,0-.12s0-.08,0-.11L13,7.65a.2.2,0,0,0-.09-.06l-.13,0a.41.41,0,0,0-.16,0,.35.35,0,0,0-.14.06l-.1,0-.06,0h0a0,0,0,0,0,0,0,.43.43,0,0,1,0,0V7.47l0,0s0,0,0,0l.07,0,.13-.06.17,0a1.09,1.09,0,0,1,.5,0,.75.75,0,0,1,.2.1.52.52,0,0,1,.12.17.54.54,0,0,1,0,.22.5.5,0,0,1,0,.18.36.36,0,0,1-.08.15.38.38,0,0,1-.11.11.51.51,0,0,1-.17.07h0a.42.42,0,0,1,.2.05.58.58,0,0,1,.15.11l.1.15a.57.57,0,0,1,0,.18.61.61,0,0,1-.06.28A.58.58,0,0,1,13.37,9.26ZM18.2,9a.66.66,0,0,1-.17.23.72.72,0,0,1-.26.14,1.16,1.16,0,0,1-.34,0h-.19l-.15,0a.35.35,0,0,1-.12,0l-.06,0s0,0,0,0,0,0,0,0a.07.07,0,0,1,0-.05V9.05s0,0,0-.05a0,0,0,0,1,0,0h0L17,9s.05,0,.08,0l.14.05.18,0a.48.48,0,0,0,.18,0A.26.26,0,0,0,17.69,9a.18.18,0,0,0,.08-.11.24.24,0,0,0,0-.15.36.36,0,0,0,0-.15.25.25,0,0,0-.08-.1.37.37,0,0,0-.14-.07H17s-.05,0-.06,0a.11.11,0,0,1,0-.09V7.39a.12.12,0,0,1,0-.09s0,0,.08,0h1s0,0,0,0,0,0,0,0,0,0,0,.06,0,0,0,.08a.41.41,0,0,1,0,.14s0,0-.05,0h-.76v.45h.24a1,1,0,0,1,.3,0,.84.84,0,0,1,.23.12.5.5,0,0,1,.13.19.76.76,0,0,1,.05.27A.75.75,0,0,1,18.2,9Z"/><path class="cls-1" d="M12.89,0A12.89,12.89,0,1,0,25.78,12.89,12.89,12.89,0,0,0,12.89,0ZM21,18.45A2.56,2.56,0,0,1,18.45,21H7.33a2.56,2.56,0,0,1-2.56-2.56V7.33A2.56,2.56,0,0,1,7.33,4.76H18.45A2.57,2.57,0,0,1,21,7.33Z"/><polygon class="cls-1" points="13 16.64 13.01 16.64 13.01 17.62 12.45 17.62 13 16.64"/><path class="cls-1" d="M17.54,6.52A1.86,1.86,0,0,0,17,10.15v2.19H13.44V10.15a1.85,1.85,0,1,0-1.1,0v2.19H8.79V10.15a1.85,1.85,0,1,0-1.1,0v5.48a1.86,1.86,0,1,0,1.1,0V13.44h3.55v2.19a1.85,1.85,0,1,0,1.1,0V13.44h4.65V10.15a1.86,1.86,0,0,0-.55-3.63ZM8.81,16.58a.54.54,0,0,1,0,.22,1.23,1.23,0,0,1,0,.2.74.74,0,0,1-.08.22,1.51,1.51,0,0,1-.18.25,2.71,2.71,0,0,1-.3.33L8,18.05h.87s0,0,0,0a.14.14,0,0,1,0,.06s0,0,0,.08,0,.05,0,.08a.43.43,0,0,1,0,.05l0,0H7.58l0,0a.08.08,0,0,1,0-.05.31.31,0,0,1,0-.1v-.09a.64.64,0,0,1,0-.07l0-.06.06-.06.37-.4a1.68,1.68,0,0,0,.18-.21l.1-.17A1.21,1.21,0,0,0,8.32,17a.53.53,0,0,0,0-.12.37.37,0,0,0,0-.11.41.41,0,0,0-.05-.09.26.26,0,0,0-.09-.05l-.12,0-.17,0-.13.06-.1.05,0,0h0l0,0v-.06a.31.31,0,0,1,0-.1v-.06a.09.09,0,0,0,0-.05s0,0,0,0l0,0,.08-.05.13-.06.18,0,.2,0a.85.85,0,0,1,.29,0,.61.61,0,0,1,.21.12A.57.57,0,0,1,8.81,16.58ZM7.68,9.39h0l0,0s0,0,0,0a.19.19,0,0,1,0-.08.17.17,0,0,1,0-.08.07.07,0,0,1,0-.05s0,0,0,0h.42V7.68l-.34.18-.06,0h0s0,0,0,0V7.67a.09.09,0,0,1,0,0l0,0,0,0,.46-.29s0,0,0,0h.33l0,0V9.06h.38s0,0,0,0a.43.43,0,0,1,0,.05v.16s0,0,0,0l0,0H7.68Zm5.93,8.23s0,0,0,0a.21.21,0,0,1,0,.13.39.39,0,0,1,0,.13s0,0-.05,0h-.19v.39a0,0,0,0,1,0,0l0,0h-.33l0,0a0,0,0,0,1,0,0V18h-.86l0,0s0,0,0-.06a.28.28,0,0,1,0-.1v-.09s0-.05,0-.07,0,0,0-.06l0-.06.66-1.17,0,0,.05,0h.46l.05,0s0,0,0,0v1.28Zm-.24-8.36a.69.69,0,0,1-.26.12.88.88,0,0,1-.33,0,.65.65,0,0,1-.2,0l-.17,0-.12-.05-.07,0,0,0s0,0,0,0a.43.43,0,0,1,0-.05V9.09a.28.28,0,0,1,0-.11s0,0,0,0a.1.1,0,0,1,.06,0l.1,0,.15.05a.54.54,0,0,0,.19,0,.33.33,0,0,0,.15,0A.23.23,0,0,0,13,9a.16.16,0,0,0,.07-.09.27.27,0,0,0,0-.12.25.25,0,0,0,0-.13A.31.31,0,0,0,13,8.55a.26.26,0,0,0-.14-.06.62.62,0,0,0-.2,0h-.22l0,0a.15.15,0,0,0,0-.06V8.23a.13.13,0,0,0,0-.05l0,0h.22l.17,0a.35.35,0,0,0,.12-.07A.27.27,0,0,0,13,8a.43.43,0,0,0,0-.12s0-.08,0-.11L13,7.65a.2.2,0,0,0-.09-.06l-.13,0a.41.41,0,0,0-.16,0,.35.35,0,0,0-.14.06l-.1,0-.06,0h0a0,0,0,0,0,0,0,.43.43,0,0,1,0,0V7.47l0,0s0,0,0,0l.07,0,.13-.06.17,0a1.09,1.09,0,0,1,.5,0,.75.75,0,0,1,.2.1.52.52,0,0,1,.12.17.54.54,0,0,1,0,.22.5.5,0,0,1,0,.18.36.36,0,0,1-.08.15.38.38,0,0,1-.11.11.51.51,0,0,1-.17.07h0a.42.42,0,0,1,.2.05.58.58,0,0,1,.15.11l.1.15a.57.57,0,0,1,0,.18.61.61,0,0,1-.06.28A.58.58,0,0,1,13.37,9.26ZM18.2,9a.66.66,0,0,1-.17.23.72.72,0,0,1-.26.14,1.16,1.16,0,0,1-.34,0h-.19l-.15,0a.35.35,0,0,1-.12,0l-.06,0s0,0,0,0,0,0,0,0a.07.07,0,0,1,0-.05V9.05s0,0,0-.05a0,0,0,0,1,0,0h0L17,9s.05,0,.08,0l.14.05.18,0a.48.48,0,0,0,.18,0A.26.26,0,0,0,17.69,9a.18.18,0,0,0,.08-.11.24.24,0,0,0,0-.15.36.36,0,0,0,0-.15.25.25,0,0,0-.08-.1.37.37,0,0,0-.14-.07H17s-.05,0-.06,0a.11.11,0,0,1,0-.09V7.39a.12.12,0,0,1,0-.09s0,0,.08,0h1s0,0,0,0,0,0,0,0,0,0,0,.06,0,0,0,.08a.41.41,0,0,1,0,.14s0,0-.05,0h-.76v.45h.24a1,1,0,0,1,.3,0,.84.84,0,0,1,.23.12.5.5,0,0,1,.13.19.76.76,0,0,1,.05.27A.75.75,0,0,1,18.2,9Z"/><polygon class="cls-1" points="13 16.64 13.01 16.64 13.01 17.62 12.45 17.62 13 16.64"/><path class="cls-1" d="M17.54,6.52A1.86,1.86,0,0,0,17,10.15v2.19H13.44V10.15a1.85,1.85,0,1,0-1.1,0v2.19H8.79V10.15a1.85,1.85,0,1,0-1.1,0v5.48a1.86,1.86,0,1,0,1.1,0V13.44h3.55v2.19a1.85,1.85,0,1,0,1.1,0V13.44h4.65V10.15a1.86,1.86,0,0,0-.55-3.63ZM8.81,16.58a.54.54,0,0,1,0,.22,1.23,1.23,0,0,1,0,.2.74.74,0,0,1-.08.22,1.51,1.51,0,0,1-.18.25,2.71,2.71,0,0,1-.3.33L8,18.05h.87s0,0,0,0a.14.14,0,0,1,0,.06s0,0,0,.08,0,.05,0,.08a.43.43,0,0,1,0,.05l0,0H7.58l0,0a.08.08,0,0,1,0-.05.31.31,0,0,1,0-.1v-.09a.64.64,0,0,1,0-.07l0-.06.06-.06.37-.4a1.68,1.68,0,0,0,.18-.21l.1-.17A1.21,1.21,0,0,0,8.32,17a.53.53,0,0,0,0-.12.37.37,0,0,0,0-.11.41.41,0,0,0-.05-.09.26.26,0,0,0-.09-.05l-.12,0-.17,0-.13.06-.1.05,0,0h0l0,0v-.06a.31.31,0,0,1,0-.1v-.06a.09.09,0,0,0,0-.05s0,0,0,0l0,0,.08-.05.13-.06.18,0,.2,0a.85.85,0,0,1,.29,0,.61.61,0,0,1,.21.12A.57.57,0,0,1,8.81,16.58ZM7.68,9.39h0l0,0s0,0,0,0a.19.19,0,0,1,0-.08.17.17,0,0,1,0-.08.07.07,0,0,1,0-.05s0,0,0,0h.42V7.68l-.34.18-.06,0h0s0,0,0,0V7.67a.09.09,0,0,1,0,0l0,0,0,0,.46-.29s0,0,0,0h.33l0,0V9.06h.38s0,0,0,0a.43.43,0,0,1,0,.05v.16s0,0,0,0l0,0H7.68Zm5.93,8.23s0,0,0,0a.21.21,0,0,1,0,.13.39.39,0,0,1,0,.13s0,0-.05,0h-.19v.39a0,0,0,0,1,0,0l0,0h-.33l0,0a0,0,0,0,1,0,0V18h-.86l0,0s0,0,0-.06a.28.28,0,0,1,0-.1v-.09s0-.05,0-.07,0,0,0-.06l0-.06.66-1.17,0,0,.05,0h.46l.05,0s0,0,0,0v1.28Zm-.24-8.36a.69.69,0,0,1-.26.12.88.88,0,0,1-.33,0,.65.65,0,0,1-.2,0l-.17,0-.12-.05-.07,0,0,0s0,0,0,0a.43.43,0,0,1,0-.05V9.09a.28.28,0,0,1,0-.11s0,0,0,0a.1.1,0,0,1,.06,0l.1,0,.15.05a.54.54,0,0,0,.19,0,.33.33,0,0,0,.15,0A.23.23,0,0,0,13,9a.16.16,0,0,0,.07-.09.27.27,0,0,0,0-.12.25.25,0,0,0,0-.13A.31.31,0,0,0,13,8.55a.26.26,0,0,0-.14-.06.62.62,0,0,0-.2,0h-.22l0,0a.15.15,0,0,0,0-.06V8.23a.13.13,0,0,0,0-.05l0,0h.22l.17,0a.35.35,0,0,0,.12-.07A.27.27,0,0,0,13,8a.43.43,0,0,0,0-.12s0-.08,0-.11L13,7.65a.2.2,0,0,0-.09-.06l-.13,0a.41.41,0,0,0-.16,0,.35.35,0,0,0-.14.06l-.1,0-.06,0h0a0,0,0,0,0,0,0,.43.43,0,0,1,0,0V7.47l0,0s0,0,0,0l.07,0,.13-.06.17,0a1.09,1.09,0,0,1,.5,0,.75.75,0,0,1,.2.1.52.52,0,0,1,.12.17.54.54,0,0,1,0,.22.5.5,0,0,1,0,.18.36.36,0,0,1-.08.15.38.38,0,0,1-.11.11.51.51,0,0,1-.17.07h0a.42.42,0,0,1,.2.05.58.58,0,0,1,.15.11l.1.15a.57.57,0,0,1,0,.18.61.61,0,0,1-.06.28A.58.58,0,0,1,13.37,9.26ZM18.2,9a.66.66,0,0,1-.17.23.72.72,0,0,1-.26.14,1.16,1.16,0,0,1-.34,0h-.19l-.15,0a.35.35,0,0,1-.12,0l-.06,0s0,0,0,0,0,0,0,0a.07.07,0,0,1,0-.05V9.05s0,0,0-.05a0,0,0,0,1,0,0h0L17,9s.05,0,.08,0l.14.05.18,0a.48.48,0,0,0,.18,0A.26.26,0,0,0,17.69,9a.18.18,0,0,0,.08-.11.24.24,0,0,0,0-.15.36.36,0,0,0,0-.15.25.25,0,0,0-.08-.1.37.37,0,0,0-.14-.07H17s-.05,0-.06,0a.11.11,0,0,1,0-.09V7.39a.12.12,0,0,1,0-.09s0,0,.08,0h1s0,0,0,0,0,0,0,0,0,0,0,.06,0,0,0,.08a.41.41,0,0,1,0,.14s0,0-.05,0h-.76v.45h.24a1,1,0,0,1,.3,0,.84.84,0,0,1,.23.12.5.5,0,0,1,.13.19.76.76,0,0,1,.05.27A.75.75,0,0,1,18.2,9Z"/><path class="cls-1" d="M18.63,18.38a.33.33,0,0,0,0-.1l-.22-.49a1.26,1.26,0,0,0-.07-.16.62.62,0,0,0-.08-.12l-.09-.1L18,17.35a1,1,0,0,0,.21-.1.67.67,0,0,0,.15-.14.76.76,0,0,0,.09-.18.85.85,0,0,0,0-.23.67.67,0,0,0-.05-.26.46.46,0,0,0-.13-.2.72.72,0,0,0-.2-.14,1.07,1.07,0,0,0-.27-.07H17a.2.2,0,0,0-.11,0,.17.17,0,0,0,0,.13v2.25s0,0,0,0l0,0,.08,0h.25l.07,0,0,0s0,0,0,0v-.94h.16a.36.36,0,0,1,.15,0l.1.07a.6.6,0,0,1,.09.13c0,.05.05.1.08.16l.22.56a.08.08,0,0,0,0,0l0,0h.44l0,0v0A.18.18,0,0,0,18.63,18.38ZM18,16.9a.26.26,0,0,1-.07.11l-.14.07a.54.54,0,0,1-.19,0H17.3V16.4h.46a.41.41,0,0,1,.18.12.46.46,0,0,1,0,.21A.4.4,0,0,1,18,16.9Z"/></g></g></g></g></svg>