<svg xmlns="http://www.w3.org/2000/svg" viewBox="0 0 30.29 30.29"><defs><style>.cls-1{fill:#fff;}</style></defs><title>wheels</title><g id="Слой_2" data-name="Слой 2"><g id="Контейнер"><g id="Спектр_услуг" data-name="Спектр услуг"><g id="Иконка_колесо" data-name="Иконка колесо"><path class="cls-1" d="M15.2,1.84A13.31,13.31,0,1,0,28.46,15.2,13.3,13.3,0,0,0,15.2,1.84Zm7.7,21.25-.85.76c-.23.18-.5.38-.79.57a6.94,6.94,0,0,1-1,.6,11,11,0,0,1-5.08,1.24h0A10.76,10.76,0,0,1,10,25l-1-.6a7.36,7.36,0,0,1-.71-.52h0l-.1-.06-.76-.71,0,0A11,11,0,0,1,4,15.1a11.51,11.51,0,0,1,.18-1.87,8.91,8.91,0,0,1,.25-1.15c.07-.24.16-.49.25-.73l0-.14a7.3,7.3,0,0,1,.5-1.11,11.06,11.06,0,0,1,8.29-5.95,8.62,8.62,0,0,1,1.14-.1h.5a4.24,4.24,0,0,1,.51,0,9.49,9.49,0,0,1,1.12.1,11.15,11.15,0,0,1,8.27,6,10.85,10.85,0,0,1,.47,1.09,6.61,6.61,0,0,1,.29.89,7,7,0,0,1,.25,1.17,10.42,10.42,0,0,1,.16,1.84A11,11,0,0,1,22.9,23.09Z"/><path class="cls-1" d="M30.07,12.65a8.66,8.66,0,0,0-.35-1.57,7.42,7.42,0,0,0-.39-1.21,12.08,12.08,0,0,0-.64-1.47A15.16,15.16,0,0,0,17.44.18,14.47,14.47,0,0,0,15.85,0q-.31,0-.63,0c-.24,0-.46,0-.68,0A13.47,13.47,0,0,0,13,.16,15.1,15.1,0,0,0,1.67,8.3,9.29,9.29,0,0,0,1,9.77c-.13.39-.28.8-.4,1.21a13.1,13.1,0,0,0-.35,1.56A15.4,15.4,0,0,0,0,15.09,15,15,0,0,0,4.48,25.86l0,.06,1.09,1,0,0a10,10,0,0,0,1,.74l1.4.84a15,15,0,0,0,14,.07,10.2,10.2,0,0,0,1.4-.81c.36-.24.71-.49,1-.75L25.71,26A15.08,15.08,0,0,0,30.29,15.2,15.4,15.4,0,0,0,30.07,12.65Zm-1.91-2.3a8.79,8.79,0,0,1,.36,1.1s0,0,0,0L20,14.2a4.91,4.91,0,0,0-.4-1.21l8.49-2.74A.38.38,0,0,0,28.16,10.35Zm-.68-1.57L18.07,11.1l-.64-9.64A13.92,13.92,0,0,1,27.48,8.78ZM19.22,14a.73.73,0,0,1-.73.72.72.72,0,0,1,0-1.44A.73.73,0,0,1,19.22,14ZM18,17.94a.73.73,0,1,1-.73-.73A.72.72,0,0,1,18,17.94ZM14.54,1.29l.15,0h.61a3.54,3.54,0,0,1,.51,0h0l0,8.92a4.91,4.91,0,0,0-.67-.05,4.74,4.74,0,0,0-.65.05Zm.6,9.55a.72.72,0,1,1-.72.72A.72.72,0,0,1,15.14,10.84Zm0,2.3a2,2,0,1,1-2,2A2,2,0,0,1,15.14,13.14Zm-2.06,4.07a.73.73,0,1,1-.73.73A.73.73,0,0,1,13.08,17.21Zm-1.26-2.48a.72.72,0,0,1,0-1.44.72.72,0,1,1,0,1.44ZM13,1.44l-.7,9.64h0L2.87,8.69A13.91,13.91,0,0,1,13,1.44ZM1.8,11.32a11.11,11.11,0,0,1,.37-1.11s0,0,0-.05L10.68,13a5.2,5.2,0,0,0-.43,1.22l-8.46-2.8A.43.43,0,0,0,1.8,11.32ZM5.22,24.83a13.71,13.71,0,0,1-4-9.74,13.11,13.11,0,0,1,.19-2.15l.09,0,8.84,3.63Zm2.21,1.84,0,0A8.35,8.35,0,0,1,6.47,26l-.06,0,5.26-7.2a4.32,4.32,0,0,0,1,.77ZM15.1,29A13.64,13.64,0,0,1,8.83,27.5l6.25-7.37,6.26,7.43A13.65,13.65,0,0,1,15.1,29Zm8.66-3c-.32.24-.62.48-1,.72a0,0,0,0,0,0,0l-5.23-7.24a5.25,5.25,0,0,0,1-.77L23.78,26ZM25,24.93l-5.06-8.31,9-3.59A12.2,12.2,0,0,1,29,15.2,13.64,13.64,0,0,1,25,24.93Z"/></g></g></g></g></svg>