<svg xmlns="http://www.w3.org/2000/svg" width="28" height="27" viewBox="0 0 28 27"><g><g><path fill="#fff" d="M27.02 13.54c0 7.434-5.795 13.46-12.943 13.46-7.15 0-12.944-6.026-12.944-13.46C1.133 6.103 6.928.077 14.077.077c7.148 0 12.943 6.026 12.943 13.461z"/></g><g><path fill="#4267ac" d="M14.048 0C6.562 0 .492 6.069.492 13.557c0 6.714 4.887 12.276 11.295 13.352V16.385h-3.27v-3.787h3.27V9.805c0-3.241 1.98-5.006 4.87-5.006 1.385 0 2.575.102 2.92.148v3.387l-2.005.001c-1.572 0-1.875.747-1.875 1.844v2.417h3.75l-.488 3.787h-3.262V27c6.707-.816 11.908-6.52 11.908-13.447C27.605 6.069 21.535 0 14.048 0z"/></g></g></svg>