<svg xmlns="http://www.w3.org/2000/svg" width="28" height="27" viewBox="0 0 28 27"><g><g><path fill="#fff" d="M26.856 13.188C26.856 20.262 21.168 26 14.15 26 7.131 26 1.443 20.264 1.443 13.188 1.443 6.112 7.131.375 14.15.375c7.02 0 12.707 5.737 12.707 12.813z"/></g><g><path fill="#d62b80" d="M16.528 13.365a2.558 2.558 0 1 1-5.115.001 2.558 2.558 0 0 1 5.115 0z"/></g><g><path fill="#d62b80" d="M19.953 8.838c.105.272.23.679.264 1.427.037.808.044 1.051.044 3.101s-.007 2.292-.044 3.1c-.035.75-.16 1.156-.264 1.425a2.538 2.538 0 0 1-1.457 1.458c-.27.106-.677.23-1.425.265-.809.036-1.052.044-3.102.044-2.048 0-2.292-.008-3.1-.044-.749-.034-1.156-.16-1.426-.265a2.373 2.373 0 0 1-.882-.574 2.368 2.368 0 0 1-.574-.883c-.106-.27-.23-.676-.265-1.425-.036-.81-.045-1.051-.045-3.1 0-2.05.01-2.294.045-3.103.034-.747.16-1.154.265-1.425.123-.334.32-.635.574-.882a2.37 2.37 0 0 1 .883-.575c.27-.105.676-.23 1.425-.264.808-.037 1.052-.045 3.1-.045 2.05 0 2.292.01 3.102.045.748.034 1.154.16 1.425.264.334.123.634.32.883.575.254.247.451.548.574.881zm-5.984 8.469a3.941 3.941 0 1 0 .002-7.883 3.941 3.941 0 0 0-.002 7.883zm4.098-7.117a.922.922 0 1 0-.001-1.844.922.922 0 0 0 .001 1.844z"/></g><g><path fill="#d62b80" d="M13.97 0c7.38 0 13.366 5.985 13.366 13.365 0 7.381-5.985 13.366-13.366 13.366-7.38 0-13.365-5.985-13.365-13.366C.605 5.985 6.59 0 13.97 0zm7.629 16.53c.037-.819.046-1.08.046-3.165 0-2.084-.01-2.346-.046-3.164-.037-.817-.167-1.375-.356-1.863a3.77 3.77 0 0 0-.886-1.359 3.765 3.765 0 0 0-1.36-.886c-.488-.189-1.045-.319-1.862-.356-.82-.037-1.08-.047-3.165-.047-2.084 0-2.346.01-3.164.047-.816.037-1.374.167-1.862.356a3.765 3.765 0 0 0-1.36.886c-.39.383-.693.847-.885 1.36-.19.487-.32 1.045-.357 1.862-.038.818-.046 1.08-.046 3.164 0 2.085.008 2.346.046 3.165.037.816.167 1.374.357 1.862.193.513.495.977.885 1.36.383.39.847.692 1.36.885.488.19 1.046.32 1.862.357.819.037 1.08.046 3.165.046 2.084 0 2.346-.009 3.164-.046.817-.037 1.375-.167 1.862-.357a3.926 3.926 0 0 0 2.246-2.245c.189-.488.319-1.046.356-1.863z"/></g></g></svg>