<svg xmlns="http://www.w3.org/2000/svg" width="28" height="27" viewBox="0 0 28 27"><g><g><path fill="#fff" d="M26.867 13.571c0 7.435-5.795 13.461-12.943 13.461C6.775 27.032.98 21.006.98 13.572.98 6.136 6.775.11 13.924.11c7.148 0 12.943 6.027 12.943 13.461z"/></g><g><path fill="#33b7eb" d="M13.836 0c7.454 0 13.5 6.045 13.5 13.5S21.29 27 13.836 27c-7.455 0-13.5-6.045-13.5-13.5S6.381 0 13.836 0zM20 10.525a6.284 6.284 0 0 0 1.545-1.604 6.168 6.168 0 0 1-1.779.488 3.119 3.119 0 0 0 1.363-1.714c-.6.354-1.262.613-1.968.752a3.1 3.1 0 0 0-5.28 2.826 8.802 8.802 0 0 1-6.388-3.238 3.101 3.101 0 0 0 .96 4.137 3.09 3.09 0 0 1-1.403-.387l-.001.04a3.1 3.1 0 0 0 2.486 3.037 3.145 3.145 0 0 1-1.399.053 3.1 3.1 0 0 0 2.894 2.152 6.215 6.215 0 0 1-4.588 1.283c1.371.88 3 1.392 4.75 1.392 5.7 0 8.817-4.722 8.817-8.816 0-.134-.003-.267-.009-.4z"/></g></g></svg>