<svg xmlns="http://www.w3.org/2000/svg" width="28" height="28" viewBox="0 0 28 28"><g><g><path fill="#4d769b" d="M14.021.756c7.44 0 13.471 6.03 13.471 13.47s-6.032 13.47-13.47 13.47c-7.44 0-13.472-6.03-13.472-13.47S6.581.757 14.021.757z"/></g><g><path fill="#fff" d="M13.512 20.135h1.057s.32-.035.483-.211c.15-.161.145-.464.145-.464s-.02-1.42.638-1.628c.65-.206 1.482 1.37 2.366 1.978.668.459 1.176.358 1.176.358l2.362-.033s1.235-.076.65-1.048c-.048-.08-.34-.72-1.757-2.032-1.48-1.374-1.283-1.152.502-3.53 1.086-1.45 1.52-2.332 1.384-2.711-.129-.361-.927-.265-.927-.265l-2.66.017s-.198-.028-.344.059c-.143.086-.235.286-.235.286s-.42 1.12-.982 2.074c-1.185 2.01-1.658 2.117-1.852 1.992-.45-.291-.338-1.17-.338-1.793 0-1.948.296-2.761-.575-2.972-.289-.07-.502-.115-1.24-.123-.95-.01-1.753.003-2.208.226-.303.148-.536.478-.394.497.176.023.574.107.785.395.273.37.263 1.203.263 1.203s.157 2.294-.365 2.579c-.359.196-.85-.203-1.907-2.028-.54-.934-.949-1.968-.949-1.968s-.079-.192-.22-.296c-.17-.125-.408-.165-.408-.165l-2.528.017s-.379.01-.518.176c-.124.146-.01.45-.01.45s1.98 4.629 4.22 6.962c2.053 2.139 4.386 1.998 4.386 1.998z"/></g></g></svg>