<svg xmlns="http://www.w3.org/2000/svg" width="28" height="27" viewBox="0 0 28 27"><g><g><path fill="#fff" d="M26.767 13.648c0 7.434-5.795 13.46-12.943 13.46-7.15 0-12.944-6.026-12.944-13.46C.88 6.213 6.675.187 13.824.187c7.148 0 12.943 6.026 12.943 13.46z"/></g><g><path fill="red" d="M12.154 16.03l4.392-2.53-4.392-2.53z"/></g><g><path fill="red" d="M13.835 0c7.455 0 13.5 6.045 13.5 13.5S21.29 27 13.835 27 .335 20.955.335 13.5 6.38 0 13.835 0zm8.436 13.514s.014-2.751-.348-4.071a2.114 2.114 0 0 0-1.486-1.488c-1.32-.361-6.601-.361-6.601-.361s-5.281 0-6.601.348a2.153 2.153 0 0 0-1.486 1.5C5.4 10.763 5.4 13.5 5.4 13.5s0 2.752.348 4.058a2.11 2.11 0 0 0 1.486 1.487c1.334.362 6.6.362 6.6.362s5.282 0 6.602-.348a2.111 2.111 0 0 0 1.487-1.486c.348-1.321.348-4.06.348-4.06z"/></g></g></svg>