<svg xmlns="http://www.w3.org/2000/svg" viewBox="0 0 42.18 42.18"><defs><style>.cls-1{fill:#29a5dc;stroke:#fff;stroke-miterlimit:10;}.cls-2{fill:#fff;}</style></defs><title>diagnostics-off</title><g id="Слой_2" data-name="Слой 2"><g id="Контейнер"><g id="Спектр_услуг" data-name="Спектр услуг"><g id="Диагностика"><circle class="cls-1" cx="21.09" cy="21.09" r="20.59"/><path class="cls-2" d="M32.85,12.48H9.56a.7.7,0,0,0-.73.66V27a.69.69,0,0,0,.73.66H32.85a.7.7,0,0,0,.73-.66V13.14A.7.7,0,0,0,32.85,12.48Zm-.32,13.83H9.88V13.73H32.53Z"/><path class="cls-2" d="M35.16,28.15a1.32,1.32,0,0,1-1.26,1.38H8.5a1.32,1.32,0,0,1-1.26-1.38Z"/><path class="cls-2" d="M25.49,19a7.21,7.21,0,0,0-1.63-.23h-.34v.06a11.5,11.5,0,0,1,.1,1.44v0h.05c1.63-.1,3.32-.23,3.42-.27s0,0,0-.07A4.34,4.34,0,0,0,25.49,19Zm-1.77,1.2a9.79,9.79,0,0,0-.09-1.34h.23a7.13,7.13,0,0,1,1.61.23A5.85,5.85,0,0,1,27,20C26.81,20,25.41,20.12,23.72,20.22ZM25.49,19a7.21,7.21,0,0,0-1.63-.23h-.34v.06a11.5,11.5,0,0,1,.1,1.44v0h.05c1.63-.1,3.32-.23,3.42-.27s0,0,0-.07A4.34,4.34,0,0,0,25.49,19Zm-1.77,1.2a9.79,9.79,0,0,0-.09-1.34h.23a7.13,7.13,0,0,1,1.61.23A5.85,5.85,0,0,1,27,20C26.81,20,25.41,20.12,23.72,20.22ZM25.49,19a7.21,7.21,0,0,0-1.63-.23h-.34v.06a11.5,11.5,0,0,1,.1,1.44v0h.05c1.63-.1,3.32-.23,3.42-.27s0,0,0-.07A4.34,4.34,0,0,0,25.49,19Zm-1.77,1.2a9.79,9.79,0,0,0-.09-1.34h.23a7.13,7.13,0,0,1,1.61.23A5.85,5.85,0,0,1,27,20C26.81,20,25.41,20.12,23.72,20.22ZM25.49,19a7.21,7.21,0,0,0-1.63-.23h-.34v.06a11.5,11.5,0,0,1,.1,1.44v0h.05c1.63-.1,3.32-.23,3.42-.27s0,0,0-.07A4.34,4.34,0,0,0,25.49,19Zm-1.77,1.2a9.79,9.79,0,0,0-.09-1.34h.23a7.13,7.13,0,0,1,1.61.23A5.85,5.85,0,0,1,27,20C26.81,20,25.41,20.12,23.72,20.22ZM25.49,19a7.21,7.21,0,0,0-1.63-.23h-.34v.06a11.5,11.5,0,0,1,.1,1.44v0h.05c1.63-.1,3.32-.23,3.42-.27s0,0,0-.07A4.34,4.34,0,0,0,25.49,19Zm-1.77,1.2a9.79,9.79,0,0,0-.09-1.34h.23a7.13,7.13,0,0,1,1.61.23A5.85,5.85,0,0,1,27,20C26.81,20,25.41,20.12,23.72,20.22Zm-7.66,1.34,0-.1a1.69,1.69,0,0,0-1.3,1.64,1.73,1.73,0,0,0,0,.32H14l-.44,0h-.23a.58.58,0,0,1-.23-.06l0,0h0s0,0,0,0a.2.2,0,0,1,0-.11,0,0,0,0,0,0,0h0v0l0,0h0v0s0,0,0,0h0v0s0,0,0-.07,0-.05,0-.07,0-.24,0-.35v-.19a.28.28,0,0,0,0-.09v-.08a.25.25,0,0,1,0-.08V22a0,0,0,0,1,0,0v0a.31.31,0,0,1,0-.1,1.1,1.1,0,0,1,.26-.6l.1-.14a5.39,5.39,0,0,1,2.18-.47l0-.1a5.07,5.07,0,0,0-2.24.51,1,1,0,0,1-.1.14,1.21,1.21,0,0,0-.28.65s0,.06,0,.1v0a0,0,0,0,0,0,0v.15a0,0,0,0,1,0,0v.33c0,.11,0,.22,0,.35v.05a.13.13,0,0,1,0,0v0l0,0h0V23l0,0v.05a.47.47,0,0,0,0,.17s0,0,0,.05h0a.46.46,0,0,0,.07.07.5.5,0,0,0,.29.09h1.53v-.05a1.47,1.47,0,0,1,0-.36A1.58,1.58,0,0,1,16.06,21.56Zm15,.14a.24.24,0,0,0,0-.08s0,0,0,0l0-.07s0,0,0,0,0,0,0,0l0,0,0,0-.05-.07v0a.24.24,0,0,1,0-.09v-.11l0-.09v0l-.06-.24a.29.29,0,0,1,0-.09l0-.06s0,0,0,0l-.09-.29a.14.14,0,0,1,0-.06h0v0c0-.05-.1-.06-.5-.11A6.42,6.42,0,0,1,29,19.88l-.26-.1a13.58,13.58,0,0,0-5.18-1.18h-.4a5.78,5.78,0,0,0-2,.12,25.13,25.13,0,0,0-2.48,1.17l-.63.31a5.86,5.86,0,0,1-.93.15v.1a5.22,5.22,0,0,0,1-.16l.63-.32a24.68,24.68,0,0,1,2.47-1.15,5.3,5.3,0,0,1,2-.12h.39a13.86,13.86,0,0,1,5.16,1.17L29,20a5.14,5.14,0,0,0,1.13.22c.18,0,.37,0,.42.07v0l0,0,.08.28,0,.05v.05l0,.1,0,.2v0s0,.06,0,.09v0a.18.18,0,0,1,0,.06.27.27,0,0,0,0,.13h0a.36.36,0,0,0,.07.1h0v0l0,0h0l0,.07v0a.64.64,0,0,1,0,.07,3.14,3.14,0,0,1,0,1.11h0a.42.42,0,0,0-.15.09l-.07.05,0,0h0l0,0,0,0,0,0-.1,0-.07,0a1.35,1.35,0,0,1-.34.11h-.13a3,3,0,0,1-.44.07,1.39,1.39,0,0,0,0-.3,1.69,1.69,0,0,0-3.37,0,1.73,1.73,0,0,0,0,.32H18.08a1.91,1.91,0,0,0,0-.32A1.69,1.69,0,0,0,17,21.53v.1a1.6,1.6,0,0,1,1,1.47,1.65,1.65,0,0,1,0,.36l0,.05h8.34v-.05a1.47,1.47,0,0,1,0-.36,1.59,1.59,0,1,1,3.17,0,1.29,1.29,0,0,1,0,.35v.06h.06a4.16,4.16,0,0,0,.53-.09h0l.05,0h0a2.14,2.14,0,0,0,.36-.12l.08,0,.1-.06.05,0,.05,0,.05,0,0,0,.07,0,.11-.07h0v0s0,0,0-.05A3.24,3.24,0,0,0,31.07,21.7Z"/><path class="cls-2" d="M21.3,20.35c.34,0,.71,0,1.11-.05Zm1.94-1.48h0Z"/><path class="cls-2" d="M23.55,19.88c0-.08,0-.17,0-.26,0-.25-.05-.51-.08-.8v0h-.81a9.21,9.21,0,0,0-1.17.05,4.62,4.62,0,0,0-.54.19l-.28.12a8.94,8.94,0,0,0-2.12,1.14.12.12,0,0,0,0,.07.07.07,0,0,0,0,.05l0,0h0a3.2,3.2,0,0,0,.64.06h.43c1,0,2.66-.08,3.82-.15h0v0C23.56,20.16,23.56,20,23.55,19.88Zm-4,.36c-.06,0-.11,0-.14,0a.06.06,0,0,0,0,.07s0,.07.08.1h-.22a3.39,3.39,0,0,1-.54,0s0,0,0,0a4,4,0,0,1,.54-.4l.14-.07a.65.65,0,0,1,.21-.06s.11,0,.11.06a2.53,2.53,0,0,1,0,.35c0,.08,0,.08,0,.08A.21.21,0,0,1,19.57,20.24Zm3.44,0h-.24l-.36,0c-.4,0-.77,0-1.11.05H19.67s.12,0,.14-.16a2.89,2.89,0,0,0,0-.37c0-.1-.09-.15-.19-.16l.29-.14.17-.08.24-.1.18-.08c.32-.14.6-.26.78-.32l.06,0,.09,0h0l.1,0,.33,0h1.45a11.74,11.74,0,0,1,.09,1.36Z"/><path class="cls-2" d="M13.51,21.84h-.39v0a1.14,1.14,0,0,1,.27-.63l0-.06h.34c.16,0,.38,0,.59,0h.06v.06c-.08.29-.17.56-.51.64A2.25,2.25,0,0,1,13.51,21.84Zm-.28-.1h.28a2,2,0,0,0,.38,0c.26-.06.35-.26.42-.51h-.83A1.12,1.12,0,0,0,13.23,21.74Z"/><path class="cls-2" d="M15.43,22.88v.06a.78.78,0,0,0,0,.16,1,1,0,0,0,.3.72l0,0,.32-.44.11-.15.08-.12Zm.3.83a.91.91,0,0,1-.23-.61s0-.06,0-.09l.4.13.19.07Zm.53-1.61a1,1,0,0,0-.74.53l0,.05.51.16.19.06.13.05v-.86Zm0,.71-.58-.19a.91.91,0,0,1,.58-.42Zm.21.15a.14.14,0,1,0,0,.28.14.14,0,1,0,0-.28Zm.2.59-.2-.27-.51.71L16,24a.9.9,0,0,0,.46.11,1.11,1.11,0,0,0,.46-.11l.05,0Zm-.57.4.37-.5.36.5A.93.93,0,0,1,16.06,24Zm1.27-1.32a1,1,0,0,0-.73-.53l-.06,0V23l.82-.27Zm-.7.18V22.2a1,1,0,0,1,.59.42Zm.81.13,0-.05-.81.26.5.71.05,0a1,1,0,0,0,.29-.72C17.45,23.05,17.44,23,17.44,22.94Zm-.31.77-.36-.49h0l.59-.19v.08A.9.9,0,0,1,17.13,23.71Zm-1.7-.83v.06a.78.78,0,0,0,0,.16,1,1,0,0,0,.3.72l0,0,.32-.44.11-.15.08-.12Zm.3.83a.91.91,0,0,1-.23-.61s0-.06,0-.09l.4.13.19.07Zm.53-1.61a1,1,0,0,0-.74.53l0,.05.51.16.19.06.13.05v-.86Zm0,.71-.58-.19a.91.91,0,0,1,.58-.42Zm.21.15a.14.14,0,1,0,0,.28.14.14,0,1,0,0-.28Zm.2.59-.2-.27-.51.71L16,24a.9.9,0,0,0,.46.11,1.11,1.11,0,0,0,.46-.11l.05,0Zm-.57.4.37-.5.36.5A.93.93,0,0,1,16.06,24Zm1.27-1.32a1,1,0,0,0-.73-.53l-.06,0V23l.82-.27Zm-.7.18V22.2a1,1,0,0,1,.59.42Zm.81.13,0-.05-.81.26.5.71.05,0a1,1,0,0,0,.29-.72C17.45,23.05,17.44,23,17.44,22.94Zm-.31.77-.36-.49h0l.59-.19v.08A.9.9,0,0,1,17.13,23.71Zm-1.7-.83v.06a.78.78,0,0,0,0,.16,1,1,0,0,0,.3.72l0,0,.32-.44.11-.15.08-.12Zm.3.83a.91.91,0,0,1-.23-.61s0-.06,0-.09l.4.13.19.07Zm.53-1.61a1,1,0,0,0-.74.53l0,.05.51.16.19.06.13.05v-.86Zm0,.71-.58-.19a.91.91,0,0,1,.58-.42Zm.21.15a.14.14,0,1,0,0,.28.14.14,0,1,0,0-.28Zm.2.59-.2-.27-.51.71L16,24a.9.9,0,0,0,.46.11,1.11,1.11,0,0,0,.46-.11l.05,0Zm-.57.4.37-.5.36.5A.93.93,0,0,1,16.06,24Zm1.27-1.32a1,1,0,0,0-.73-.53l-.06,0V23l.82-.27Zm-.7.18V22.2a1,1,0,0,1,.59.42Zm.81.13,0-.05-.81.26.5.71.05,0a1,1,0,0,0,.29-.72C17.45,23.05,17.44,23,17.44,22.94Zm-.31.77-.36-.49h0l.59-.19v.08A.9.9,0,0,1,17.13,23.71ZM17,21.85l0,.1a1.28,1.28,0,0,1-.54,2.43,1.28,1.28,0,0,1-1.28-1.28,1.27,1.27,0,0,1,1-1.24l0-.1A1.37,1.37,0,1,0,17.8,23.1,1.36,1.36,0,0,0,17,21.85Zm.17,2a1,1,0,0,0,.29-.72c0-.05,0-.11,0-.16l0-.05-.81.26.5.71Zm-.4-.61.59-.19v.08a.9.9,0,0,1-.22.61l-.36-.49Zm.57-.58a1,1,0,0,0-.73-.53l-.06,0V23l.82-.27Zm-.7.18V22.2a1,1,0,0,1,.59.42Zm-.2,1.31a1.11,1.11,0,0,0,.46-.11l.05,0-.31-.44-.2-.27-.51.71L16,24A.9.9,0,0,0,16.43,24.12Zm0-.67.36.5a.93.93,0,0,1-.73,0Zm0-.21a.14.14,0,1,0,0-.28.14.14,0,1,0,0,.28Zm-.91-.61,0,.05.51.16.19.06.13.05v-.86h-.06A1,1,0,0,0,15.52,22.63Zm.7-.43v.61l-.58-.19A.91.91,0,0,1,16.22,22.2Zm0,.95-.82-.27v.06a.78.78,0,0,0,0,.16,1,1,0,0,0,.3.72l0,0,.32-.44.11-.15Zm-.52.56a.91.91,0,0,1-.23-.61s0-.06,0-.09l.4.13.19.07Zm1.71-.77,0-.05-.81.26.5.71.05,0a1,1,0,0,0,.29-.72C17.45,23.05,17.44,23,17.44,22.94Zm-.31.77-.36-.49h0l.59-.19v.08A.9.9,0,0,1,17.13,23.71Zm.2-1.08a1,1,0,0,0-.73-.53l-.06,0V23l.82-.27Zm-.7.18V22.2a1,1,0,0,1,.59.42Zm0,.74-.2-.27-.51.71L16,24a.9.9,0,0,0,.46.11,1.11,1.11,0,0,0,.46-.11l.05,0Zm-.57.4.37-.5.36.5A.93.93,0,0,1,16.06,24Zm.37-1a.14.14,0,1,0,0,.28.14.14,0,1,0,0-.28Zm-.17-.86a1,1,0,0,0-.74.53l0,.05.51.16.19.06.13.05v-.86Zm0,.71-.58-.19a.91.91,0,0,1,.58-.42Zm-.79.07v.06a.78.78,0,0,0,0,.16,1,1,0,0,0,.3.72l0,0,.32-.44.11-.15.08-.12Zm.3.83a.91.91,0,0,1-.23-.61s0-.06,0-.09l.4.13.19.07Zm1.71-.77,0-.05-.81.26.5.71.05,0a1,1,0,0,0,.29-.72C17.45,23.05,17.44,23,17.44,22.94Zm-.31.77-.36-.49h0l.59-.19v.08A.9.9,0,0,1,17.13,23.71Zm.2-1.08a1,1,0,0,0-.73-.53l-.06,0V23l.82-.27Zm-.7.18V22.2a1,1,0,0,1,.59.42Zm0,.74-.2-.27-.51.71L16,24a.9.9,0,0,0,.46.11,1.11,1.11,0,0,0,.46-.11l.05,0Zm-.57.4.37-.5.36.5A.93.93,0,0,1,16.06,24Zm.37-1a.14.14,0,1,0,0,.28.14.14,0,1,0,0-.28Zm-.17-.86a1,1,0,0,0-.74.53l0,.05.51.16.19.06.13.05v-.86Zm0,.71-.58-.19a.91.91,0,0,1,.58-.42Zm-.79.07v.06a.78.78,0,0,0,0,.16,1,1,0,0,0,.3.72l0,0,.32-.44.11-.15.08-.12Zm.3.83a.91.91,0,0,1-.23-.61s0-.06,0-.09l.4.13.19.07Zm1.71-.77,0-.05-.81.26.5.71.05,0a1,1,0,0,0,.29-.72C17.45,23.05,17.44,23,17.44,22.94Zm-.31.77-.36-.49h0l.59-.19v.08A.9.9,0,0,1,17.13,23.71Zm.2-1.08a1,1,0,0,0-.73-.53l-.06,0V23l.82-.27Zm-.7.18V22.2a1,1,0,0,1,.59.42Zm0,.74-.2-.27-.51.71L16,24a.9.9,0,0,0,.46.11,1.11,1.11,0,0,0,.46-.11l.05,0Zm-.57.4.37-.5.36.5A.93.93,0,0,1,16.06,24Zm.37-1a.14.14,0,1,0,0,.28.14.14,0,1,0,0-.28Zm-.17-.86a1,1,0,0,0-.74.53l0,.05.51.16.19.06.13.05v-.86Zm0,.71-.58-.19a.91.91,0,0,1,.58-.42Zm-.79.07v.06a.78.78,0,0,0,0,.16,1,1,0,0,0,.3.72l0,0,.32-.44.11-.15.08-.12Zm.3.83a.91.91,0,0,1-.23-.61s0-.06,0-.09l.4.13.19.07Zm-.3-.83v.06a.78.78,0,0,0,0,.16,1,1,0,0,0,.3.72l0,0,.32-.44.11-.15.08-.12Zm.3.83a.91.91,0,0,1-.23-.61s0-.06,0-.09l.4.13.19.07Zm.53-1.61a1,1,0,0,0-.74.53l0,.05.51.16.19.06.13.05v-.86Zm0,.71-.58-.19a.91.91,0,0,1,.58-.42Zm.21.15a.14.14,0,1,0,0,.28.14.14,0,1,0,0-.28Zm.2.59-.2-.27-.51.71L16,24a.9.9,0,0,0,.46.11,1.11,1.11,0,0,0,.46-.11l.05,0Zm-.57.4.37-.5.36.5A.93.93,0,0,1,16.06,24Zm1.27-1.32a1,1,0,0,0-.73-.53l-.06,0V23l.82-.27Zm-.7.18V22.2a1,1,0,0,1,.59.42Zm.81.13,0-.05-.81.26.5.71.05,0a1,1,0,0,0,.29-.72C17.45,23.05,17.44,23,17.44,22.94Zm-.31.77-.36-.49h0l.59-.19v.08A.9.9,0,0,1,17.13,23.71Zm.31-.77,0-.05-.81.26.5.71.05,0a1,1,0,0,0,.29-.72C17.45,23.05,17.44,23,17.44,22.94Zm-.31.77-.36-.49h0l.59-.19v.08A.9.9,0,0,1,17.13,23.71Zm.2-1.08a1,1,0,0,0-.73-.53l-.06,0V23l.82-.27Zm-.7.18V22.2a1,1,0,0,1,.59.42Zm0,.74-.2-.27-.51.71L16,24a.9.9,0,0,0,.46.11,1.11,1.11,0,0,0,.46-.11l.05,0Zm-.57.4.37-.5.36.5A.93.93,0,0,1,16.06,24Zm.37-1a.14.14,0,1,0,0,.28.14.14,0,1,0,0-.28Zm-.17-.86a1,1,0,0,0-.74.53l0,.05.51.16.19.06.13.05v-.86Zm0,.71-.58-.19a.91.91,0,0,1,.58-.42Zm-.79.07v.06a.78.78,0,0,0,0,.16,1,1,0,0,0,.3.72l0,0,.32-.44.11-.15.08-.12Zm.3.83a.91.91,0,0,1-.23-.61s0-.06,0-.09l.4.13.19.07Zm-.3-.83v.06a.78.78,0,0,0,0,.16,1,1,0,0,0,.3.72l0,0,.32-.44.11-.15.08-.12Zm.3.83a.91.91,0,0,1-.23-.61s0-.06,0-.09l.4.13.19.07Zm.53-1.61a1,1,0,0,0-.74.53l0,.05.51.16.19.06.13.05v-.86Zm0,.71-.58-.19a.91.91,0,0,1,.58-.42Zm.21.15a.14.14,0,1,0,0,.28.14.14,0,1,0,0-.28Zm.2.59-.2-.27-.51.71L16,24a.9.9,0,0,0,.46.11,1.11,1.11,0,0,0,.46-.11l.05,0Zm-.57.4.37-.5.36.5A.93.93,0,0,1,16.06,24Zm1.27-1.32a1,1,0,0,0-.73-.53l-.06,0V23l.82-.27Zm-.7.18V22.2a1,1,0,0,1,.59.42Zm.81.13,0-.05-.81.26.5.71.05,0a1,1,0,0,0,.29-.72C17.45,23.05,17.44,23,17.44,22.94Zm-.31.77-.36-.49h0l.59-.19v.08A.9.9,0,0,1,17.13,23.71Zm.31-.77,0-.05-.81.26.5.71.05,0a1,1,0,0,0,.29-.72C17.45,23.05,17.44,23,17.44,22.94Zm-.31.77-.36-.49h0l.59-.19v.08A.9.9,0,0,1,17.13,23.71Zm.2-1.08a1,1,0,0,0-.73-.53l-.06,0V23l.82-.27Zm-.7.18V22.2a1,1,0,0,1,.59.42Zm0,.74-.2-.27-.51.71L16,24a.9.9,0,0,0,.46.11,1.11,1.11,0,0,0,.46-.11l.05,0Zm-.57.4.37-.5.36.5A.93.93,0,0,1,16.06,24Zm.37-1a.14.14,0,1,0,0,.28.14.14,0,1,0,0-.28Zm-.17-.86a1,1,0,0,0-.74.53l0,.05.51.16.19.06.13.05v-.86Zm0,.71-.58-.19a.91.91,0,0,1,.58-.42Zm-.79.07v.06a.78.78,0,0,0,0,.16,1,1,0,0,0,.3.72l0,0,.32-.44.11-.15.08-.12Zm.3.83a.91.91,0,0,1-.23-.61s0-.06,0-.09l.4.13.19.07Zm-.3-.83v.06a.78.78,0,0,0,0,.16,1,1,0,0,0,.3.72l0,0,.32-.44.11-.15.08-.12Zm.3.83a.91.91,0,0,1-.23-.61s0-.06,0-.09l.4.13.19.07Zm.53-1.61a1,1,0,0,0-.74.53l0,.05.51.16.19.06.13.05v-.86Zm0,.71-.58-.19a.91.91,0,0,1,.58-.42Zm.21.15a.14.14,0,1,0,0,.28.14.14,0,1,0,0-.28Zm.2.59-.2-.27-.51.71L16,24a.9.9,0,0,0,.46.11,1.11,1.11,0,0,0,.46-.11l.05,0Zm-.57.4.37-.5.36.5A.93.93,0,0,1,16.06,24Zm1.27-1.32a1,1,0,0,0-.73-.53l-.06,0V23l.82-.27Zm-.7.18V22.2a1,1,0,0,1,.59.42Zm.81.13,0-.05-.81.26.5.71.05,0a1,1,0,0,0,.29-.72C17.45,23.05,17.44,23,17.44,22.94Zm-.31.77-.36-.49h0l.59-.19v.08A.9.9,0,0,1,17.13,23.71Zm.31-.77,0-.05-.81.26.5.71.05,0a1,1,0,0,0,.29-.72C17.45,23.05,17.44,23,17.44,22.94Zm-.31.77-.36-.49h0l.59-.19v.08A.9.9,0,0,1,17.13,23.71Zm.2-1.08a1,1,0,0,0-.73-.53l-.06,0V23l.82-.27Zm-.7.18V22.2a1,1,0,0,1,.59.42Zm0,.74-.2-.27-.51.71L16,24a.9.9,0,0,0,.46.11,1.11,1.11,0,0,0,.46-.11l.05,0Zm-.57.4.37-.5.36.5A.93.93,0,0,1,16.06,24Zm.37-1a.14.14,0,1,0,0,.28.14.14,0,1,0,0-.28Zm-.17-.86a1,1,0,0,0-.74.53l0,.05.51.16.19.06.13.05v-.86Zm0,.71-.58-.19a.91.91,0,0,1,.58-.42Zm-.79.07v.06a.78.78,0,0,0,0,.16,1,1,0,0,0,.3.72l0,0,.32-.44.11-.15.08-.12Zm.3.83a.91.91,0,0,1-.23-.61s0-.06,0-.09l.4.13.19.07Zm-.3-.83v.06a.78.78,0,0,0,0,.16,1,1,0,0,0,.3.72l0,0,.32-.44.11-.15.08-.12Zm.3.83a.91.91,0,0,1-.23-.61s0-.06,0-.09l.4.13.19.07Zm.53-1.61a1,1,0,0,0-.74.53l0,.05.51.16.19.06.13.05v-.86Zm0,.71-.58-.19a.91.91,0,0,1,.58-.42Zm.21.15a.14.14,0,1,0,0,.28.14.14,0,1,0,0-.28Zm.2.59-.2-.27-.51.71L16,24a.9.9,0,0,0,.46.11,1.11,1.11,0,0,0,.46-.11l.05,0Zm-.57.4.37-.5.36.5A.93.93,0,0,1,16.06,24Zm1.27-1.32a1,1,0,0,0-.73-.53l-.06,0V23l.82-.27Zm-.7.18V22.2a1,1,0,0,1,.59.42Zm.81.13,0-.05-.81.26.5.71.05,0a1,1,0,0,0,.29-.72C17.45,23.05,17.44,23,17.44,22.94Zm-.31.77-.36-.49h0l.59-.19v.08A.9.9,0,0,1,17.13,23.71Zm.31-.77,0-.05-.81.26.5.71.05,0a1,1,0,0,0,.29-.72C17.45,23.05,17.44,23,17.44,22.94Zm-.31.77-.36-.49h0l.59-.19v.08A.9.9,0,0,1,17.13,23.71Zm.2-1.08a1,1,0,0,0-.73-.53l-.06,0V23l.82-.27Zm-.7.18V22.2a1,1,0,0,1,.59.42Zm0,.74-.2-.27-.51.71L16,24a.9.9,0,0,0,.46.11,1.11,1.11,0,0,0,.46-.11l.05,0Zm-.57.4.37-.5.36.5A.93.93,0,0,1,16.06,24Zm.37-1a.14.14,0,1,0,0,.28.14.14,0,1,0,0-.28Zm-.17-.86a1,1,0,0,0-.74.53l0,.05.51.16.19.06.13.05v-.86Zm0,.71-.58-.19a.91.91,0,0,1,.58-.42Zm-.79.07v.06a.78.78,0,0,0,0,.16,1,1,0,0,0,.3.72l0,0,.32-.44.11-.15.08-.12Zm.3.83a.91.91,0,0,1-.23-.61s0-.06,0-.09l.4.13.19.07Zm-.3-.83v.06a.78.78,0,0,0,0,.16,1,1,0,0,0,.3.72l0,0,.32-.44.11-.15.08-.12Zm.3.83a.91.91,0,0,1-.23-.61s0-.06,0-.09l.4.13.19.07Zm.53-1.61a1,1,0,0,0-.74.53l0,.05.51.16.19.06.13.05v-.86Zm0,.71-.58-.19a.91.91,0,0,1,.58-.42Zm.21.15a.14.14,0,1,0,0,.28.14.14,0,1,0,0-.28Zm.2.59-.2-.27-.51.71L16,24a.9.9,0,0,0,.46.11,1.11,1.11,0,0,0,.46-.11l.05,0Zm-.57.4.37-.5.36.5A.93.93,0,0,1,16.06,24Zm1.27-1.32a1,1,0,0,0-.73-.53l-.06,0V23l.82-.27Zm-.7.18V22.2a1,1,0,0,1,.59.42Zm.81.13,0-.05-.81.26.5.71.05,0a1,1,0,0,0,.29-.72C17.45,23.05,17.44,23,17.44,22.94Zm-.31.77-.36-.49h0l.59-.19v.08A.9.9,0,0,1,17.13,23.71Zm.31-.77,0-.05-.81.26.5.71.05,0a1,1,0,0,0,.29-.72C17.45,23.05,17.44,23,17.44,22.94Zm-.31.77-.36-.49h0l.59-.19v.08A.9.9,0,0,1,17.13,23.71Zm.2-1.08a1,1,0,0,0-.73-.53l-.06,0V23l.82-.27Zm-.7.18V22.2a1,1,0,0,1,.59.42Zm0,.74-.2-.27-.51.71L16,24a.9.9,0,0,0,.46.11,1.11,1.11,0,0,0,.46-.11l.05,0Zm-.57.4.37-.5.36.5A.93.93,0,0,1,16.06,24Zm.37-1a.14.14,0,1,0,0,.28.14.14,0,1,0,0-.28Zm-.17-.86a1,1,0,0,0-.74.53l0,.05.51.16.19.06.13.05v-.86Zm0,.71-.58-.19a.91.91,0,0,1,.58-.42Zm-.79.07v.06a.78.78,0,0,0,0,.16,1,1,0,0,0,.3.72l0,0,.32-.44.11-.15.08-.12Zm.3.83a.91.91,0,0,1-.23-.61s0-.06,0-.09l.4.13.19.07Zm-.3-.83v.06a.78.78,0,0,0,0,.16,1,1,0,0,0,.3.72l0,0,.32-.44.11-.15.08-.12Zm.3.83a.91.91,0,0,1-.23-.61s0-.06,0-.09l.4.13.19.07Zm.53-1.61a1,1,0,0,0-.74.53l0,.05.51.16.19.06.13.05v-.86Zm0,.71-.58-.19a.91.91,0,0,1,.58-.42Zm.21.15a.14.14,0,1,0,0,.28.14.14,0,1,0,0-.28Zm.2.59-.2-.27-.51.71L16,24a.9.9,0,0,0,.46.11,1.11,1.11,0,0,0,.46-.11l.05,0Zm-.57.4.37-.5.36.5A.93.93,0,0,1,16.06,24Zm1.27-1.32a1,1,0,0,0-.73-.53l-.06,0V23l.82-.27Zm-.7.18V22.2a1,1,0,0,1,.59.42Zm.81.13,0-.05-.81.26.5.71.05,0a1,1,0,0,0,.29-.72C17.45,23.05,17.44,23,17.44,22.94Zm-.31.77-.36-.49h0l.59-.19v.08A.9.9,0,0,1,17.13,23.71Zm-.5-.16-.2-.27-.51.71L16,24a.9.9,0,0,0,.46.11,1.11,1.11,0,0,0,.46-.11l.05,0Zm-.57.4.37-.5.36.5A.93.93,0,0,1,16.06,24Zm1.38-1,0-.05-.81.26.5.71.05,0a1,1,0,0,0,.29-.72C17.45,23.05,17.44,23,17.44,22.94Zm-.31.77-.36-.49h0l.59-.19v.08A.9.9,0,0,1,17.13,23.71Zm-1.7-.83v.06a.78.78,0,0,0,0,.16,1,1,0,0,0,.3.72l0,0,.32-.44.11-.15.08-.12Zm.3.83a.91.91,0,0,1-.23-.61s0-.06,0-.09l.4.13.19.07Zm.7-.75a.14.14,0,1,0,0,.28.14.14,0,1,0,0-.28Zm.9-.33a1,1,0,0,0-.73-.53l-.06,0V23l.82-.27Zm-.7.18V22.2a1,1,0,0,1,.59.42Zm-.37-.71a1,1,0,0,0-.74.53l0,.05.51.16.19.06.13.05v-.86Zm0,.71-.58-.19a.91.91,0,0,1,.58-.42Z"/><path class="cls-2" d="M15.74,23.86l0,0a1,1,0,0,1-.29-.72.81.81,0,0,1,0-.16v-.06l.82.27-.08.12-.12.15ZM15.51,23a.28.28,0,0,0,0,.09.91.91,0,0,0,.23.61l.37-.51-.19-.06Z"/><path class="cls-2" d="M16.32,23l-.14,0L16,22.84l-.51-.16,0-.05a1.06,1.06,0,0,1,.75-.54h.05Zm-.68-.33.58.2V22.2A.94.94,0,0,0,15.64,22.62Z"/><path class="cls-2" d="M16.43,24.12A.9.9,0,0,1,16,24l-.05,0,.51-.71.2.27.31.44-.05,0A1,1,0,0,1,16.43,24.12ZM16.06,24a.93.93,0,0,0,.73,0l-.36-.5Z"/><path class="cls-2" d="M16.54,23v-.86h.05a1,1,0,0,1,.74.54l0,.05Zm.1-.75v.61l.58-.19A1,1,0,0,0,16.64,22.2Z"/><path class="cls-2" d="M17.12,23.86l-.51-.71.81-.26v.05a1,1,0,0,1,0,.16,1,1,0,0,1-.29.72Zm-.36-.66v0l.36.49a1,1,0,0,0,.22-.61V23Z"/><path class="cls-2" d="M15.74,23.86l0,0a1,1,0,0,1-.29-.72.81.81,0,0,1,0-.16v-.06l.82.27-.08.12-.12.15ZM15.51,23a.28.28,0,0,0,0,.09.91.91,0,0,0,.23.61l.37-.51-.19-.06Z"/><path class="cls-2" d="M16.32,23l-.14,0L16,22.84l-.51-.16,0-.05a1.06,1.06,0,0,1,.75-.54h.05Zm-.68-.33.58.2V22.2A.94.94,0,0,0,15.64,22.62Z"/><path class="cls-2" d="M16.43,24.12A.9.9,0,0,1,16,24l-.05,0,.51-.71.2.27.31.44-.05,0A1,1,0,0,1,16.43,24.12ZM16.06,24a.93.93,0,0,0,.73,0l-.36-.5Z"/><path class="cls-2" d="M16.54,23v-.86h.05a1,1,0,0,1,.74.54l0,.05Zm.1-.75v.61l.58-.19A1,1,0,0,0,16.64,22.2Z"/><path class="cls-2" d="M17.12,23.86l-.51-.71.81-.26v.05a1,1,0,0,1,0,.16,1,1,0,0,1-.29.72Zm-.36-.66v0l.36.49a1,1,0,0,0,.22-.61V23Z"/><path class="cls-2" d="M27.81,24.47a1.37,1.37,0,1,1,1.38-1.37A1.37,1.37,0,0,1,27.81,24.47Zm0-2.65a1.28,1.28,0,1,0,1.28,1.28A1.28,1.28,0,0,0,27.81,21.82Zm0,2.3a.92.92,0,0,1-.46-.11l-.05,0,.51-.71.2.27.31.44-.05,0A.92.92,0,0,1,27.81,24.12ZM27.45,24a.93.93,0,0,0,.73,0l-.37-.5Zm1.05-.09L28,23.15l.82-.26v.05a.92.92,0,0,1,0,.16,1,1,0,0,1-.29.72Zm-.36-.66v0l.36.49a.91.91,0,0,0,.23-.61s0-.06,0-.08Zm-1,.66,0,0a1,1,0,0,1-.3-.72.81.81,0,0,1,0-.16v-.06l.83.27-.08.12-.12.15ZM26.89,23v.09a.91.91,0,0,0,.23.61l.36-.51-.19-.06Zm.92.23a.14.14,0,0,1,0-.28.14.14,0,1,1,0,.28Zm.11-.29v-.86H28a1,1,0,0,1,.74.54l0,.05Zm.1-.75v.61l.58-.19A1,1,0,0,0,28,22.2Zm-.31.75-.14,0-.19-.07-.5-.16,0-.05a1,1,0,0,1,.74-.54h.06ZM27,22.62l.59.2V22.2A1,1,0,0,0,27,22.62Z"/><path class="cls-2" d="M27.13,23.86l0,0a1,1,0,0,1-.3-.72.81.81,0,0,1,0-.16v-.06l.83.27-.08.12-.12.15ZM26.89,23v.09a.91.91,0,0,0,.23.61l.36-.51-.19-.06Z"/><path class="cls-2" d="M27.71,23l-.14,0-.19-.07-.5-.16,0-.05a1,1,0,0,1,.74-.54h.06ZM27,22.62l.59.2V22.2A1,1,0,0,0,27,22.62Z"/><path class="cls-2" d="M27.81,24.12a.92.92,0,0,1-.46-.11l-.05,0,.51-.71.2.27.31.44-.05,0A.92.92,0,0,1,27.81,24.12ZM27.45,24a.93.93,0,0,0,.73,0l-.37-.5Z"/><path class="cls-2" d="M27.92,23v-.86H28a1,1,0,0,1,.74.54l0,.05Zm.1-.75v.61l.58-.19A1,1,0,0,0,28,22.2Z"/><path class="cls-2" d="M28.5,23.86,28,23.15l.82-.26v.05a.92.92,0,0,1,0,.16,1,1,0,0,1-.29.72Zm-.36-.66v0l.36.49a.91.91,0,0,0,.23-.61s0-.06,0-.08Z"/><path class="cls-2" d="M27.13,23.86l0,0a1,1,0,0,1-.3-.72.81.81,0,0,1,0-.16v-.06l.83.27-.08.12-.12.15ZM26.89,23v.09a.91.91,0,0,0,.23.61l.36-.51-.19-.06Z"/><path class="cls-2" d="M27.71,23l-.14,0-.19-.07-.5-.16,0-.05a1,1,0,0,1,.74-.54h.06ZM27,22.62l.59.2V22.2A1,1,0,0,0,27,22.62Z"/><path class="cls-2" d="M27.81,24.12a.92.92,0,0,1-.46-.11l-.05,0,.51-.71.2.27.31.44-.05,0A.92.92,0,0,1,27.81,24.12ZM27.45,24a.93.93,0,0,0,.73,0l-.37-.5Z"/><path class="cls-2" d="M27.92,23v-.86H28a1,1,0,0,1,.74.54l0,.05Zm.1-.75v.61l.58-.19A1,1,0,0,0,28,22.2Z"/><path class="cls-2" d="M28.5,23.86,28,23.15l.82-.26v.05a.92.92,0,0,1,0,.16,1,1,0,0,1-.29.72Zm-.36-.66v0l.36.49a.91.91,0,0,0,.23-.61s0-.06,0-.08Z"/><path class="cls-2" d="M11.84,15.27V19h3.89l.85,2.91L16.86,19h1.28V15.27Zm.52,1.33h3.48V17H12.36Zm3.87,1.75H12.36V18h3.87Zm.34-.68H12.36v-.39h4.21Zm.5-1.37H12.36v-.39h4.71Z"/><rect class="cls-2" x="25.44" y="15.96" width="1.02" height="1.75"/><rect class="cls-2" x="26.97" y="15.74" width="1.02" height="1.98"/><rect class="cls-2" x="28.5" y="16.25" width="1.02" height="1.47"/><rect class="cls-2" x="30.04" y="15.23" width="1.02" height="2.49"/><path class="cls-2" d="M29,15.94l-.08,0-1.47-.69L26,15.58h-.11l-.51-.16A.2.2,0,0,1,25.5,15l.46.15,1.48-.35a.2.2,0,0,1,.13,0l1.41.66,1.44-1.19a.21.21,0,0,1,.13-.05h.51a.2.2,0,0,1,.19.2.2.2,0,0,1-.19.19h-.44l-1.48,1.23A.21.21,0,0,1,29,15.94Z"/></g></g></g></g></svg>