<svg xmlns="http://www.w3.org/2000/svg" viewBox="0 0 42.18 42.18"><defs><style>.cls-1{fill:#29a5dc;stroke:#fff;stroke-miterlimit:10;}.cls-2{fill:#fff;}</style></defs><title>engine-off</title><g id="Слой_2" data-name="Слой 2"><g id="Контейнер"><g id="Спектр_услуг" data-name="Спектр услуг"><g id="Иконка_двигатель" data-name="Иконка двигатель"><circle class="cls-1" cx="21.09" cy="21.09" r="20.59"/><path class="cls-2" d="M16.56,19.18a.24.24,0,0,1-.24.24.24.24,0,0,1,0-.48A.24.24,0,0,1,16.56,19.18Z"/><path class="cls-2" d="M24.46,21.55a.68.68,0,0,0-.69.68.69.69,0,1,0,1.38,0A.68.68,0,0,0,24.46,21.55Zm0,0a.68.68,0,0,0-.69.68.69.69,0,1,0,1.38,0A.68.68,0,0,0,24.46,21.55Zm-1.85,4.18A4,4,0,0,1,22,19.11l-3.11-.68a2.67,2.67,0,0,1,.11.75,2.71,2.71,0,0,1-2.71,2.71,2.12,2.12,0,0,1-.44,0l.88,2.94a2.3,2.3,0,0,1,3.7,1.82h0Zm-4.44.76a.12.12,0,0,0-.12.12.11.11,0,0,0,.12.11.11.11,0,0,0,.11-.11A.11.11,0,0,0,18.17,26.49Zm6.29-4.94a.68.68,0,0,0-.69.68.69.69,0,1,0,1.38,0A.68.68,0,0,0,24.46,21.55Zm0,0a.68.68,0,0,0-.69.68.69.69,0,1,0,1.38,0A.68.68,0,0,0,24.46,21.55Zm-1.85,4.18A4,4,0,0,1,22,19.11l-3.11-.68a2.67,2.67,0,0,1,.11.75,2.71,2.71,0,0,1-2.71,2.71,2.12,2.12,0,0,1-.44,0l.88,2.94a2.3,2.3,0,0,1,3.7,1.82h0Zm-4.44.76a.12.12,0,0,0-.12.12.11.11,0,0,0,.12.11.11.11,0,0,0,.11-.11A.11.11,0,0,0,18.17,26.49Zm0,0a.12.12,0,0,0-.12.12.11.11,0,0,0,.12.11.11.11,0,0,0,.11-.11A.11.11,0,0,0,18.17,26.49Zm4.44-.76A4,4,0,0,1,22,19.11l-3.11-.68a2.67,2.67,0,0,1,.11.75,2.71,2.71,0,0,1-2.71,2.71,2.12,2.12,0,0,1-.44,0l.88,2.94a2.3,2.3,0,0,1,3.7,1.82h0Zm1.85-4.18a.68.68,0,0,0-.69.68.69.69,0,1,0,1.38,0A.68.68,0,0,0,24.46,21.55Zm0,0a.68.68,0,0,0-.69.68.69.69,0,1,0,1.38,0A.68.68,0,0,0,24.46,21.55Zm-1.85,4.18A4,4,0,0,1,22,19.11l-3.11-.68a2.67,2.67,0,0,1,.11.75,2.71,2.71,0,0,1-2.71,2.71,2.12,2.12,0,0,1-.44,0l.88,2.94a2.3,2.3,0,0,1,3.7,1.82h0Zm-4.44.76a.12.12,0,0,0-.12.12.11.11,0,0,0,.12.11.11.11,0,0,0,.11-.11A.11.11,0,0,0,18.17,26.49Zm0,0a.12.12,0,0,0-.12.12.11.11,0,0,0,.12.11.11.11,0,0,0,.11-.11A.11.11,0,0,0,18.17,26.49Zm4.44-.76A4,4,0,0,1,22,19.11l-3.11-.68a2.67,2.67,0,0,1,.11.75,2.71,2.71,0,0,1-2.71,2.71,2.12,2.12,0,0,1-.44,0l.88,2.94a2.3,2.3,0,0,1,3.7,1.82h0Zm1.85-4.18a.68.68,0,0,0-.69.68.69.69,0,1,0,1.38,0A.68.68,0,0,0,24.46,21.55Zm-.4-7-.38-.26,0,0H18.46l0,0-.48.33-3,2,0,.05a2.66,2.66,0,0,1,1.23-.3,2.63,2.63,0,0,1,1.16.26l7.11,1.55a4,4,0,0,1,1.32,7.64l-.09,0-1.68.62-4.63,1.88a2.22,2.22,0,0,1-1.34.44,2.3,2.3,0,0,1-2.3-2.29v-.08L14.15,20.8a2.69,2.69,0,0,1,.27-3.54l0-.06L11.3,19.33l2,5.16,3.26,8.34h9l3.26-8.34,2-5.16h0Zm1.09,7.63a.69.69,0,0,0-1.38,0,.69.69,0,1,0,1.38,0Zm-8.83-.34a2.12,2.12,0,0,1-.44,0l.88,2.94a2.3,2.3,0,0,1,3.7,1.82h0l2.15-.88A4,4,0,0,1,22,19.11l-3.11-.68a2.67,2.67,0,0,1,.11.75A2.71,2.71,0,0,1,16.32,21.89Zm1.73,4.72a.11.11,0,0,0,.12.11.11.11,0,0,0,.11-.11.11.11,0,0,0-.11-.12A.12.12,0,0,0,18.05,26.61Zm6.41-5.06a.68.68,0,0,0-.69.68.69.69,0,1,0,1.38,0A.68.68,0,0,0,24.46,21.55Zm-1.85,4.18A4,4,0,0,1,22,19.11l-3.11-.68a2.67,2.67,0,0,1,.11.75,2.71,2.71,0,0,1-2.71,2.71,2.12,2.12,0,0,1-.44,0l.88,2.94a2.3,2.3,0,0,1,3.7,1.82h0Zm-4.44.76a.12.12,0,0,0-.12.12.11.11,0,0,0,.12.11.11.11,0,0,0,.11-.11A.11.11,0,0,0,18.17,26.49Zm0,0a.12.12,0,0,0-.12.12.11.11,0,0,0,.12.11.11.11,0,0,0,.11-.11A.11.11,0,0,0,18.17,26.49Zm4.44-.76A4,4,0,0,1,22,19.11l-3.11-.68a2.67,2.67,0,0,1,.11.75,2.71,2.71,0,0,1-2.71,2.71,2.12,2.12,0,0,1-.44,0l.88,2.94a2.3,2.3,0,0,1,3.7,1.82h0Zm1.85-4.18a.68.68,0,0,0-.69.68.69.69,0,1,0,1.38,0A.68.68,0,0,0,24.46,21.55Zm0,0a.68.68,0,0,0-.69.68.69.69,0,1,0,1.38,0A.68.68,0,0,0,24.46,21.55Zm-1.85,4.18A4,4,0,0,1,22,19.11l-3.11-.68a2.67,2.67,0,0,1,.11.75,2.71,2.71,0,0,1-2.71,2.71,2.12,2.12,0,0,1-.44,0l.88,2.94a2.3,2.3,0,0,1,3.7,1.82h0Zm-4.44.76a.12.12,0,0,0-.12.12.11.11,0,0,0,.12.11.11.11,0,0,0,.11-.11A.11.11,0,0,0,18.17,26.49Zm4.44-.76A4,4,0,0,1,22,19.11l-3.11-.68a2.67,2.67,0,0,1,.11.75,2.71,2.71,0,0,1-2.71,2.71,2.12,2.12,0,0,1-.44,0l.88,2.94a2.3,2.3,0,0,1,3.7,1.82h0Zm1.85-4.18a.68.68,0,0,0-.69.68.69.69,0,1,0,1.38,0A.68.68,0,0,0,24.46,21.55Zm0,0a.68.68,0,0,0-.69.68.69.69,0,1,0,1.38,0A.68.68,0,0,0,24.46,21.55Zm-1.85,4.18A4,4,0,0,1,22,19.11l-3.11-.68a2.67,2.67,0,0,1,.11.75,2.71,2.71,0,0,1-2.71,2.71,2.12,2.12,0,0,1-.44,0l.88,2.94a2.3,2.3,0,0,1,3.7,1.82h0Zm1.85-4.18a.68.68,0,0,0-.69.68.69.69,0,1,0,1.38,0A.68.68,0,0,0,24.46,21.55Zm0,0a.68.68,0,0,0-.69.68.69.69,0,1,0,1.38,0A.68.68,0,0,0,24.46,21.55Zm-6.29,4.94a.12.12,0,0,0-.12.12.11.11,0,0,0,.12.11.11.11,0,0,0,.11-.11A.11.11,0,0,0,18.17,26.49Zm4.44-.76A4,4,0,0,1,22,19.11l-3.11-.68a2.67,2.67,0,0,1,.11.75,2.71,2.71,0,0,1-2.71,2.71,2.12,2.12,0,0,1-.44,0l.88,2.94a2.3,2.3,0,0,1,3.7,1.82h0Zm1.85-4.18a.68.68,0,0,0-.69.68.69.69,0,1,0,1.38,0A.68.68,0,0,0,24.46,21.55Z"/><path class="cls-2" d="M24,26.16,20.18,27.7a2,2,0,0,0,.21-.57h0L23.2,26A3.76,3.76,0,0,0,24,26.16Z"/><path class="cls-2" d="M23.27,18.46a4,4,0,0,0-.71.31h0l-3.84-.84a2.94,2.94,0,0,0-.37-.55Z"/><path class="cls-2" d="M16.4,25.14a2.29,2.29,0,0,0-.32.51l-1.27-4.22a2,2,0,0,0,.56.28Z"/><path class="cls-2" d="M24.46,18.73a3.51,3.51,0,1,0,3.5,3.5A3.5,3.5,0,0,0,24.46,18.73Zm0,4.64a1.14,1.14,0,1,1,1.14-1.14A1.14,1.14,0,0,1,24.46,23.37Z"/><path class="cls-2" d="M16.32,16.92a2.26,2.26,0,1,0,2.26,2.26A2.26,2.26,0,0,0,16.32,16.92Zm0,2.95a.69.69,0,1,1,.69-.69A.69.69,0,0,1,16.32,19.87Z"/><path class="cls-2" d="M18.17,24.76A1.85,1.85,0,1,0,20,26.61,1.85,1.85,0,0,0,18.17,24.76Zm0,2.42a.57.57,0,0,1-.57-.57.57.57,0,1,1,.57.57Z"/><path class="cls-2" d="M15.25,9.34v3.25H26.93V9.34Zm.61,3h-.34V9.65h.34Zm.64,0h-.35V9.65h.35Zm.63,0h-.34V9.65h.34Zm.64,0h-.35V9.65h.35Zm.64,0h-.35V9.65h.35Zm.63,0h-.35V9.65H19Zm.64,0h-.35V9.65h.35Zm.64,0H20V9.65h.35Zm.63,0H20.6V9.65H21Zm.64,0h-.35V9.65h.35Zm.64,0h-.35V9.65h.35Zm.63,0h-.35V9.65h.35Zm.64,0h-.35V9.65h.35Zm.63,0h-.34V9.65h.34Zm.64,0h-.35V9.65h.35Zm.64,0h-.35V9.65h.35Zm.63,0h-.35V9.65H26Zm.64,0h-.35V9.65h.35Z"/><rect class="cls-2" x="18.09" y="12.94" width="6" height="0.87"/><path class="cls-2" d="M17.87,14.23l-.1.07-6.64,4.6L8.41,20.79,8.08,21,6.93,19.35a1.8,1.8,0,0,1,.46-2.52l6.83-4.71a1.67,1.67,0,0,1,.58-.26V13h2.25Z"/><path class="cls-2" d="M12.84,24.49h-2c-.53,0-.73-.59-.73-.59L8.63,21.18l2.29-1.59Z"/><path class="cls-2" d="M35.25,19.35,34.1,21l-.34-.23L31,18.9l-6.63-4.6-.1-.07L25.13,13h2.25V11.86a1.67,1.67,0,0,1,.58.26l6.83,4.71A1.81,1.81,0,0,1,35.25,19.35Z"/><path class="cls-2" d="M33.54,21.19,32,23.9a.87.87,0,0,1-.74.59h-2l1.91-4.89Z"/></g></g></g></g></svg>