<svg xmlns="http://www.w3.org/2000/svg" viewBox="0 0 42.18 42.18"><defs><style>.cls-1{fill:#29a5dc;stroke:#fff;stroke-miterlimit:10;}.cls-2{fill:#fff;}</style></defs><title>oil-off</title><g id="Слой_2" data-name="Слой 2"><g id="Контейнер"><g id="Спектр_услуг" data-name="Спектр услуг"><g id="Масло"><circle class="cls-1" cx="21.09" cy="21.09" r="20.59"/><path class="cls-2" d="M30,19.94l-.06-.07h0l-7-8.47-.19-.24a.79.79,0,0,0-.52-.19H19.77v-.59H16V11H14a.81.81,0,0,0-.81.81V32.43a.8.8,0,0,0,.81.8H29.32a.8.8,0,0,0,.81-.8v-12A.75.75,0,0,0,30,19.94Zm-2.6,10.69H15.68V22.1H27.36ZM23.47,19.78,23,14l4.51,5.65.25.32Z"/><path class="cls-2" d="M22.9,11.39l-.19-.24A.88.88,0,0,1,22.9,11.39Z"/><rect class="cls-2" x="15.68" y="8.24" width="4.41" height="1.73"/><path class="cls-2" d="M23.33,26.33l0,0-1.63-2.92-1.74,3.08a1.93,1.93,0,0,0-.25,1,2,2,0,0,0,4,0A2,2,0,0,0,23.33,26.33Zm-2.07,2.45c-.14.18-.41,0-.57-.07s-.57-.41-.54-.68.43-.12.65.06S21.32,28.7,21.26,28.78Z"/></g></g></g></g></svg>