<svg xmlns="http://www.w3.org/2000/svg" viewBox="0 0 42.18 42.18"><defs><style>.cls-1{fill:#29a5dc;stroke:#fff;stroke-miterlimit:10;}.cls-2{fill:#fff;}</style></defs><title>power-off</title><g id="Слой_2" data-name="Слой 2"><g id="Контейнер"><g id="Спектр_услуг" data-name="Спектр услуг"><g id="Питание"><circle class="cls-1" cx="21.09" cy="21.09" r="20.59"/><path class="cls-2" d="M10.66,16.44V30h21.2V16.44ZM17,22H15.48v1.56H14.35V22H12.79V20.84h1.56V19.28h1.13v1.56H17Zm2.72,2.87L21.21,22H19.76l3-3.47-1.11,2.62,1.36,0Zm10-2.87H25.52V20.84h4.25Z"/><rect class="cls-2" x="9.6" y="13.98" width="23.08" height="1.62"/><path class="cls-2" d="M14.91,12v1.4H12.44V12a1.24,1.24,0,0,1,1.24-1.23,1.21,1.21,0,0,1,.87.36A1.23,1.23,0,0,1,14.91,12Z"/><path class="cls-2" d="M29.77,12v1.4H27.31V12a1.23,1.23,0,0,1,1.23-1.23A1.23,1.23,0,0,1,29.77,12Z"/></g></g></g></g></svg>