<svg xmlns="http://www.w3.org/2000/svg" viewBox="0 0 42.18 42.18"><defs><style>.cls-1{fill:#29a5dc;stroke:#fff;stroke-miterlimit:10;}.cls-2{fill:#fff;}</style></defs><title>transmision-off</title><g id="Слой_2" data-name="Слой 2"><g id="Контейнер"><g id="Спектр_услуг" data-name="Спектр услуг"><g id="Иконка_трансмисия" data-name="Иконка трансмисия"><circle class="cls-1" cx="21.09" cy="21.09" r="20.59"/><polygon class="cls-2" points="20.9 24.93 20.9 24.93 20.9 25.9 20.34 25.9 20.9 24.93"/><path class="cls-2" d="M25.44,14.81a1.85,1.85,0,0,0-.55,3.62v2.19H21.34V18.43a1.86,1.86,0,1,0-1.1,0v2.19H16.69V18.43a1.86,1.86,0,1,0-1.1,0v5.49a1.85,1.85,0,1,0,1.1,0v-2.2h3.55v2.2a1.85,1.85,0,1,0,1.1,0v-2.2H26V18.43a1.85,1.85,0,0,0-.55-3.62Zm-8.74,10a.54.54,0,0,1,.05.22,1.23,1.23,0,0,1,0,.2.79.79,0,0,1-.09.22,2.26,2.26,0,0,1-.17.26l-.3.32-.25.26h.87s0,0,0,0,0,0,0,.05v.16s0,0,0,.06,0,0,0,0H15.48s0,0,0,0,0,0,0,0v-.19a.19.19,0,0,1,0-.07l0-.06s0,0,0-.06l.38-.39a2.25,2.25,0,0,0,.17-.21l.11-.17a.88.88,0,0,0,0-.15s0-.08,0-.12,0-.07,0-.11L16.16,25l-.08-.06-.12,0a.43.43,0,0,0-.17,0l-.14,0-.09.06a.08.08,0,0,1-.06,0h0a.05.05,0,0,1,0,0,.35.35,0,0,1,0-.06v-.16s0,0,0,0,0,0,0,0a.05.05,0,0,1,0,0l.07-.05.14-.06.18,0a.63.63,0,0,1,.19,0,.79.79,0,0,1,.29.05.42.42,0,0,1,.21.11A.36.36,0,0,1,16.7,24.86Zm-1.13-7.18h0l0,0s0,0,0-.05v-.16a.08.08,0,0,1,0-.05l0,0H16V16l-.34.19-.07,0h0a.08.08,0,0,1,0-.05.22.22,0,0,1,0-.09V16s0,0,0,0,0,0,0,0l0,0,.46-.29h.37a0,0,0,0,1,0,0v1.75h.37l0,0a.11.11,0,0,0,0,.05v.08a.19.19,0,0,1,0,.08.07.07,0,0,1,0,.05l0,0h-1.2ZM21.5,25.9a.07.07,0,0,1,.05,0,.41.41,0,0,1,0,.14.37.37,0,0,1,0,.12s0,.05-.05.05h-.18v.38s0,0,0,0,0,0,0,0h-.33s0,0,0,0,0,0,0,0v-.38h-.85s0,0,0,0a.14.14,0,0,1,0-.06s0-.07,0-.11S20,26,20,26v-.07s0,0,0-.06l0-.06.66-1.16a0,0,0,0,1,0,0l.06,0,.09,0h.27l.1,0,.05,0s0,0,0,0V25.9Zm-.24-8.36a.75.75,0,0,1-.25.13,1.22,1.22,0,0,1-.34,0h-.2l-.17,0a.33.33,0,0,1-.12-.05.15.15,0,0,1-.06,0l0,0a.08.08,0,0,1,0,0,.13.13,0,0,1,0-.06.19.19,0,0,1,0-.08.27.27,0,0,1,0-.11s0,0,0,0l.05,0,.11.05.14.05.19,0,.16,0,.12-.06a.23.23,0,0,0,.07-.1.21.21,0,0,0,0-.12.28.28,0,0,0,0-.13.19.19,0,0,0-.08-.1.46.46,0,0,0-.14-.07l-.21,0h-.22a0,0,0,0,1,0,0,.43.43,0,0,1,0,0,.19.19,0,0,1,0-.08.17.17,0,0,1,0-.08.43.43,0,0,1,0-.05,0,0,0,0,1,0,0h.22l.17,0a.34.34,0,0,0,.12-.06.25.25,0,0,0,.08-.1.28.28,0,0,0,0-.13.3.3,0,0,0,0-.1.26.26,0,0,0-.05-.09l-.09,0a.32.32,0,0,0-.14,0l-.16,0-.13.06-.1.05-.07,0h0v0s0,0,0-.05V15.8a.43.43,0,0,1,0-.05v0l0,0,.07,0a.31.31,0,0,1,.13-.06.48.48,0,0,1,.18-.05.78.78,0,0,1,.22,0,1.1,1.1,0,0,1,.27,0,.54.54,0,0,1,.2.1.33.33,0,0,1,.12.17.54.54,0,0,1,0,.22.5.5,0,0,1,0,.18.52.52,0,0,1-.07.15.34.34,0,0,1-.12.12.43.43,0,0,1-.17.06h0a.73.73,0,0,1,.21.06.42.42,0,0,1,.15.11.38.38,0,0,1,.09.15.47.47,0,0,1,0,.17.61.61,0,0,1-.06.28A.44.44,0,0,1,21.26,17.54Zm4.84-.25a.66.66,0,0,1-.17.23.77.77,0,0,1-.27.14.9.9,0,0,1-.34.05h-.18l-.16,0-.12,0-.06,0,0,0a0,0,0,0,0,0,0v-.05s0,0,0-.07,0-.06,0-.09a.11.11,0,0,1,0,0v0h0a.06.06,0,0,1,.05,0l.09,0,.13,0,.19,0,.18,0a.33.33,0,0,0,.13-.07.27.27,0,0,0,.08-.1.41.41,0,0,0,0-.16.32.32,0,0,0,0-.14.26.26,0,0,0-.07-.11.45.45,0,0,0-.14-.06l-.2,0h-.32l-.07,0s0-.05,0-.09v-.93a.12.12,0,0,1,0-.09s0,0,.08,0h1l0,0s0,0,0,.06v.09a.46.46,0,0,1,0,.14s0,0-.05,0h-.75v.45h.23a1.06,1.06,0,0,1,.31.05.51.51,0,0,1,.22.11.56.56,0,0,1,.14.2.72.72,0,0,1,.05.27A.73.73,0,0,1,26.1,17.29Z"/><path class="cls-2" d="M20.78,8.28a12.89,12.89,0,1,0,12.9,12.89A12.89,12.89,0,0,0,20.78,8.28Zm8.13,18.45a2.57,2.57,0,0,1-2.57,2.57H15.22a2.57,2.57,0,0,1-2.56-2.57V15.61a2.56,2.56,0,0,1,2.56-2.56H26.34a2.57,2.57,0,0,1,2.57,2.56Z"/><polygon class="cls-2" points="20.9 24.93 20.9 24.93 20.9 25.9 20.34 25.9 20.9 24.93"/><path class="cls-2" d="M25.44,14.81a1.85,1.85,0,0,0-.55,3.62v2.19H21.34V18.43a1.86,1.86,0,1,0-1.1,0v2.19H16.69V18.43a1.86,1.86,0,1,0-1.1,0v5.49a1.85,1.85,0,1,0,1.1,0v-2.2h3.55v2.2a1.85,1.85,0,1,0,1.1,0v-2.2H26V18.43a1.85,1.85,0,0,0-.55-3.62Zm-8.74,10a.54.54,0,0,1,.05.22,1.23,1.23,0,0,1,0,.2.79.79,0,0,1-.09.22,2.26,2.26,0,0,1-.17.26l-.3.32-.25.26h.87s0,0,0,0,0,0,0,.05v.16s0,0,0,.06,0,0,0,0H15.48s0,0,0,0,0,0,0,0v-.19a.19.19,0,0,1,0-.07l0-.06s0,0,0-.06l.38-.39a2.25,2.25,0,0,0,.17-.21l.11-.17a.88.88,0,0,0,0-.15s0-.08,0-.12,0-.07,0-.11L16.16,25l-.08-.06-.12,0a.43.43,0,0,0-.17,0l-.14,0-.09.06a.08.08,0,0,1-.06,0h0a.05.05,0,0,1,0,0,.35.35,0,0,1,0-.06v-.16s0,0,0,0,0,0,0,0a.05.05,0,0,1,0,0l.07-.05.14-.06.18,0a.63.63,0,0,1,.19,0,.79.79,0,0,1,.29.05.42.42,0,0,1,.21.11A.36.36,0,0,1,16.7,24.86Zm-1.13-7.18h0l0,0s0,0,0-.05v-.16a.08.08,0,0,1,0-.05l0,0H16V16l-.34.19-.07,0h0a.08.08,0,0,1,0-.05.22.22,0,0,1,0-.09V16s0,0,0,0,0,0,0,0l0,0,.46-.29h.37a0,0,0,0,1,0,0v1.75h.37l0,0a.11.11,0,0,0,0,.05v.08a.19.19,0,0,1,0,.08.07.07,0,0,1,0,.05l0,0h-1.2ZM21.5,25.9a.07.07,0,0,1,.05,0,.41.41,0,0,1,0,.14.37.37,0,0,1,0,.12s0,.05-.05.05h-.18v.38s0,0,0,0,0,0,0,0h-.33s0,0,0,0,0,0,0,0v-.38h-.85s0,0,0,0a.14.14,0,0,1,0-.06s0-.07,0-.11S20,26,20,26v-.07s0,0,0-.06l0-.06.66-1.16a0,0,0,0,1,0,0l.06,0,.09,0h.27l.1,0,.05,0s0,0,0,0V25.9Zm-.24-8.36a.75.75,0,0,1-.25.13,1.22,1.22,0,0,1-.34,0h-.2l-.17,0a.33.33,0,0,1-.12-.05.15.15,0,0,1-.06,0l0,0a.08.08,0,0,1,0,0,.13.13,0,0,1,0-.06.19.19,0,0,1,0-.08.27.27,0,0,1,0-.11s0,0,0,0l.05,0,.11.05.14.05.19,0,.16,0,.12-.06a.23.23,0,0,0,.07-.1.21.21,0,0,0,0-.12.28.28,0,0,0,0-.13.19.19,0,0,0-.08-.1.46.46,0,0,0-.14-.07l-.21,0h-.22a0,0,0,0,1,0,0,.43.43,0,0,1,0,0,.19.19,0,0,1,0-.08.17.17,0,0,1,0-.08.43.43,0,0,1,0-.05,0,0,0,0,1,0,0h.22l.17,0a.34.34,0,0,0,.12-.06.25.25,0,0,0,.08-.1.28.28,0,0,0,0-.13.3.3,0,0,0,0-.1.26.26,0,0,0-.05-.09l-.09,0a.32.32,0,0,0-.14,0l-.16,0-.13.06-.1.05-.07,0h0v0s0,0,0-.05V15.8a.43.43,0,0,1,0-.05v0l0,0,.07,0a.31.31,0,0,1,.13-.06.48.48,0,0,1,.18-.05.78.78,0,0,1,.22,0,1.1,1.1,0,0,1,.27,0,.54.54,0,0,1,.2.1.33.33,0,0,1,.12.17.54.54,0,0,1,0,.22.5.5,0,0,1,0,.18.52.52,0,0,1-.07.15.34.34,0,0,1-.12.12.43.43,0,0,1-.17.06h0a.73.73,0,0,1,.21.06.42.42,0,0,1,.15.11.38.38,0,0,1,.09.15.47.47,0,0,1,0,.17.61.61,0,0,1-.06.28A.44.44,0,0,1,21.26,17.54Zm4.84-.25a.66.66,0,0,1-.17.23.77.77,0,0,1-.27.14.9.9,0,0,1-.34.05h-.18l-.16,0-.12,0-.06,0,0,0a0,0,0,0,0,0,0v-.05s0,0,0-.07,0-.06,0-.09a.11.11,0,0,1,0,0v0h0a.06.06,0,0,1,.05,0l.09,0,.13,0,.19,0,.18,0a.33.33,0,0,0,.13-.07.27.27,0,0,0,.08-.1.41.41,0,0,0,0-.16.32.32,0,0,0,0-.14.26.26,0,0,0-.07-.11.45.45,0,0,0-.14-.06l-.2,0h-.32l-.07,0s0-.05,0-.09v-.93a.12.12,0,0,1,0-.09s0,0,.08,0h1l0,0s0,0,0,.06v.09a.46.46,0,0,1,0,.14s0,0-.05,0h-.75v.45h.23a1.06,1.06,0,0,1,.31.05.51.51,0,0,1,.22.11.56.56,0,0,1,.14.2.72.72,0,0,1,.05.27A.73.73,0,0,1,26.1,17.29Z"/><polygon class="cls-2" points="20.9 24.93 20.9 24.93 20.9 25.9 20.34 25.9 20.9 24.93"/><path class="cls-2" d="M25.44,14.81a1.85,1.85,0,0,0-.55,3.62v2.19H21.34V18.43a1.86,1.86,0,1,0-1.1,0v2.19H16.69V18.43a1.86,1.86,0,1,0-1.1,0v5.49a1.85,1.85,0,1,0,1.1,0v-2.2h3.55v2.2a1.85,1.85,0,1,0,1.1,0v-2.2H26V18.43a1.85,1.85,0,0,0-.55-3.62Zm-8.74,10a.54.54,0,0,1,.05.22,1.23,1.23,0,0,1,0,.2.79.79,0,0,1-.09.22,2.26,2.26,0,0,1-.17.26l-.3.32-.25.26h.87s0,0,0,0,0,0,0,.05v.16s0,0,0,.06,0,0,0,0H15.48s0,0,0,0,0,0,0,0v-.19a.19.19,0,0,1,0-.07l0-.06s0,0,0-.06l.38-.39a2.25,2.25,0,0,0,.17-.21l.11-.17a.88.88,0,0,0,0-.15s0-.08,0-.12,0-.07,0-.11L16.16,25l-.08-.06-.12,0a.43.43,0,0,0-.17,0l-.14,0-.09.06a.08.08,0,0,1-.06,0h0a.05.05,0,0,1,0,0,.35.35,0,0,1,0-.06v-.16s0,0,0,0,0,0,0,0a.05.05,0,0,1,0,0l.07-.05.14-.06.18,0a.63.63,0,0,1,.19,0,.79.79,0,0,1,.29.05.42.42,0,0,1,.21.11A.36.36,0,0,1,16.7,24.86Zm-1.13-7.18h0l0,0s0,0,0-.05v-.16a.08.08,0,0,1,0-.05l0,0H16V16l-.34.19-.07,0h0a.08.08,0,0,1,0-.05.22.22,0,0,1,0-.09V16s0,0,0,0,0,0,0,0l0,0,.46-.29h.37a0,0,0,0,1,0,0v1.75h.37l0,0a.11.11,0,0,0,0,.05v.08a.19.19,0,0,1,0,.08.07.07,0,0,1,0,.05l0,0h-1.2ZM21.5,25.9a.07.07,0,0,1,.05,0,.41.41,0,0,1,0,.14.37.37,0,0,1,0,.12s0,.05-.05.05h-.18v.38s0,0,0,0,0,0,0,0h-.33s0,0,0,0,0,0,0,0v-.38h-.85s0,0,0,0a.14.14,0,0,1,0-.06s0-.07,0-.11S20,26,20,26v-.07s0,0,0-.06l0-.06.66-1.16a0,0,0,0,1,0,0l.06,0,.09,0h.27l.1,0,.05,0s0,0,0,0V25.9Zm-.24-8.36a.75.75,0,0,1-.25.13,1.22,1.22,0,0,1-.34,0h-.2l-.17,0a.33.33,0,0,1-.12-.05.15.15,0,0,1-.06,0l0,0a.08.08,0,0,1,0,0,.13.13,0,0,1,0-.06.19.19,0,0,1,0-.08.27.27,0,0,1,0-.11s0,0,0,0l.05,0,.11.05.14.05.19,0,.16,0,.12-.06a.23.23,0,0,0,.07-.1.21.21,0,0,0,0-.12.28.28,0,0,0,0-.13.19.19,0,0,0-.08-.1.46.46,0,0,0-.14-.07l-.21,0h-.22a0,0,0,0,1,0,0,.43.43,0,0,1,0,0,.19.19,0,0,1,0-.08.17.17,0,0,1,0-.08.43.43,0,0,1,0-.05,0,0,0,0,1,0,0h.22l.17,0a.34.34,0,0,0,.12-.06.25.25,0,0,0,.08-.1.28.28,0,0,0,0-.13.3.3,0,0,0,0-.1.26.26,0,0,0-.05-.09l-.09,0a.32.32,0,0,0-.14,0l-.16,0-.13.06-.1.05-.07,0h0v0s0,0,0-.05V15.8a.43.43,0,0,1,0-.05v0l0,0,.07,0a.31.31,0,0,1,.13-.06.48.48,0,0,1,.18-.05.78.78,0,0,1,.22,0,1.1,1.1,0,0,1,.27,0,.54.54,0,0,1,.2.1.33.33,0,0,1,.12.17.54.54,0,0,1,0,.22.5.5,0,0,1,0,.18.52.52,0,0,1-.07.15.34.34,0,0,1-.12.12.43.43,0,0,1-.17.06h0a.73.73,0,0,1,.21.06.42.42,0,0,1,.15.11.38.38,0,0,1,.09.15.47.47,0,0,1,0,.17.61.61,0,0,1-.06.28A.44.44,0,0,1,21.26,17.54Zm4.84-.25a.66.66,0,0,1-.17.23.77.77,0,0,1-.27.14.9.9,0,0,1-.34.05h-.18l-.16,0-.12,0-.06,0,0,0a0,0,0,0,0,0,0v-.05s0,0,0-.07,0-.06,0-.09a.11.11,0,0,1,0,0v0h0a.06.06,0,0,1,.05,0l.09,0,.13,0,.19,0,.18,0a.33.33,0,0,0,.13-.07.27.27,0,0,0,.08-.1.41.41,0,0,0,0-.16.32.32,0,0,0,0-.14.26.26,0,0,0-.07-.11.45.45,0,0,0-.14-.06l-.2,0h-.32l-.07,0s0-.05,0-.09v-.93a.12.12,0,0,1,0-.09s0,0,.08,0h1l0,0s0,0,0,.06v.09a.46.46,0,0,1,0,.14s0,0-.05,0h-.75v.45h.23a1.06,1.06,0,0,1,.31.05.51.51,0,0,1,.22.11.56.56,0,0,1,.14.2.72.72,0,0,1,.05.27A.73.73,0,0,1,26.1,17.29Z"/><path class="cls-2" d="M26.53,26.67l0-.11-.21-.49c0-.06-.05-.11-.07-.16a.83.83,0,0,1-.08-.12.94.94,0,0,0-.1-.1l-.1-.06a1.24,1.24,0,0,0,.2-.1.4.4,0,0,0,.15-.14.52.52,0,0,0,.1-.18.8.8,0,0,0,0-.23.68.68,0,0,0,0-.26,1,1,0,0,0-.13-.2.74.74,0,0,0-.21-.13,1.07,1.07,0,0,0-.27-.08h-.92a.13.13,0,0,0-.1,0,.14.14,0,0,0,0,.12v2.26s0,0,0,0l0,0h.41l0,0a0,0,0,0,0,0,0v-.95h.16l.14,0,.11.08a.36.36,0,0,1,.08.12.67.67,0,0,1,.08.17l.22.55s0,0,0,0l0,0,.08,0h.28l.08,0,0,0s0,0,0,0A.43.43,0,0,1,26.53,26.67Zm-.67-1.49a.44.44,0,0,1-.08.11.27.27,0,0,1-.13.07.58.58,0,0,1-.19,0H25.2v-.7h.36l.09,0a.29.29,0,0,1,.18.12.32.32,0,0,1,.06.2A.33.33,0,0,1,25.86,25.18Z"/></g></g></g></g></svg>