<svg xmlns="http://www.w3.org/2000/svg" viewBox="0 0 42.18 42.18"><defs><style>.cls-1{fill:#29a5dc;stroke:#fff;stroke-miterlimit:10;}.cls-2{fill:#fff;}</style></defs><title>wheels-off</title><g id="Слой_2" data-name="Слой 2"><g id="Контейнер"><g id="Спектр_услуг" data-name="Спектр услуг"><g id="Иконка_колесо" data-name="Иконка колесо"><circle class="cls-1" cx="21.09" cy="21.09" r="20.59"/><path class="cls-2" d="M21.11,8.08A13.31,13.31,0,1,0,34.37,21.44,13.31,13.31,0,0,0,21.11,8.08Zm7.71,21.25-.85.76c-.23.18-.51.38-.8.57a7.84,7.84,0,0,1-1,.6,11,11,0,0,1-5.09,1.24h0a10.69,10.69,0,0,1-5.14-1.3l-1-.6a7.63,7.63,0,0,1-.72-.52h0L14.05,30l-.77-.71,0-.05A11,11,0,0,1,10,21.34a9.56,9.56,0,0,1,.18-1.87,7.25,7.25,0,0,1,.25-1.15c.07-.24.16-.49.24-.73l.05-.14a6.42,6.42,0,0,1,.51-1.11,11.06,11.06,0,0,1,8.28-5.95,8.77,8.77,0,0,1,1.14-.1l.39,0h.12a2.74,2.74,0,0,1,.5,0,8,8,0,0,1,1.13.1,11.13,11.13,0,0,1,8.26,6,8.32,8.32,0,0,1,.47,1.09,5.15,5.15,0,0,1,.29.89A7.12,7.12,0,0,1,32,19.58a11.46,11.46,0,0,1,.16,1.84A11,11,0,0,1,28.82,29.33Z"/><path class="cls-2" d="M36,18.89a10.76,10.76,0,0,0-.35-1.57,7.46,7.46,0,0,0-.4-1.21,12,12,0,0,0-.63-1.47A15.2,15.2,0,0,0,23.36,6.42a12.38,12.38,0,0,0-1.59-.15c-.22,0-.42,0-.64,0s-.46,0-.67,0a11.75,11.75,0,0,0-1.58.13,15.09,15.09,0,0,0-11.3,8.14A9.75,9.75,0,0,0,6.91,16c-.14.39-.29.8-.41,1.21a11.38,11.38,0,0,0-.34,1.56,13.49,13.49,0,0,0-.24,2.54A15.08,15.08,0,0,0,10.39,32.1l.06,0,1.09,1,0,0a8.89,8.89,0,0,0,1,.75l1.4.84a15,15,0,0,0,14,.07A10.72,10.72,0,0,0,29.39,34c.37-.24.71-.49,1.05-.75l1.19-1.06A15.07,15.07,0,0,0,36.2,21.44,15.39,15.39,0,0,0,36,18.89Zm-1.91-2.3a8.79,8.79,0,0,1,.36,1.1v0L26,20.44a4.53,4.53,0,0,0-.4-1.21l8.5-2.74A.38.38,0,0,0,34.08,16.59ZM33.4,15,24,17.34,23.34,7.7A14,14,0,0,1,33.4,15Zm-8.27,5.24a.72.72,0,0,1-.72.72.72.72,0,1,1,0-1.44A.72.72,0,0,1,25.13,20.25Zm-1.27,3.93a.72.72,0,0,1-.72.72.73.73,0,1,1,0-1.45A.72.72,0,0,1,23.86,24.18ZM20.45,7.53a.41.41,0,0,1,.15,0h.61a3.74,3.74,0,0,1,.52,0h0l0,8.92a3.67,3.67,0,0,0-.66-.05,3.49,3.49,0,0,0-.65.05Zm.61,9.54a.73.73,0,0,1,.73.73.73.73,0,0,1-1.46,0A.73.73,0,0,1,21.06,17.07Zm0,2.31a2,2,0,1,1-2,2A2,2,0,0,1,21.06,19.38ZM19,23.45a.73.73,0,1,1-.72.73A.72.72,0,0,1,19,23.45ZM17.74,21a.72.72,0,1,1,0-1.44.72.72,0,0,1,0,1.44ZM18.88,7.68l-.7,9.64h0L8.79,14.93A13.88,13.88,0,0,1,18.88,7.68ZM7.72,17.56a11.11,11.11,0,0,1,.37-1.11.21.21,0,0,1,0-.06l8.48,2.8a5,5,0,0,0-.42,1.22L7.7,17.61S7.71,17.58,7.72,17.56Zm3.41,13.51a13.8,13.8,0,0,1-4-9.75,15.74,15.74,0,0,1,.19-2.14l.09,0,8.84,3.63Zm2.21,1.84,0,0a7.36,7.36,0,0,1-.91-.66l-.06-.05L17.59,25a4.13,4.13,0,0,0,1,.77ZM21,35.27a13.59,13.59,0,0,1-6.26-1.53L21,26.37l6.27,7.43A13.66,13.66,0,0,1,21,35.27Zm8.67-3c-.32.24-.62.48-1,.71,0,0,0,0,0,0l-5.23-7.24a4.74,4.74,0,0,0,1-.77l5.21,7.24Zm1.21-1.1-5.06-8.31,8.94-3.59a12.14,12.14,0,0,1,.17,2.17A13.7,13.7,0,0,1,30.89,31.17Z"/></g></g></g></g></svg>